<?xml version="1.0" encoding="UTF-8"?><svg id="a" xmlns="http://www.w3.org/2000/svg" viewBox="0 0 212.51 65.87"><defs><style>.b{opacity:.7;}.b,.c,.d{fill:#ea2828;}.c{opacity:.3;}.e,.f{fill:#ed2224;}.g{fill:#ea2928;}.h{fill:#ec2526;}.i{fill:#b4ddf1;}.f{opacity:.6;}</style></defs><g><path class="f" d="M26.88,29.3c.73,1.46,.65,3.46-.06,3.8-.53,.25-1.43-.41-2.19-1.25-.37-.41-.65-.78-.82-1.07-.14-.24-.55-.99-.81-2.86-.2-1.46-.3-2.19,0-2.34,.34-.17,1.01,.52,2.34,1.91,.88,.91,1.31,1.36,1.54,1.81Z"/><path class="e" d="M32.79,35.82c-.72,0-1.41-.41-1.67-1.04-.16-.39-.14-.87,.08-1.28,.19-.37,.52-.64,.89-.72,.11-.03,.23,.05,.25,.16,0,.01,0,.03,0,.04,.25-.03,.51-.04,.77,.03,.4,.11,.8,.49,.77,.96,0,.12-.05,.23-.08,.33-.04,.11-.07,.2-.06,.28,0,.04,.03,.09,.05,.14,.04,.08,.08,.18,.09,.29,.03,.41-.36,.68-.74,.75-.12,.02-.24,.04-.36,.04Zm-.95-2.45c-.11,.09-.2,.2-.27,.33-.15,.3-.18,.64-.06,.92,.23,.54,.92,.88,1.55,.75,.2-.04,.41-.17,.4-.3,0-.04-.03-.1-.05-.15-.03-.07-.07-.15-.08-.24-.03-.18,.02-.35,.07-.49,.03-.08,.05-.16,.06-.23,.02-.24-.22-.45-.46-.52-.29-.08-.64-.02-.94,.04-.09,.02-.18-.03-.22-.1Z"/><path class="e" d="M31.83,33.01c-.1,0-.18-.07-.21-.16-.17-.73-.65-1.61-1.48-1.9-.4-.14-.9-.08-1.29,.16-.31,.19-.5,.47-.54,.78-.01,.12-.12,.2-.24,.18-.12-.01-.2-.12-.19-.24,.05-.44,.32-.82,.74-1.09,.5-.31,1.13-.38,1.65-.2,.85,.3,1.5,1.12,1.75,2.21,.03,.11-.05,.23-.16,.25-.02,0-.03,0-.05,0Z"/><path class="e" d="M30.58,34.95c-.18,0-.37-.04-.54-.12-.07-.03-.15-.07-.22-.11-.25-.13-.48-.25-.69-.2-.05,.01-.1,.03-.16,.06-.11,.05-.24,.1-.38,.09-.34,0-.62-.28-.77-.75-.22-.69-.26-1.44-.11-2.15,.02-.11,.14-.19,.25-.17,.12,.02,.19,.14,.17,.25-.13,.64-.1,1.31,.1,1.94,.07,.22,.2,.45,.37,.45,.06,0,.13-.03,.22-.06,.07-.03,.14-.06,.22-.08,.36-.08,.69,.08,.98,.23,.07,.04,.14,.07,.21,.1,.19,.09,.42,.1,.56,.04,.08-.03,.1-.08,.12-.12,.04-.11,.16-.17,.27-.13,.11,.04,.17,.16,.13,.27-.06,.17-.18,.3-.35,.37-.11,.05-.24,.07-.37,.07Z"/><path class="e" d="M26.19,33.86c-.38,0-.71-.14-.91-.41l-.1-.13,.1-.13c.18-.23,.47-.86,.78-1.53,.6-1.29,1.06-2.22,1.43-2.51,.09-.07,.32-.25,.58-.16,.19,.06,.28,.23,.33,.33l.47,.87c.06,.1,.02,.23-.09,.29-.1,.06-.23,.02-.29-.09l-.47-.87s-.07-.12-.09-.13c0,0-.04-.01-.18,.09-.32,.25-.87,1.42-1.31,2.36-.28,.6-.53,1.13-.72,1.45,.16,.12,.39,.16,.65,.13,.59-.09,1.11-.59,1.39-1.34,.04-.11,.16-.17,.27-.13,.11,.04,.17,.16,.13,.27-.33,.9-.98,1.5-1.72,1.62-.08,.01-.16,.02-.24,.02Z"/><path class="e" d="M25.45,33.54s-.04,0-.05,0c-.49-.13-2.19-1.39-2.29-2.52v-.06l.02-.06c.11-.21,.25-.47,.42-.78,.21-.39,.31-.56,.37-.68,.06-.1,.09-.16,.16-.3l.08-.16c.25-.47,.55-1.06,.94-1.59,.08-.11,.29-.39,.6-.36,.21,.02,.36,.17,.45,.26l1.56,1.6c.08,.08,.08,.22,0,.3-.08,.08-.22,.08-.3,0l-1.56-1.6s-.13-.13-.18-.13c-.04,0-.11,.03-.23,.19-.37,.5-.67,1.07-.91,1.53l-.08,.16c-.08,.14-.11,.21-.17,.31-.07,.12-.16,.28-.37,.67-.15,.28-.28,.52-.38,.72,.14,.88,1.55,1.98,1.96,2.09,.11,.03,.18,.15,.15,.26-.02,.1-.11,.16-.21,.16Z"/><path class="e" d="M23.34,31.02s-.06,0-.09-.02c-.29-.14-.99-2.11-1-3.62,0-.49,.44-1.14,.87-1.53,.24-.21,.6-.46,.95-.42,.49,.06,.8,.46,1.06,.83l.45,.66c.07,.1,.04,.23-.06,.3-.1,.07-.23,.04-.3-.05l-.45-.66c-.2-.29-.45-.61-.75-.65-.15-.02-.38,.1-.62,.31-.4,.36-.73,.91-.73,1.21,0,1.17,.41,2.41,.65,2.97,.09,0,.17,.07,.19,.16,.06,.21,.09,.36-.03,.46-.04,.03-.09,.05-.15,.05Zm-.2-.24h0Z"/><path class="e" d="M22.46,27.59s-.06,0-.09-.02c-.2-.09-.36-.29-.45-.57-.17-.51-.09-1.16,.23-1.74,.05-.1,.09-.2,.14-.31,.12-.3,.26-.63,.61-.8l.16-.07,.1,.14c.31,.44,.67,.84,1.06,1.21,.09,.08,.09,.22,0,.3-.08,.08-.22,.09-.3,0-.36-.34-.69-.71-.99-1.11-.11,.11-.18,.28-.26,.47-.05,.11-.09,.23-.16,.35-.26,.48-.33,1.01-.2,1.41,.05,.16,.14,.28,.23,.32,.11,.05,.15,.18,.1,.28-.04,.08-.11,.12-.19,.12Z"/><path class="e" d="M22.37,25.33s-.07,0-.1-.03c-.64-.35-.54-1.27-.51-1.57,.01-.11,.03-.32,.2-.46,.11-.09,.25-.11,.39-.07,.23,.07,.4,.29,.46,.48,.01,.03,.02,.07,.03,.11,.05,.15,.1,.31,.19,.34,.11,.04,.17,.16,.13,.27-.04,.11-.16,.17-.27,.13-.29-.1-.39-.39-.46-.61-.01-.03-.02-.06-.03-.1-.04-.12-.15-.21-.19-.21,0,0-.02,.04-.04,.16-.07,.64,.03,1.01,.29,1.16,.1,.06,.14,.19,.08,.29-.04,.07-.11,.11-.19,.11Z"/><path class="e" d="M29.27,30.64c-.09,0-.17-.06-.2-.14-.25-.73-.89-1.28-1.5-1.82l-.2-.17c-1.69-1.49-3.09-3.25-4.18-5.23l-.15-.27,.3-.05c.93-.14,1.71,.52,2.4,1.25,.37,.39,.76,.8,1.12,1.22,1.22,1.42,2.18,3.03,2.86,4.77,.04,.11-.01,.23-.12,.27-.05,.02-.1,.02-.14,0-.02,.06-.07,.12-.13,.14-.02,0-.05,.01-.07,.01Zm-5.53-7.26c1.03,1.81,2.35,3.42,3.91,4.81l.2,.17c.38,.34,.77,.68,1.09,1.07-.62-1.34-1.42-2.59-2.39-3.72-.35-.41-.74-.81-1.11-1.2-.53-.55-1.09-1.06-1.7-1.13Z"/><path class="e" d="M31.15,31.31c-.09,0-.17-.05-.2-.14-.98-2.64-2.33-5.13-3.99-7.41-.18-.25-.43-.52-.69-.58,.66,2.7,2.5,5.01,4.33,7.15,.08,.09,.07,.22-.02,.3-.09,.08-.22,.07-.3-.02-1.92-2.24-3.85-4.68-4.48-7.58l-.04-.19,.19-.06c.45-.14,.91,.11,1.36,.73,1.68,2.31,3.05,4.83,4.04,7.51,.04,.11-.02,.23-.13,.27-.02,0-.05,.01-.07,.01Z"/><path class="e" d="M24.04,40.17c-.05,0-.1-.02-.14-.06-.09-.08-.09-.21-.01-.3,2.1-2.3,3.4-5.27,3.65-8.37l.09-1.09,.33,1.05c.19,.62,.26,1.26,.32,1.89l.16,1.61c.04-.22,.08-.44,.12-.65,.02-.11,.14-.19,.25-.16,.12,.02,.19,.14,.16,.25-.21,1-.31,2.02-.3,3.04l-.43,.02-.4-4.07c-.02-.17-.03-.35-.06-.53-.48,2.71-1.73,5.27-3.59,7.31-.04,.05-.1,.07-.16,.07Z"/><path class="e" d="M31.84,40.12c-.07,0-.14-.03-.18-.09-1.06-1.56-1.29-3.96-1.49-6.08-.04-.38-.07-.76-.11-1.12-.06,.45-.12,.89-.17,1.32,.02,0,.03,0,.05,0,.12,.02,.2,.12,.18,.24s-.12,.2-.24,.18c-.02,0-.03,0-.05,0-.11,.81-.21,1.63-.34,2.61l-.42-.03c0-.33-.01-.55-.02-.75-.01-.33-.03-.58,.01-1.15,.01-.16,.07-.67,.37-.95l.02-.13c.12-.92,.24-1.83,.38-2.95l.17-1.31,.25,1.3c.16,.81,.25,1.73,.34,2.7,.21,2.17,.42,4.42,1.42,5.88,.07,.1,.04,.23-.06,.29-.04,.02-.08,.04-.12,.04Z"/><path class="e" d="M36.5,39.91c-.58-.64-1.12-1.32-1.64-2.01l-1.97-2.42c-.07-.09-.06-.22,.03-.3,.08-.06,.19-.06,.26,0,.02-.05,.05-.1,.1-.12,.1-.06,.23-.02,.29,.08,.49,.87,1.03,1.7,1.62,2.51l1.62,2-.32,.28Z"/><path class="e" d="M28.13,28.3s-.05,0-.07-.03c-1.36-1.18-2.5-2.66-3.3-4.28-.03-.05,0-.12,.05-.14,.05-.03,.12,0,.14,.05,.79,1.59,1.91,3.04,3.25,4.21,.04,.04,.05,.11,.01,.15-.02,.02-.05,.04-.08,.04Z"/><path class="e" d="M30.54,30.5s-.06-.01-.08-.04c-1.54-2-2.67-4.34-3.27-6.79-.01-.06,.02-.11,.08-.13,.06-.01,.11,.02,.13,.08,.59,2.41,1.71,4.73,3.23,6.71,.04,.05,.03,.11-.02,.15-.02,.01-.04,.02-.06,.02Z"/><path class="e" d="M24.9,24.61s-.02,0-.03,0l-.55-.15c-.06-.02-.09-.07-.08-.13,.02-.06,.07-.09,.13-.08l.55,.15c.06,.02,.09,.07,.08,.13-.01,.05-.06,.08-.1,.08Z"/><path class="e" d="M26.07,26.68c-.07,0-.14,0-.21-.02-.06-.01-.09-.07-.08-.13,.01-.06,.07-.09,.13-.08,.21,.04,.44,0,.62-.12,.05-.03,.12-.02,.15,.03,.03,.05,.02,.11-.03,.15-.17,.11-.37,.17-.57,.17Z"/><path class="e" d="M27.68,25.29s-.05-.01-.07-.03l-.98-.96s-.04-.11,0-.15c.04-.04,.11-.04,.15,0l.98,.96s.04,.11,0,.15c-.02,.02-.05,.03-.08,.03Z"/><path class="e" d="M29.63,28.63s-.04,0-.06-.02l-.69-.43s-.07-.1-.03-.15c.03-.05,.1-.06,.15-.03l.69,.43s.07,.1,.03,.15c-.02,.03-.05,.05-.09,.05Z"/><path class="e" d="M32.54,35.58l-.07-.13c-.18-.31-.18-.7-.01-1.01,.17-.31,.51-.52,.86-.55,.06,0,.11,.04,.11,.1h0c.11,.09,.15,.24,.12,.37-.03,.14-.13,.25-.21,.33l-.8,.88Zm.68-1.46c-.24,.05-.46,.21-.58,.42-.11,.2-.13,.45-.05,.67l.6-.65c.06-.07,.14-.15,.16-.24,.02-.07-.01-.14-.06-.15-.03,0-.05-.02-.06-.04Z"/><path class="e" d="M20.98,42.16s-.08-.02-.1-.06c-.02-.05,0-.12,.05-.14,1.21-.55,2.31-1.29,3.27-2.22,.04-.04,.11-.04,.15,0,.04,.04,.04,.11,0,.15-.97,.94-2.09,1.7-3.33,2.26-.01,0-.03,0-.04,0Z"/><path class="e" d="M35.29,42.58s-.03,0-.04,0c-1.34-.53-2.54-1.47-3.38-2.65-.03-.05-.02-.11,.03-.15,.05-.03,.11-.02,.15,.03,.81,1.14,1.97,2.06,3.28,2.57,.05,.02,.08,.08,.06,.14-.02,.04-.06,.07-.1,.07Z"/><path class="e" d="M36.79,37.57s-.04,0-.06-.02c-1.1-.7-2.18-1.47-3.19-2.29-.05-.04-.05-.1-.02-.15,.04-.05,.1-.05,.15-.02,1.01,.82,2.08,1.58,3.17,2.28,.05,.03,.06,.1,.03,.15-.02,.03-.05,.05-.09,.05Z"/><path class="e" d="M36.42,38.02s-.04,0-.06-.02c-1.03-.74-1.9-1.64-2.61-2.68-.03-.05-.02-.11,.03-.15,.05-.03,.12-.02,.15,.03,.69,1.02,1.55,1.91,2.56,2.63,.05,.03,.06,.1,.02,.15-.02,.03-.05,.04-.09,.04Z"/><path class="e" d="M33.58,33.99c-.06,0-.11-.05-.11-.11v-.08c0-.06,.05-.11,.11-.11s.11,.05,.11,.11v.08c0,.06-.05,.11-.11,.11Z"/><path class="e" d="M30.37,37.45s-.05,0-.08,0l-.23-.02,.47-2.72c.02-.12,.13-.19,.25-.17,.12,.02,.19,.13,.17,.25l-.38,2.22c.15-.04,.31-.11,.47-.2,1.75-.91,3.38-2.04,4.85-3.36,.09-.08,.22-.07,.3,.02,.08,.09,.07,.22-.02,.3-1.49,1.34-3.15,2.49-4.93,3.42-.27,.14-.55,.27-.86,.27Z"/><path class="e" d="M37.89,37.29c-.07,0-.14-.04-.18-.1-.65-1.06-1.27-2.16-1.86-3.25-.06-.1-.02-.23,.09-.29,.1-.06,.23-.02,.29,.09,.58,1.09,1.2,2.18,1.85,3.23,.06,.1,.03,.23-.07,.29-.03,.02-.07,.03-.11,.03Z"/><path class="e" d="M41.18,40.05s-.03,0-.05-.01c-1.31-.67-2.46-1.66-3.31-2.86-.03-.05-.02-.11,.03-.15,.05-.03,.11-.02,.15,.03,.83,1.17,1.95,2.14,3.23,2.79,.05,.03,.07,.09,.05,.14-.02,.04-.06,.06-.09,.06Z"/><path class="e" d="M44.06,41.08s-.02,0-.03,0c-.95-.26-1.88-.61-2.76-1.04v.09c-.01,.06-.07,.1-.12,.1-.06,0-.1-.06-.1-.12l.04-.4,.14,.07c.91,.46,1.88,.82,2.86,1.09,.06,.02,.09,.07,.07,.13-.01,.05-.06,.08-.1,.08Z"/><path class="e" d="M17.69,42.39s-.07-.02-.09-.05c-.03-.05-.02-.11,.03-.15,.56-.38,1.25-.33,1.91-.27,.45,.04,.93,.08,1.35-.03,.06-.01,.11,.02,.13,.08,.01,.06-.02,.11-.08,.13-.46,.11-.95,.07-1.42,.03-.66-.05-1.28-.11-1.78,.23-.02,.01-.04,.02-.06,.02Z"/><path class="e" d="M36.7,43.12s-.03,0-.04,0l-1.25-.54c-.05-.02-.08-.09-.06-.14,.02-.05,.09-.08,.14-.06l1.25,.54c.05,.02,.08,.09,.06,.14-.02,.04-.06,.06-.1,.06Z"/><path class="e" d="M33.62,33.65s-.04,0-.06-.02c-.05-.03-.06-.1-.02-.15,.87-1.17,2.13-2.03,3.54-2.41,.06-.02,.12,.02,.13,.07,.02,.06-.02,.11-.07,.13-1.37,.37-2.58,1.2-3.43,2.33-.02,.03-.05,.04-.09,.04Z"/><path class="e" d="M33.76,33.72s-.07-.02-.09-.05c-.03-.05-.01-.12,.04-.15l2.16-1.29c.05-.03,.12-.01,.15,.04,.03,.05,.01,.12-.04,.15l-2.16,1.29s-.04,.02-.05,.02Z"/><path class="e" d="M38.67,41.41s-.03,0-.05-.02c-.75-.55-1.49-1.14-2.2-1.74-.03-.03-.04-.08,0-.11s.08-.04,.11,0c.71,.6,1.45,1.18,2.19,1.73,.04,.03,.04,.08,.02,.11-.02,.02-.04,.03-.06,.03Z"/></g><g><path class="e" d="M56.27,42.69l-.09-.38c-.31-1.32,.22-2.55,.74-3.74,.29-.67,.59-1.36,.73-2.04,.32-1.64-.3-3.33-.9-4.97-.1-.28-.2-.55-.3-.83-.96-2.72-.88-4.84,.22-6.3,.57-.76,1.37-1.21,2.18-1.25,.21-.01,.38,.15,.39,.36v.02s.04,.03,.06,.04c.45,.35,.76,1.01,.76,1.64,0,.26-.03,.52-.05,.77-.05,.5-.1,.98,.08,1.36,.12,.24,.32,.46,.55,.68l.07,.07c1.92,1.97,3.72,5.37,2.47,8.46-.66,1.62-2.01,2.81-3.2,3.87-.93,.83-1.99,1.76-3.34,2.13l-.37,.1Zm1.97-18.58c-.36,.16-.7,.44-.97,.79-.94,1.24-.98,3.12-.11,5.58,.1,.27,.2,.54,.3,.82,.64,1.73,1.29,3.53,.93,5.38-.15,.76-.47,1.49-.78,2.2-.43,.98-.84,1.92-.76,2.85,1.01-.39,1.87-1.15,2.64-1.83,1.13-1,2.41-2.13,3-3.58,1.12-2.75-.54-5.84-2.31-7.64l-.07-.07c-.26-.26-.52-.53-.69-.89-.27-.58-.21-1.19-.15-1.77,.03-.24,.05-.47,.05-.69,0-.4-.2-.84-.47-1.04-.14-.11-.27-.14-.42-.1-.07,.02-.14,.02-.2,0Z"/><path class="e" d="M60.13,37.92s-.06,0-.09-.01c-.1-.02-.17-.08-.22-.17-.1-.18-.04-.43,0-.53,.49-1.49,.22-3.32-.76-5.16l-.1-.19c-.25-.47-.51-.95-.56-1.49-.05-.65,.33-1.42,1.03-1.53,.1-.02,.2,.05,.21,.16,.02,.1-.05,.2-.16,.22-.48,.08-.76,.64-.72,1.13,.04,.47,.28,.91,.51,1.34l.1,.19c1.02,1.93,1.3,3.87,.78,5.46-.03,.11-.03,.19-.03,.22,0,0,.03-.02,.08-.06,.62-.45,1.04-1.21,1.17-2.14,.12-.84,.02-1.7-.12-2.57-.1-.68-.22-1.34-.51-1.91-.32-.63-.83-1.08-1.39-1.21-.1-.02-.16-.13-.14-.23,.02-.1,.12-.16,.22-.14,.67,.16,1.27,.67,1.64,1.41,.32,.62,.44,1.31,.55,2.03,.14,.9,.25,1.79,.12,2.68-.15,1.03-.62,1.88-1.32,2.39-.05,.04-.17,.12-.31,.12Zm.02-.37h0Z"/><path class="e" d="M57.59,29.17l-.36-.09,.04-.22c.02-.3-.1-.62-.22-.95-.07-.19-.15-.39-.2-.59-.27-1.1,.34-2.3,1.36-2.67,.1-.04,.2,.02,.24,.11,.03,.1-.02,.21-.11,.24h-.02s.02,.08,.01,.12l-.68,3.77c0,.09-.02,.18-.05,.27Zm.33-3.94c-.58,.43-.9,1.26-.72,2,.04,.18,.11,.36,.18,.54,.02,.04,.03,.09,.05,.13l.48-2.67Z"/><path class="e" d="M58.41,28.59l-.11-.43c-.28-1.1-.21-2.29,.18-3.35,0-.03,.02-.05,.04-.07h0c-.04-.1,0-.21,.09-.25,.09-.04,.2,0,.25,.09,.54,1.16,.46,2.55-.22,3.64l-.23,.37Zm.31-3.31c-.22,.74-.27,1.52-.16,2.28,.31-.72,.36-1.53,.16-2.28Z"/><path class="e" d="M59.46,25.14l-1.94-.12,.1-.24c.14-.36,.45-.65,.82-.79l.02-.02s.12-.06,.18-.04c.05-.01,.1-.02,.15-.02,.1-.01,.19,.07,.2,.17,0,.06-.02,.12-.06,.16,.14,.19,.27,.39,.38,.6l.16,.3Zm-1.36-.47l.69,.04c-.08-.13-.17-.25-.26-.37-.17,.07-.32,.18-.43,.32Z"/><path class="e" d="M57.9,30.63c-.28,0-.55-.04-.81-.13l-.26-.08,.17-.21c.19-.25,.48-.43,.79-.51,.04-.04,.09-.05,.15-.05h.07s.05,.01,.07,.02c.12,.02,.26,.07,.37,.16,.11,.09,.17,.23,.17,.37,0,.12-.05,.23-.14,.3-.09,.07-.19,.09-.29,.1-.1,.01-.19,.02-.29,.02Zm-.38-.41c.21,.03,.42,.04,.62,.02,.07,0,.09-.02,.1-.02,0-.01,0-.06-.04-.09-.05-.04-.13-.07-.21-.08-.17,.02-.33,.08-.47,.18Z"/><path class="e" d="M58.84,32.6l-.2-.04c-.37-.07-.59-.44-.6-.99,0-.09,0-.33,.17-.46,.14-.1,.32-.06,.42,.03,.1,.09,.13,.22,.07,.34h0c.14,.3,.2,.62,.17,.93l-.02,.2Z"/><path class="e" d="M59.07,34.49l-.14-.1c-.28-.2-.29-.38-.24-.51,.03-.09,.11-.16,.2-.17-.03-.08,0-.17,.07-.22,.09-.06,.2-.04,.26,.05,.16,.24,.15,.58-.04,.81l-.11,.14Zm-.14-.64h0Z"/><path class="e" d="M57.57,40.52c-.16,0-.31-.05-.42-.15-.17-.15-.25-.39-.2-.64,.05-.25,.22-.45,.44-.52l.06,.18-.06-.18c.22-.07,.48-.01,.67,.16,.18,.17,.27,.4,.22,.62-.05,.22-.22,.4-.45,.48-.08,.03-.17,.04-.25,.04Zm-.07-.95c-.11,.04-.17,.14-.18,.24-.02,.09,0,.2,.08,.27,.09,.08,.22,.07,.31,.04,.09-.03,.19-.1,.21-.2,.02-.1-.04-.2-.11-.26-.07-.07-.19-.12-.3-.09h0Z"/><path class="e" d="M58.52,38.54c-.23,0-.45-.17-.49-.4-.05-.25,.12-.51,.37-.57,.04-.01,.09,0,.12,.01,.04,0,.09,.02,.13,.04l.09,.05v.83l-.16,.02s-.04,0-.06,0Z"/><path class="e" d="M59.16,39.36c-.11,0-.2-.06-.24-.16-.04-.1,0-.22,.09-.3,.1-.07,.22-.08,.31-.01,.04,.03,.07,.08,.07,.12,.03,.04,.04,.09,.03,.14-.02,.11-.12,.19-.24,.2h-.02Z"/></g><g><path class="c" d="M88.65,24.87c-4.47,0-8.09,3.62-8.09,8.08s3.62,8.08,8.09,8.08,8.09-3.62,8.09-8.08-3.62-8.08-8.09-8.08Zm-.14,13.21c-2.77,0-5.01-2.24-5.01-5.01s2.24-5.01,5.01-5.01,5.01,2.24,5.01,5.01-2.24,5.01-5.01,5.01Z"/><circle class="b" cx="88.51" cy="33.07" r="5.01"/><path class="g" d="M88.51,41.29c-4.61,0-8.35-3.75-8.35-8.35s3.75-8.35,8.35-8.35,8.35,3.75,8.35,8.35-3.75,8.35-8.35,8.35Zm0-16.17c-4.31,0-7.81,3.51-7.81,7.81s3.51,7.81,7.81,7.81,7.81-3.51,7.81-7.81-3.51-7.81-7.81-7.81Z"/><path class="d" d="M92.9,30.78c-.33-.58-1.1-.91-1.77-.92-.67,0-1.32,.25-1.9,.57-.88,.47-1.69,1.12-2.18,1.99-.89,1.58-.47,3.78,.94,4.91,1.41,1.14,3.65,1.08,5-.13,.42-.38,.77-.86,.9-1.42,.13-.55,.02-1.18-.35-1.6-.44,.47-.52,1.19-.96,1.66-.44,.48-1.18,.6-1.8,.43s-1.16-.59-1.6-1.07c-.4-.43-.76-.95-.81-1.54-.08-1.06,.87-1.95,1.88-2.27,.47-.15,.98-.22,1.45-.09,.47,.14,.9,.51,.99,.99,.3,.09,.6-.24,.61-.55,.01-.32-.16-.6-.33-.87"/><path class="h" d="M90.4,38.28c-.9,0-1.8-.28-2.5-.84-1.46-1.17-1.9-3.45-.98-5.08,.45-.8,1.2-1.49,2.23-2.04,.74-.4,1.37-.59,1.97-.58,.64,0,1.5,.32,1.89,.99v.02s.06,.03,.08,.06c.17,.28,.36,.59,.35,.95,0,.22-.13,.45-.31,.58-.14,.11-.31,.14-.47,.09l-.08-.02-.02-.08c-.08-.4-.44-.76-.9-.89-.39-.11-.85-.08-1.37,.08-.95,.31-1.87,1.14-1.79,2.13,.04,.46,.29,.94,.77,1.46,.51,.55,1.01,.89,1.54,1.03,.62,.17,1.3,.01,1.67-.39,.2-.22,.32-.49,.45-.79,.13-.3,.27-.62,.51-.87l.1-.11,.1,.11c.38,.44,.53,1.1,.38,1.72-.13,.54-.45,1.05-.94,1.49-.73,.65-1.7,.98-2.68,.98Zm.7-8.28c-.55,0-1.13,.18-1.82,.55-.98,.53-1.7,1.18-2.12,1.94-.86,1.52-.45,3.65,.91,4.74,1.36,1.09,3.53,1.04,4.83-.13,.31-.28,.71-.74,.86-1.35,.11-.49,.03-.99-.22-1.36-.15,.2-.25,.43-.35,.67-.13,.3-.27,.61-.5,.86-.45,.48-1.21,.67-1.94,.47-.57-.16-1.12-.52-1.66-1.11-.53-.57-.8-1.1-.84-1.62-.09-1.13,.92-2.07,1.97-2.41,.57-.18,1.09-.21,1.53-.09,.53,.15,.93,.54,1.07,1,.07,0,.12-.03,.16-.06,.12-.08,.2-.23,.2-.38,0-.28-.15-.54-.31-.8,0,0,0-.02-.01-.02-.03-.01-.05-.03-.07-.06-.33-.58-1.09-.85-1.66-.85h-.02Z"/><path class="d" d="M93.98,32.66c-.43-.3-1.37-.13-1.6,.34-.09,.17-.11,.41,.03,.55,.08,.07,.18,.11,.29,.13,.3,.08,.61,.17,.92,.14s.63-.19,.75-.48-.04-.69-.35-.74"/><path class="h" d="M93.48,33.96c-.29,0-.57-.08-.83-.15-.1-.03-.24-.07-.34-.17-.19-.19-.16-.49-.05-.7,.12-.23,.38-.42,.73-.51,.35-.09,.7-.07,.95,.05,.03-.02,.06-.03,.1-.02,.17,.03,.32,.14,.41,.3,.11,.19,.12,.43,.04,.62-.13,.31-.47,.53-.86,.56-.05,0-.09,0-.14,0Zm-.08-1.31c-.11,0-.24,.01-.35,.04-.27,.07-.47,.21-.56,.37-.06,.12-.09,.3,0,.39,.05,.05,.13,.07,.23,.1,.29,.08,.58,.16,.87,.13,.3-.03,.55-.18,.64-.4,.05-.11,.04-.27-.03-.38-.02-.04-.07-.1-.14-.14-.05,.04-.12,.05-.17,.01-.12-.08-.3-.12-.5-.12Z"/><path class="h" d="M84.11,35.76c-.09,0-.18-.05-.23-.13-.49-.85-.72-1.72-.68-2.61,.09-2.25,2.06-5.38,5.52-5.38h.03c.26,0,.96,0,1.81,.31,.14,.05,.21,.2,.16,.34-.05,.14-.2,.21-.34,.16-.76-.28-1.38-.27-1.63-.27h-.03c-3.13,0-4.91,2.83-4.99,4.87-.03,.78,.17,1.56,.61,2.32,.07,.13,.03,.29-.1,.36-.04,.02-.09,.04-.13,.04Z"/></g><g><path class="e" d="M110.76,42.24c-.2,0-.4-.03-.57-.1-.8-.32-1.18-1.28-1.05-2.63,.07-.71,.18-1.43,.3-2.12,.29-1.77,.56-3.45,.11-5.08-.24-.88-.68-1.68-1.11-2.42-.51-.86-1.46-2.46-.63-3.71,.57-.85,1.25-1.22,2.03-1.08,2.18,.39,4.18,4.72,4.44,5.8,.56,2.29,.32,4.64,.05,6.44-.39,2.57-1.27,4.11-2.68,4.72-.3,.13-.6,.19-.87,.19Zm-1.23-16.62c-.46,0-.87,.28-1.26,.86h0c-.56,.84-.02,1.99,.65,3.11,.44,.73,.91,1.61,1.17,2.56,.48,1.75,.18,3.56-.1,5.32-.11,.69-.23,1.4-.29,2.08-.05,.52-.08,1.75,.7,2.06,.37,.15,.8,.01,1.02-.08,1.22-.52,1.99-1.93,2.35-4.29,.26-1.74,.5-4.03-.04-6.22-.29-1.18-2.22-5.06-3.99-5.38-.07-.01-.14-.02-.21-.02Zm-1.49,.7h0Z"/><path class="e" d="M122.06,42.67c-.37,0-.73-.09-1.07-.28-.83-.48-1.22-1.42-1.49-2.27-1.53-4.84-1.39-10.15,.4-14.94,.22-.59,.5-1.24,1.09-1.63,.36-.23,.84-.3,1.26-.17,.33,.1,.59,.32,.71,.62,0,.02,.01,.03,.02,.05,.51,.61,.81,1.46,.84,2.45,.02,.74-.09,1.47-.2,2.17-.05,.31-.1,.63-.13,.94-.19,1.62-.05,3.31,.4,4.88,.12,.42,.27,.85,.41,1.26,.23,.67,.47,1.37,.61,2.09,.2,.99,.27,2.41-.51,3.57-.49,.73-1.42,1.27-2.33,1.27Zm-.25-18.8c-.18,0-.37,.05-.52,.15-.45,.29-.68,.85-.87,1.35-1.75,4.68-1.88,9.85-.39,14.58,.24,.75,.57,1.58,1.24,1.96,.9,.52,2.12-.02,2.66-.82,.53-.78,.68-1.9,.43-3.15-.14-.68-.37-1.36-.59-2.02-.14-.42-.29-.85-.42-1.29-.47-1.64-.61-3.4-.42-5.09,.04-.32,.09-.64,.14-.96,.11-.71,.21-1.38,.19-2.07-.04-1.11-.45-2.01-1.13-2.49-.05-.03-.08-.08-.1-.13-.07-.02-.15-.03-.22-.03Z"/><path class="e" d="M112.25,31.45h-.15c-.08,0-.14-.06-.14-.14s.06-.14,.14-.14h.15c.08,0,.14,.06,.14,.14s-.06,.14-.14,.14Z"/><path class="e" d="M112.14,35.14h0c-.62,0-.97-.68-1.05-1.35-.08-.69-.03-1.38,.13-2.05,.05-.2,.12-.41,.28-.55,.11-.09,.26-.14,.4-.12,.12,.01,.22,.07,.28,.16,.04,.06,.03,.15-.03,.19-.06,.04-.15,.03-.19-.03-.02-.03-.06-.04-.09-.05-.06,0-.14,.01-.19,.06-.1,.09-.15,.22-.19,.4-.15,.64-.2,1.3-.12,1.95,.06,.53,.33,1.1,.77,1.1h0c.39,0,.65-.44,.72-.58,.5-.97,.25-2.29-.57-3-.06-.05-.06-.14-.01-.2,.05-.06,.14-.06,.2-.01,.93,.81,1.2,2.25,.63,3.34-.11,.22-.43,.73-.96,.73Z"/><path class="e" d="M111.29,30.45s-.02,0-.03,0c-.09-.01-.17-.08-.19-.16-.02-.09,.01-.18,.09-.23,.08-.06,.18-.06,.25-.01,.05,.03,.07,.09,.06,.14,.03,.04,.04,.1,.01,.16-.04,.07-.11,.11-.19,.11Zm-.05-.25h0Z"/><path class="e" d="M110.71,31.59s-.08,0-.12-.02c-.1-.04-.17-.13-.18-.23-.01-.1,.03-.2,.12-.27,.09-.07,.2-.08,.29-.04,.04,.02,.07,.05,.08,.08,.04,.05,.07,.1,.08,.17,.01,.09-.02,.18-.07,.24-.06,.05-.13,.07-.19,.07Zm-.02-.3h0s.02,.02,.03,.02c0,0-.02-.01-.03-.02Z"/><path class="e" d="M112.71,30.99s-.04,0-.07,0c-.19-.03-.35-.2-.38-.4-.02-.13,.02-.27,.11-.35,.12-.11,.3-.12,.41-.02l.02,.02c.09,.02,.17,.07,.23,.14,.07,.08,.09,.19,.08,.29-.02,.1-.07,.19-.16,.25-.07,.05-.16,.08-.24,.08Zm-.11-.57s-.02,0-.03,.01c-.02,.02-.03,.06-.03,.11,.01,.08,.08,.15,.15,.17,.03,0,.07,0,.1-.03,.03-.02,.04-.04,.05-.07,0-.02,0-.05-.02-.07-.02-.02-.04-.04-.07-.04-.04,0-.07-.02-.1-.05-.02,0-.03-.01-.05-.03h0Z"/><path class="e" d="M111.05,35.75c-.1,0-.2-.06-.25-.16-.06-.12-.05-.26,.05-.34,.05-.04,.11-.06,.17-.06,.03-.02,.07-.02,.11,0,.12,.04,.2,.15,.19,.29,0,.14-.09,.25-.21,.28-.02,0-.04,0-.06,0Z"/><path class="e" d="M112.14,36.18c-.09,0-.17-.03-.25-.1-.11-.09-.16-.23-.13-.36,.02-.11,.08-.2,.18-.27,.11-.07,.24-.1,.36-.08,.08,.01,.12,.09,.11,.16,0,.02-.01,.04-.03,.06,.06,.06,.09,.15,.09,.24,0,.15-.1,.28-.23,.32-.03,0-.06,.01-.09,.01Zm-.05-.49s-.05,.04-.05,.08c0,.03,.01,.07,.04,.1,0,0,.04,.03,.08,.03,.02,0,.03-.04,.03-.07,0-.02,0-.04-.01-.04-.04-.02-.08-.06-.09-.1Z"/><path class="e" d="M113.13,35.31c-.1,0-.17-.04-.22-.1s-.06-.13-.05-.21c.01-.07,.06-.13,.12-.17h.02s.07-.06,.12-.05c.13,.02,.23,.13,.23,.27,0,.13-.1,.25-.23,.27Z"/><path class="e" d="M119.77,31.76l-.08-.07c-.07-.06-.11-.15-.1-.25,0-.1,.05-.19,.13-.24,.06-.04,.15-.03,.19,.04v.02s.04,.03,.05,.04c.08,.14,.03,.32-.1,.41l-.09,.06Z"/><path class="e" d="M120.65,31.11c-.06,0-.12-.02-.17-.05-.06-.04-.11-.11-.14-.19-.05-.14-.02-.29,.08-.42,.04-.05,.09-.1,.15-.13h0c.04-.06,.1-.08,.16-.06,.02,0,.05,0,.07,0,.08,0,.14,.07,.13,.15,0,.01,0,.03,0,.04,.07,.11,.1,.22,.09,.34-.02,.13-.11,.24-.23,.29-.05,.02-.09,.03-.14,.03Zm.03-.53s-.03,.02-.04,.04c-.04,.05-.05,.11-.04,.16,0,.02,.02,.04,.03,.05,.01,0,.03,0,.04,0,.03-.01,.06-.05,.07-.08,0-.06-.02-.12-.06-.17Z"/><path class="e" d="M121.77,31.44c-.06,0-.12-.02-.17-.06l-.03-.04c-.05-.1-.05-.23,0-.33,0-.03,.02-.06,.05-.08,.01-.02,.03-.03,.04-.05,.12-.11,.32-.13,.46-.03,.06,.04,.08,.13,.04,.19-.02,.03-.04,.05-.07,.06,0,.02,0,.04,0,.06,0,.11-.07,.2-.17,.25-.04,.02-.09,.03-.13,.03Z"/><path class="e" d="M121.25,34.52c-.06,0-.11-.04-.13-.1-.25-.81-.58-1.59-.99-2.33-.04-.07-.01-.15,.05-.19,.07-.04,.15-.01,.19,.05,.42,.76,.77,1.56,1.02,2.39,.02,.07-.02,.15-.09,.17-.01,0-.03,0-.04,0Z"/><path class="e" d="M121.44,34.48c-.07,0-.13-.05-.14-.12-.15-.93-.36-1.86-.62-2.76l-.28-.97,.53,.86-.06,.06,.08-.02c.26,.91,.47,1.85,.62,2.79,.01,.08-.04,.15-.12,.16h-.02Z"/><path class="e" d="M121.44,34.25h0c-.08,0-.14-.06-.14-.14,0-.63,.07-1.27,.2-1.88,0-.04,.02-.11,.09-.16,.06-.04,.13-.05,.2-.01l.08,.04,.02,.11c0,.08-.06,.14-.14,.14-.11,.58-.17,1.18-.17,1.77,0,.08-.06,.14-.14,.14Z"/><path class="e" d="M120.63,35.97l-.11-.1c-.06-.06-.14-.13-.18-.23-.06-.14-.02-.3,.09-.38,.07-.05,.18-.06,.27-.02,.08,.04,.13,.12,.13,.2,0,.04-.02,.08-.05,.11h0c.03,.11,.01,.21-.05,.29l-.09,.12Z"/><path class="e" d="M121.72,36.47s-.07,0-.1-.02c-.08-.03-.13-.1-.17-.19-.08-.19-.04-.46,.17-.58,.11-.07,.27-.06,.39,.02,.11,.07,.16,.18,.15,.3,0,.07-.07,.12-.13,.12,0,.11-.04,.22-.13,.29-.05,.04-.11,.06-.17,.06Zm-.03-.42s0,.07,.02,.1c.01,.03,.02,.04,.02,.04,0,0,0-.04,0-.05,0-.03-.02-.06-.05-.09Z"/><path class="e" d="M122.81,35.68c-.11,0-.22-.05-.32-.14-.16-.15-.26-.36-.27-.58-.01-.16,.03-.3,.12-.39,.07-.07,.17-.1,.26-.1,.09,0,.16,.04,.22,.1,.01,.01,.02,.03,.02,.04,.03,0,.06,.02,.08,.04,.11,.12,.26,.29,.29,.5,.02,.14-.02,.29-.11,.39-.07,.09-.17,.14-.28,.14h0Zm-.22-.94s-.04,0-.05,.02c-.03,.03-.05,.1-.04,.18,0,.15,.08,.29,.19,.39,.05,.05,.1,.07,.13,.07,.02,0,.05-.01,.07-.04,.04-.04,.06-.11,.05-.17-.02-.12-.11-.23-.22-.36-.02-.02-.03-.04-.03-.06-.03,0-.05-.01-.07-.03h-.01Z"/><path class="e" d="M120.73,34.97s-.07-.01-.09-.04c-.06-.05-.06-.14-.01-.2,.18-.21,.35-.41,.35-.63,0-.08,.06-.14,.14-.14h0c.08,0,.14,.06,.14,.14,0,.32-.21,.58-.42,.82-.03,.03-.07,.05-.1,.05Z"/><path class="e" d="M121.45,35.47c-.07,0-.13-.05-.14-.12l-.13-1.03c0-.08,.04-.15,.12-.16,.08,0,.15,.04,.16,.12l.13,1.03c0,.08-.04,.15-.12,.16h-.02Z"/><path class="e" d="M121.87,34.82s-.04,0-.05-.01c-.25-.11-.46-.31-.56-.57-.03-.07,0-.15,.07-.18,.07-.03,.15,0,.18,.07,.08,.19,.23,.34,.42,.42,.07,.03,.1,.11,.07,.18-.02,.05-.07,.08-.13,.08Z"/><path class="e" d="M122.36,33.7s-.09,0-.13-.02c-.15-.04-.26-.15-.29-.28-.04-.13,0-.28,.11-.39,.1-.11,.25-.16,.38-.13,.01,0,.02,0,.03,.01,.01,0,.02,0,.04,0,.13,.05,.22,.17,.25,.32s-.02,.29-.12,.39c-.07,.07-.17,.1-.27,.1Zm0-.55s-.08,.03-.11,.05c-.03,.03-.06,.08-.04,.13,.01,.05,.06,.08,.1,.09,.04,.01,.1,.01,.13-.02,.04-.03,.04-.09,.03-.13,0-.04-.03-.09-.08-.11h-.04Z"/><path class="e" d="M119.82,33.6s-.03,0-.04,0h-.06l-.03-.07c-.07-.11-.08-.25-.04-.37v-.05l.06-.03s.11-.04,.17-.03c.06,.02,.11,.05,.14,.11,.01,.02,.02,.05,.02,.07,.03,.06,.04,.13,0,.2-.04,.09-.12,.15-.21,.15Z"/><path class="e" d="M110.52,43.28c-.13,0-.26,0-.4-.03-1.55-.24-2.42-1.81-2.81-2.73-.52-1.23-1-3.06-.37-4.81,.12-.34,.29-.68,.45-1,.28-.57,.55-1.1,.61-1.7,.1-.93-.31-1.77-.75-2.67-.35-.73-.72-1.48-.8-2.28-.17-1.77,1.28-3.54,3.05-3.72,.07,0,.14,.05,.15,.12,0,.08-.05,.14-.12,.15-1.62,.16-2.96,1.79-2.8,3.41,.07,.76,.43,1.49,.77,2.19,.43,.89,.88,1.81,.78,2.82-.07,.65-.36,1.23-.64,1.8-.16,.31-.32,.64-.44,.97-.6,1.66-.14,3.43,.36,4.61,.36,.87,1.18,2.35,2.59,2.56,1.94,.29,3.3-1.95,3.66-2.64,1.35-2.55,1.92-5.53,1.61-8.4-.1-.95-.28-1.7-.56-2.35-.52-1.19-1.44-2.16-2.32-3.09-.84-.89-1.95-1.86-3.11-1.56-.07,.02-.15-.02-.17-.1-.02-.07,.02-.15,.1-.17,1.29-.34,2.48,.7,3.38,1.64,.86,.91,1.84,1.93,2.37,3.17,.29,.68,.48,1.45,.59,2.43,.31,2.92-.27,5.96-1.64,8.56-.37,.69-1.65,2.82-3.56,2.82Z"/><path class="e" d="M122.51,43.18c-.38,0-.74-.06-1.09-.18-1.45-.52-2.42-1.98-2.97-4.48-.67-3.07-.86-6.21-.55-9.34,.12-1.21,.33-2.62,.99-3.87,.57-1.09,2.17-2.69,3.56-2.72,.68-.01,1.22,.32,1.62,.99h0c.48,.81,.49,1.81,.49,2.62l.03,2.95c0,.68,.01,1.46,.38,2.08,.29,.49,.76,.82,1.26,1.16,.34,.24,.69,.48,.99,.79,1.92,1.99,.54,5.22,.08,6.16-.68,1.37-1.4,2.31-2.26,2.95-.77,.57-1.67,.87-2.52,.87Zm-.02-20.31h-.04c-1.28,.03-2.78,1.54-3.32,2.57-.63,1.21-.84,2.58-.96,3.77-.31,3.1-.12,6.21,.55,9.25,.53,2.4,1.44,3.79,2.79,4.28,1.03,.37,2.31,.12,3.34-.65,.83-.61,1.52-1.52,2.18-2.85,.92-1.86,1.39-4.37-.03-5.85-.27-.29-.62-.52-.95-.75-.5-.35-1.02-.71-1.34-1.25-.41-.68-.41-1.54-.42-2.22l-.03-2.95c0-.82-.02-1.74-.45-2.48-.34-.57-.78-.86-1.33-.86Z"/></g><rect class="i" width="148.2" height="16.47"/><rect class="i" y="49.4" width="148.2" height="16.47"/><g><path class="h" d="M154.7,14.37c-.62-1.89-1.27-3.78-1.86-5.68-.15-.46-.3-.93-.42-1.41-.13-.57-.22-1.15-.37-1.72,.08,.57,.1,1.15,.13,1.73,.14,2.35,.15,4.72,.19,7.07h-1.5V2.92h1.42c.96,2.88,1.98,5.73,2.67,8.7-.19-1.44-.35-2.9-.35-4.36V2.92h1.52V14.37h-1.42Z"/><path class="h" d="M159.84,14.49c-2.13,0-2.36-2.28-2.36-3.95s.22-3.97,2.36-3.97,2.38,2.3,2.38,3.97-.24,3.95-2.38,3.95Zm.93-4.43c0-.62-.02-2.2-.9-2.2s-.9,1.56-.9,2.18v.93c0,.62,.02,2.2,.9,2.2s.9-1.56,.9-2.18v-.93Z"/><path class="h" d="M166.55,8c-.08-.02-.17-.02-.25-.02-1.15,0-1.39,.7-1.39,1.73v4.65h-1.38V6.69h1.38v.96c.42-.72,.79-1.08,1.64-1.13v1.48Z"/><path class="h" d="M169.37,7.79v6.57h-1.38V7.79h-.78v-1.1h.78v-2.18h1.38v2.18h.76v1.1h-.76Z"/><path class="h" d="M174.18,14.37v-5.12c-.02-.6-.03-1.44-.81-1.44-.88,0-.88,.94-.88,1.6v4.96h-1.38V1.85h1.38V7.59c.39-.64,.78-1.01,1.55-1.01,1.3,0,1.52,1.05,1.52,2.13v5.67h-1.38Z"/><path class="h" d="M182.05,14.37h-.96l-.57-2.92c-.1-.51-.2-1.03-.25-1.56-.03-.38-.05-.77-.08-1.15-.12,1.91-.54,3.76-.9,5.63h-.98l-1.82-7.67h1.47c.19,1.1,.41,2.18,.56,3.28,.1,.74,.19,1.49,.27,2.23,.05-.7,.17-1.41,.29-2.09,.2-1.13,.42-2.28,.62-3.42h1.01c.2,1.24,.44,2.49,.66,3.73,.1,.58,.13,1.18,.2,1.79,.15-1.85,.56-3.67,.9-5.51h1.37l-1.77,7.67Z"/><path class="h" d="M185.7,10.81c0,.67,0,2.45,.96,2.45,.74,0,.86-.93,.86-1.49h1.3c-.02,.55-.05,1.05-.29,1.54-.35,.76-1.06,1.17-1.89,1.17-2.13,0-2.31-2.28-2.31-3.93s.19-3.98,2.28-3.98,2.26,2.64,2.26,4.24h-3.18Zm1.76-1.03c-.03-.6-.03-2.01-.88-2.01s-.84,1.42-.88,2.01h1.76Z"/><path class="h" d="M193.03,8.17c-.3-.24-.68-.38-1.06-.38-.47,0-.89,.36-.89,.86,0,1.25,2.33,1.39,2.33,3.57,0,1.34-.83,2.27-2.16,2.27-.52,0-.78-.09-1.23-.36v-1.37c.35,.27,.69,.46,1.15,.46,.59,0,.96-.34,.96-.96,0-1.39-2.37-1.54-2.37-3.64,0-1.22,.81-2.09,2.03-2.09,.47,0,.84,.1,1.25,.33v1.32Z"/><path class="h" d="M196.07,7.79v6.57h-1.38V7.79h-.78v-1.1h.78v-2.18h1.38v2.18h.76v1.1h-.76Z"/><path class="h" d="M198.85,10.81c0,.67,0,2.45,.96,2.45,.74,0,.86-.93,.86-1.49h1.3c-.02,.55-.05,1.05-.29,1.54-.35,.76-1.06,1.17-1.89,1.17-2.13,0-2.31-2.28-2.31-3.93s.19-3.98,2.28-3.98,2.26,2.64,2.26,4.24h-3.18Zm1.76-1.03c-.03-.6-.03-2.01-.88-2.01s-.84,1.42-.88,2.01h1.76Z"/><path class="h" d="M206.3,8c-.08-.02-.17-.02-.25-.02-1.15,0-1.39,.7-1.39,1.73v4.65h-1.38V6.69h1.38v.96c.42-.72,.79-1.08,1.64-1.13v1.48Z"/><path class="h" d="M210.33,14.37v-4.98c-.02-.74-.03-1.58-.81-1.58-.88,0-.88,.94-.88,1.6v4.96h-1.38V6.69h1.38v.89c.39-.64,.78-1.01,1.55-1.01,1.3,0,1.52,1.05,1.52,2.13v5.67h-1.38Z"/><path class="h" d="M156.05,27.07c0,1.97-.42,3.19-2.62,3.19-2.06,0-2.57-1.3-2.57-3.14v-8.46h1.49v8.41c0,.84,.07,1.73,1.13,1.73s1.08-.88,1.08-1.73v-8.41h1.49v8.41Z"/><path class="h" d="M160.74,30.1v-4.98c-.02-.74-.03-1.58-.81-1.58-.88,0-.88,.94-.88,1.6v4.96h-1.38v-7.67h1.38v.89c.39-.63,.78-1.01,1.55-1.01,1.3,0,1.52,1.05,1.52,2.13v5.67h-1.38Z"/><path class="h" d="M164.35,21.09c-.52,0-.95-.43-.95-.96s.42-.96,.95-.96,.93,.45,.93,.96-.42,.96-.93,.96Zm-.64,9.01v-7.67h1.38v7.67h-1.38Z"/><path class="h" d="M168.93,30.1h-.95l-2.04-7.67h1.5c.42,1.92,.88,3.83,1.01,5.8,.12-.46,.15-.94,.22-1.41,.22-1.48,.57-2.94,.88-4.39h1.35l-1.98,7.67Z"/><path class="h" d="M172.73,26.55c0,.67,0,2.45,.96,2.45,.74,0,.86-.93,.86-1.49h1.3c-.02,.55-.05,1.05-.29,1.54-.35,.76-1.06,1.17-1.89,1.17-2.13,0-2.31-2.28-2.31-3.93s.19-3.98,2.28-3.98,2.26,2.64,2.26,4.24h-3.18Zm1.76-1.03c-.03-.6-.03-2.01-.88-2.01s-.84,1.42-.88,2.01h1.76Z"/><path class="h" d="M180.18,23.74c-.08-.02-.17-.02-.25-.02-1.15,0-1.39,.7-1.39,1.73v4.65h-1.38v-7.67h1.38v.96c.42-.72,.79-1.08,1.64-1.13v1.48Z"/><path class="h" d="M184.23,23.91c-.3-.24-.68-.38-1.06-.38-.47,0-.89,.36-.89,.86,0,1.25,2.33,1.39,2.33,3.57,0,1.34-.83,2.27-2.16,2.27-.52,0-.78-.09-1.23-.36v-1.37c.35,.27,.69,.46,1.15,.46,.59,0,.96-.34,.96-.96,0-1.39-2.37-1.54-2.37-3.64,0-1.22,.81-2.09,2.03-2.09,.47,0,.84,.1,1.25,.33v1.32Z"/><path class="h" d="M186.36,21.09c-.52,0-.95-.43-.95-.96s.42-.96,.95-.96,.93,.45,.93,.96-.42,.96-.93,.96Zm-.64,9.01v-7.67h1.38v7.67h-1.38Z"/><path class="h" d="M190.24,23.53v6.57h-1.38v-6.57h-.78v-1.1h.78v-2.18h1.38v2.18h.76v1.1h-.76Z"/><path class="h" d="M193.8,33.33h-1.47l1.2-3.85-2.01-7.06h1.59l1.1,5.36,1.3-5.36h1.42l-3.12,10.9Z"/><path class="h" d="M156.67,45.84c-.1-1.58-.22-3.18-.29-4.75-.02-.51-.05-1.01-.07-1.53-.02-.53,.03-1.06-.05-1.6-.41,2.64-.95,5.25-1.44,7.88h-1.01c-.54-2.61-1.17-5.22-1.49-7.88l-.44,7.88h-1.42l.93-11.45h1.3l.98,4.67c.05,.27,.13,.55,.19,.82,.17,.93,.3,1.85,.42,2.78,.03-.55,.17-1.08,.25-1.61,.07-.41,.12-.84,.19-1.25,.05-.27,.12-.53,.17-.81l.88-4.6h1.32l1.05,11.45h-1.47Z"/><path class="h" d="M162.21,45.84v-.98c-.29,.65-.61,1.1-1.38,1.1-1.79,0-1.81-2.78-1.81-4.05s.03-3.86,1.82-3.86c.69,0,1.06,.4,1.37,1v-.88h1.4v7.67h-1.4Zm.05-4.24c0-.6-.03-2.27-.9-2.27s-.91,1.53-.91,2.15v1.05c0,.62,.03,2.16,.91,2.16s.9-1.67,.9-2.27v-.82Z"/><path class="h" d="M165.2,45.84v-12.51h1.38v12.51h-1.38Z"/><path class="h" d="M171.07,45.84v-.98c-.29,.65-.61,1.1-1.38,1.1-1.79,0-1.81-2.78-1.81-4.05s.03-3.86,1.82-3.86c.69,0,1.06,.4,1.37,1v-.88h1.4v7.67h-1.4Zm.05-4.24c0-.6-.03-2.27-.9-2.27s-.91,1.53-.91,2.15v1.05c0,.62,.03,2.16,.91,2.16s.9-1.67,.9-2.27v-.82Z"/><path class="h" d="M177.09,39.47c-.08-.02-.17-.02-.25-.02-1.15,0-1.39,.7-1.39,1.73v4.65h-1.38v-7.67h1.38v.96c.42-.72,.79-1.08,1.64-1.13v1.48Z"/><path class="h" d="M178.69,36.83c-.52,0-.95-.43-.95-.96s.42-.96,.95-.96,.93,.45,.93,.96-.42,.96-.93,.96Zm-.64,9.01v-7.67h1.38v7.67h-1.38Z"/><path class="h" d="M183.92,45.84v-.98c-.29,.65-.61,1.1-1.38,1.1-1.79,0-1.81-2.78-1.81-4.05s.03-3.86,1.82-3.86c.69,0,1.06,.4,1.37,1v-.88h1.4v7.67h-1.4Zm.05-4.24c0-.6-.03-2.27-.9-2.27s-.91,1.53-.91,2.15v1.05c0,.62,.03,2.16,.91,2.16s.9-1.67,.9-2.27v-.82Z"/><path class="h" d="M156.67,61.58c-.1-1.58-.22-3.18-.29-4.75-.02-.51-.05-1.01-.07-1.53-.02-.53,.03-1.06-.05-1.6-.41,2.64-.95,5.25-1.44,7.88h-1.01c-.54-2.61-1.17-5.22-1.49-7.88l-.44,7.88h-1.42l.93-11.45h1.3l.98,4.67c.05,.27,.13,.55,.19,.82,.17,.93,.3,1.85,.42,2.78,.03-.55,.17-1.08,.25-1.61,.07-.41,.12-.84,.19-1.25,.05-.28,.12-.53,.17-.81l.88-4.6h1.32l1.05,11.45h-1.47Z"/><path class="h" d="M161.38,61.7c-2.13,0-2.36-2.28-2.36-3.95s.22-3.96,2.36-3.96,2.38,2.3,2.38,3.96-.24,3.95-2.38,3.95Zm.93-4.43c0-.62-.02-2.2-.9-2.2s-.9,1.56-.9,2.18v.93c0,.62,.02,2.2,.9,2.2s.9-1.56,.9-2.18v-.93Z"/><path class="h" d="M167.97,61.58v-.98c-.29,.65-.61,1.1-1.38,1.1-1.79,0-1.81-2.78-1.81-4.05s.03-3.86,1.84-3.86c.71,0,1.05,.38,1.35,1v-5.72h1.4v12.51h-1.4Zm.05-4.24c0-.6-.03-2.27-.9-2.27s-.91,1.53-.91,2.15v1.05c0,.62,.03,2.16,.91,2.16s.9-1.67,.9-2.27v-.82Z"/><path class="h" d="M172.04,58.02c0,.67,0,2.46,.96,2.46,.74,0,.86-.93,.86-1.49h1.3c-.02,.55-.05,1.05-.29,1.54-.35,.75-1.06,1.17-1.89,1.17-2.13,0-2.31-2.28-2.31-3.93s.19-3.98,2.28-3.98,2.26,2.64,2.26,4.24h-3.18Zm1.76-1.03c-.03-.6-.03-2.01-.88-2.01s-.84,1.42-.88,2.01h1.76Z"/><path class="h" d="M176.46,61.58v-12.51h1.38v12.51h-1.38Z"/><path class="h" d="M180.07,52.56c-.52,0-.95-.43-.95-.96s.42-.96,.95-.96,.93,.45,.93,.96-.42,.96-.93,.96Zm-.64,9.01v-7.67h1.38v7.67h-1.38Z"/><path class="h" d="M185.48,61.58v-4.98c-.02-.74-.03-1.58-.81-1.58-.88,0-.88,.94-.88,1.6v4.96h-1.38v-7.67h1.38v.89c.39-.64,.78-1.01,1.55-1.01,1.3,0,1.52,1.05,1.52,2.13v5.67h-1.38Z"/><path class="h" d="M192.77,62.09c0,1.73-.52,2.71-2.37,2.71-1.28,0-2.14-.86-2.14-2.16,0-.09,.02-.17,.02-.26h1.35c0,.64,.15,1.24,.89,1.24,.81,0,.84-.7,.84-1.34v-1.65c-.27,.64-.64,1.06-1.37,1.06-1.81,0-1.84-2.64-1.84-3.93s.02-3.98,1.84-3.98c.73,0,1.05,.45,1.37,1.05v-.93h1.4v8.19Zm-2.31-7.02c-.96,0-.86,2.27-.86,2.94,0,.63,.02,2.42,.95,2.42,.76,0,.79-1.05,.83-1.61,.02-.39,.02-.77,.02-1.17,0-.65,0-2.58-.93-2.58Z"/></g></svg>