<?xml version="1.0" encoding="UTF-8"?><svg id="a" xmlns="http://www.w3.org/2000/svg" viewBox="0 0 31.42 24.07"><defs><style>.b,.c{fill:#ed2224;}.c{opacity:.6;}</style></defs><path class="c" d="M10.98,7.74c.86,1.73,.77,4.09-.07,4.49-.63,.3-1.69-.48-2.59-1.48-.44-.48-.77-.92-.97-1.27-.16-.28-.66-1.17-.95-3.38-.23-1.72-.35-2.59,0-2.76,.41-.2,1.19,.62,2.77,2.26,1.03,1.08,1.55,1.61,1.82,2.14Z"/><path class="b" d="M17.97,15.44c-.85,0-1.67-.49-1.97-1.23-.19-.46-.16-1.03,.09-1.51,.23-.44,.61-.75,1.05-.85,.14-.03,.27,.06,.3,.19,0,.02,0,.03,0,.05,.29-.04,.6-.05,.91,.04,.47,.13,.95,.57,.91,1.14-.01,.14-.06,.28-.1,.39-.04,.13-.08,.24-.07,.34,0,.05,.03,.11,.06,.17,.04,.1,.09,.21,.1,.34,.04,.48-.42,.8-.87,.89-.14,.03-.28,.04-.42,.04Zm-1.12-2.9c-.13,.1-.23,.23-.32,.39-.18,.35-.21,.75-.07,1.08,.27,.64,1.09,1.04,1.83,.89,.23-.05,.48-.2,.47-.36,0-.05-.03-.11-.06-.18-.04-.08-.08-.18-.1-.29-.04-.22,.03-.41,.09-.58,.03-.1,.06-.19,.07-.27,.02-.28-.26-.54-.54-.61-.35-.1-.75-.02-1.11,.05-.11,.02-.21-.03-.26-.12Z"/><path class="b" d="M16.84,12.12c-.11,0-.22-.08-.25-.19-.2-.86-.76-1.9-1.75-2.25-.48-.17-1.06-.09-1.52,.19-.37,.23-.59,.55-.64,.92-.02,.14-.14,.24-.28,.22-.14-.02-.24-.14-.22-.28,.06-.52,.37-.97,.87-1.28,.59-.36,1.33-.45,1.95-.24,1,.35,1.77,1.32,2.07,2.61,.03,.13-.05,.27-.19,.3-.02,0-.04,0-.06,0Z"/><path class="b" d="M15.36,14.42c-.21,0-.43-.05-.63-.14-.09-.04-.18-.09-.26-.13-.29-.15-.56-.29-.81-.23-.06,.01-.12,.04-.19,.07-.13,.05-.28,.11-.45,.11-.4,0-.73-.33-.91-.89-.26-.82-.31-1.7-.13-2.54,.03-.14,.16-.22,.3-.2,.14,.03,.22,.16,.2,.3-.16,.76-.11,1.55,.12,2.29,.08,.26,.24,.53,.43,.54,.07,0,.16-.03,.26-.07,.08-.03,.17-.07,.26-.09,.43-.1,.82,.1,1.16,.28,.08,.04,.16,.08,.24,.12,.22,.1,.5,.12,.67,.05,.09-.04,.12-.1,.14-.14,.04-.13,.19-.2,.32-.16,.13,.04,.2,.19,.16,.32-.07,.2-.21,.35-.41,.44-.13,.06-.28,.08-.44,.08Z"/><path class="b" d="M10.18,13.13c-.45,0-.84-.17-1.08-.48l-.12-.15,.12-.15c.21-.27,.56-1.02,.92-1.8,.71-1.52,1.25-2.63,1.69-2.97,.1-.08,.38-.29,.68-.19,.22,.07,.33,.27,.39,.39l.56,1.03c.07,.12,.02,.27-.1,.34-.12,.07-.28,.02-.34-.1l-.56-1.03s-.08-.14-.11-.15c0,0-.05-.01-.21,.11-.38,.29-1.03,1.68-1.55,2.79-.33,.71-.63,1.34-.85,1.71,.19,.14,.47,.19,.76,.15,.7-.11,1.31-.7,1.64-1.59,.05-.13,.19-.2,.32-.15,.13,.05,.2,.19,.15,.32-.39,1.06-1.16,1.77-2.04,1.91-.1,.02-.19,.02-.28,.02Z"/><path class="b" d="M9.29,12.75s-.04,0-.06,0c-.58-.15-2.59-1.64-2.71-2.98v-.07l.03-.07c.13-.25,.3-.56,.49-.92,.25-.47,.36-.66,.44-.8,.07-.11,.11-.19,.19-.35l.1-.19c.29-.56,.65-1.25,1.11-1.87,.09-.13,.34-.46,.71-.43,.25,.02,.43,.2,.54,.31l1.85,1.89c.1,.1,.09,.26,0,.35-.1,.1-.26,.09-.36,0l-1.85-1.89c-.06-.06-.15-.15-.21-.16-.04,0-.13,.03-.27,.23-.44,.59-.79,1.26-1.07,1.81l-.1,.19c-.09,.17-.13,.25-.2,.37-.08,.14-.19,.33-.44,.79-.18,.33-.33,.61-.45,.85,.16,1.04,1.84,2.34,2.32,2.47,.13,.03,.22,.17,.18,.31-.03,.11-.13,.19-.24,.19Z"/><path class="b" d="M6.81,9.78s-.08,0-.11-.02c-.35-.16-1.17-2.5-1.18-4.28,0-.58,.52-1.35,1.03-1.81,.28-.25,.71-.54,1.13-.49,.57,.07,.95,.54,1.25,.98l.54,.78c.08,.11,.05,.27-.07,.35-.11,.08-.27,.05-.35-.06l-.54-.78c-.24-.35-.53-.72-.89-.76-.18-.02-.45,.12-.73,.37-.47,.42-.87,1.08-.87,1.43,0,1.38,.49,2.84,.77,3.51,.11,0,.2,.08,.23,.19,.07,.25,.1,.43-.04,.55-.05,.04-.11,.06-.17,.06Zm-.23-.29h0Z"/><path class="b" d="M5.77,5.72s-.07,0-.11-.02c-.23-.11-.42-.35-.53-.67-.2-.6-.1-1.37,.27-2.06,.06-.11,.11-.23,.16-.36,.14-.35,.3-.75,.72-.94l.19-.09,.12,.17c.37,.51,.79,1,1.25,1.43,.1,.1,.1,.25,0,.35-.1,.1-.26,.1-.36,0-.42-.4-.81-.84-1.17-1.31-.13,.13-.21,.33-.3,.56-.06,.14-.11,.28-.19,.41-.31,.57-.39,1.19-.23,1.66,.06,.19,.16,.33,.27,.38,.13,.06,.18,.21,.12,.33-.04,.09-.13,.15-.23,.15Z"/><path class="b" d="M5.66,3.05s-.08,0-.12-.03c-.75-.41-.64-1.5-.6-1.86,.01-.13,.04-.38,.24-.54,.13-.1,.29-.13,.46-.08,.27,.08,.47,.35,.55,.56,.01,.04,.03,.08,.04,.12,.06,.18,.12,.36,.22,.4,.13,.04,.2,.19,.16,.32-.04,.13-.19,.2-.32,.16-.34-.12-.46-.47-.54-.72-.01-.04-.02-.08-.04-.11-.05-.14-.17-.25-.22-.25,0,.01-.03,.05-.04,.19-.08,.75,.03,1.2,.34,1.37,.12,.07,.17,.22,.1,.34-.05,.08-.13,.13-.22,.13Z"/><path class="b" d="M13.81,9.33c-.1,0-.2-.07-.24-.17-.3-.86-1.05-1.52-1.77-2.15l-.23-.21c-2-1.77-3.66-3.84-4.94-6.18l-.17-.31,.36-.05c1.1-.17,2.02,.61,2.84,1.48,.44,.46,.9,.94,1.32,1.44,1.44,1.68,2.58,3.58,3.38,5.64,.05,.13-.01,.27-.14,.32-.06,.02-.11,.02-.17,0-.02,.07-.08,.14-.16,.17-.03,0-.05,.01-.08,.01ZM7.27,.75c1.22,2.14,2.78,4.05,4.63,5.68l.23,.2c.45,.4,.92,.8,1.29,1.27-.73-1.59-1.68-3.06-2.83-4.4-.42-.49-.87-.96-1.31-1.42-.62-.65-1.29-1.25-2.01-1.34Z"/><path class="b" d="M16.03,10.12c-.1,0-.2-.06-.24-.16-1.16-3.12-2.75-6.06-4.71-8.75-.22-.29-.51-.62-.81-.69,.78,3.19,2.95,5.92,5.12,8.45,.09,.11,.08,.26-.03,.35-.11,.09-.26,.08-.35-.03C12.73,6.64,10.45,3.76,9.71,.34l-.05-.23,.22-.07c.53-.16,1.07,.13,1.61,.86,1.99,2.73,3.6,5.71,4.78,8.87,.05,.13-.02,.27-.15,.32-.03,.01-.06,.02-.09,.02Z"/><path class="b" d="M7.63,20.58c-.06,0-.12-.02-.17-.07-.1-.09-.11-.25-.02-.35,2.48-2.72,4.02-6.23,4.32-9.9l.11-1.29,.38,1.24c.23,.73,.3,1.49,.38,2.23l.19,1.91c.04-.26,.09-.52,.14-.77,.03-.14,.16-.22,.3-.19,.14,.03,.22,.16,.19,.3-.25,1.18-.37,2.39-.35,3.59l-.5,.03-.47-4.81c-.02-.21-.04-.42-.07-.62-.57,3.2-2.04,6.22-4.25,8.63-.05,.05-.12,.08-.19,.08Z"/><path class="b" d="M16.85,20.52c-.08,0-.16-.04-.21-.11-1.25-1.84-1.52-4.68-1.76-7.18-.04-.45-.09-.9-.13-1.33-.07,.54-.14,1.05-.2,1.55,.02,0,.04,0,.06,0,.14,.02,.23,.15,.22,.28s-.15,.23-.28,.21c-.02,0-.04,0-.05,0-.12,.95-.25,1.93-.4,3.09l-.5-.03c0-.39-.01-.65-.02-.88-.02-.39-.03-.69,.01-1.36,.01-.18,.08-.79,.44-1.12l.02-.16c.14-1.08,.28-2.17,.45-3.49l.2-1.55,.3,1.54c.19,.96,.29,2.04,.4,3.2,.25,2.56,.5,5.22,1.68,6.95,.08,.11,.05,.27-.07,.35-.04,.03-.09,.04-.14,.04Z"/><path class="b" d="M22.35,20.27c-.68-.76-1.33-1.55-1.93-2.38l-2.32-2.86c-.09-.11-.07-.27,.04-.35,.09-.07,.22-.07,.31,0,.02-.06,.06-.11,.12-.15,.12-.07,.27-.03,.34,.1,.58,1.02,1.22,2.01,1.91,2.96l1.92,2.36-.38,.33Z"/><path class="b" d="M12.47,6.56s-.06-.01-.08-.03c-1.61-1.4-2.96-3.14-3.9-5.05-.03-.06,0-.14,.06-.17,.06-.03,.14,0,.17,.06,.93,1.88,2.26,3.6,3.84,4.97,.05,.05,.06,.12,.01,.18-.02,.03-.06,.04-.09,.04Z"/><path class="b" d="M15.31,9.16s-.08-.02-.1-.05c-1.81-2.36-3.15-5.13-3.86-8.02-.02-.07,.02-.14,.09-.15,.07-.02,.14,.02,.15,.09,.7,2.85,2.02,5.59,3.81,7.93,.04,.05,.03,.13-.02,.18-.02,.02-.05,.03-.08,.03Z"/><path class="b" d="M8.65,2.2s-.02,0-.03,0l-.65-.17c-.07-.02-.11-.09-.09-.15,.02-.07,.09-.11,.15-.09l.65,.17c.07,.02,.11,.09,.09,.15-.02,.06-.07,.09-.12,.09Z"/><path class="b" d="M10.03,4.65c-.08,0-.17,0-.25-.03-.07-.01-.11-.08-.1-.15,.01-.07,.08-.11,.15-.1,.25,.05,.51,0,.73-.14,.06-.04,.14-.02,.17,.04,.04,.06,.02,.14-.04,.17-.2,.13-.43,.2-.67,.2Z"/><path class="b" d="M11.93,3.01s-.06-.01-.09-.04l-1.16-1.13s-.05-.13,0-.18c.05-.05,.13-.05,.18,0l1.16,1.13s.05,.13,0,.18c-.02,.03-.06,.04-.09,.04Z"/><path class="b" d="M14.23,6.95s-.05,0-.07-.02l-.81-.51c-.06-.04-.08-.11-.04-.17,.04-.06,.11-.08,.17-.04l.81,.51c.06,.04,.08,.11,.04,.17-.02,.04-.06,.06-.11,.06Z"/><path class="b" d="M17.68,15.16l-.09-.15c-.21-.36-.21-.83-.01-1.2,.2-.37,.6-.62,1.01-.65,.07,0,.13,.05,.13,.12h0c.13,.1,.18,.29,.15,.44-.04,.17-.15,.29-.25,.4l-.95,1.04Zm.81-1.73c-.29,.06-.55,.24-.68,.5-.13,.24-.15,.53-.06,.79l.7-.77c.08-.08,.16-.18,.19-.28,.02-.08-.02-.17-.07-.18-.03,0-.06-.03-.07-.05Z"/><path class="b" d="M4.02,22.94s-.09-.03-.11-.07c-.03-.06,0-.14,.06-.17,1.43-.65,2.73-1.53,3.86-2.62,.05-.05,.13-.05,.18,0,.05,.05,.05,.13,0,.18-1.15,1.11-2.47,2.01-3.93,2.67-.02,0-.03,.01-.05,.01Z"/><path class="b" d="M20.93,23.44s-.03,0-.05,0c-1.59-.63-3-1.74-3.99-3.13-.04-.06-.03-.13,.03-.17,.06-.04,.14-.03,.18,.03,.96,1.35,2.33,2.43,3.88,3.04,.06,.03,.1,.1,.07,.16-.02,.05-.07,.08-.12,.08Z"/><path class="b" d="M22.7,17.51s-.05,0-.07-.02c-1.31-.83-2.58-1.74-3.78-2.71-.05-.04-.06-.12-.02-.18,.04-.05,.12-.06,.18-.02,1.19,.97,2.45,1.87,3.75,2.69,.06,.04,.08,.11,.04,.17-.02,.04-.06,.06-.11,.06Z"/><path class="b" d="M22.26,18.04s-.05,0-.07-.02c-1.21-.87-2.25-1.94-3.08-3.17-.04-.06-.02-.14,.03-.17,.06-.04,.14-.02,.17,.03,.82,1.21,1.84,2.25,3.02,3.11,.06,.04,.07,.12,.03,.18-.02,.03-.06,.05-.1,.05Z"/><path class="b" d="M18.9,13.29c-.07,0-.13-.06-.13-.13v-.09c0-.07,.06-.13,.13-.13s.13,.06,.13,.13v.09c0,.07-.06,.13-.13,.13Z"/><path class="b" d="M15.12,17.37s-.06,0-.09,0l-.28-.02,.56-3.22c.02-.14,.15-.23,.29-.2,.14,.02,.23,.15,.21,.29l-.45,2.62c.18-.05,.37-.14,.55-.23,2.07-1.07,4-2.41,5.73-3.97,.1-.09,.26-.08,.36,.02,.09,.1,.09,.26-.02,.35-1.76,1.59-3.72,2.95-5.83,4.04-.31,.16-.65,.32-1.02,.32Z"/><path class="b" d="M24,17.18c-.09,0-.17-.04-.22-.12-.77-1.25-1.5-2.55-2.2-3.85-.07-.12-.02-.27,.1-.34,.12-.07,.28-.02,.34,.1,.69,1.29,1.42,2.57,2.18,3.82,.07,.12,.03,.27-.08,.34-.04,.02-.09,.04-.13,.04Z"/><path class="b" d="M27.88,20.44s-.04,0-.06-.01c-1.55-.79-2.9-1.96-3.91-3.38-.04-.06-.03-.13,.03-.17,.06-.04,.14-.03,.18,.03,.98,1.38,2.3,2.52,3.82,3.3,.06,.03,.09,.11,.05,.17-.02,.04-.07,.07-.11,.07Z"/><path class="b" d="M31.29,21.66s-.02,0-.03,0c-1.12-.3-2.22-.72-3.26-1.22v.11c-.02,.07-.08,.12-.15,.11-.07,0-.12-.07-.11-.14l.04-.47,.16,.08c1.08,.54,2.22,.97,3.38,1.29,.07,.02,.11,.09,.09,.15-.02,.06-.07,.09-.12,.09Z"/><path class="b" d="M.13,23.21s-.08-.02-.1-.05c-.04-.06-.02-.14,.03-.17,.66-.45,1.48-.38,2.26-.32,.54,.04,1.09,.09,1.6-.03,.07-.02,.14,.03,.15,.09,.02,.07-.03,.14-.09,.15-.54,.13-1.12,.08-1.68,.04-.78-.06-1.51-.13-2.1,.28-.02,.01-.05,.02-.07,.02Z"/><path class="b" d="M22.6,24.07s-.03,0-.05-.01l-1.48-.64c-.06-.03-.09-.1-.07-.16,.03-.06,.1-.09,.17-.07l1.48,.64c.06,.03,.09,.1,.07,.16-.02,.05-.07,.08-.12,.08Z"/><path class="b" d="M18.95,12.88s-.05,0-.08-.02c-.06-.04-.07-.12-.03-.18,1.03-1.38,2.52-2.39,4.19-2.85,.07-.02,.14,.02,.15,.09,.02,.07-.02,.14-.09,.15-1.61,.44-3.05,1.42-4.05,2.76-.02,.03-.06,.05-.1,.05Z"/><path class="b" d="M19.12,12.97s-.08-.02-.11-.06c-.04-.06-.02-.14,.04-.17l2.55-1.53c.06-.04,.14-.02,.17,.04,.04,.06,.02,.14-.04,.17l-2.55,1.53s-.04,.02-.06,.02Z"/><path class="b" d="M24.92,22.05s-.04,0-.06-.02c-.88-.65-1.76-1.34-2.6-2.05-.04-.03-.04-.09-.01-.13s.09-.04,.13-.01c.84,.71,1.71,1.39,2.59,2.04,.04,.03,.05,.09,.02,.13-.02,.02-.05,.04-.08,.04Z"/></svg>