<?xml version="1.0" encoding="utf-8"?>
<!-- Generator: Adobe Illustrator 24.0.0, SVG Export Plug-In . SVG Version: 6.00 Build 0)  -->
<svg version="1.1" id="Layer_1" xmlns="http://www.w3.org/2000/svg" xmlns:xlink="http://www.w3.org/1999/xlink" x="0px" y="0px"
	 viewBox="0 0 5 5" style="enable-background:new 0 0 5 5;" xml:space="preserve">
<style type="text/css">
	.st0{opacity:0.6;fill:#EC2024;}
	.st1{fill:#EC2024;}
	.st2{fill:#B3DCF0;}
	.st3{fill:none;}
	.st4{fill:#EE4036;}
	.st5{font-family:'MyriadPro-Regular';}
	.st6{font-size:0.4536px;}
</style>
<g>
	<path class="st0" d="M0.89,2.51c0.03,0.07,0.03,0.15,0,0.17c-0.02,0.01-0.06-0.02-0.1-0.06C0.77,2.6,0.76,2.59,0.75,2.57
		C0.75,2.56,0.73,2.53,0.72,2.45c-0.01-0.07-0.01-0.1,0-0.1c0.02-0.01,0.05,0.02,0.1,0.09C0.86,2.47,0.88,2.49,0.89,2.51z"/>
	<g>
		<path class="st1" d="M1.16,2.8c-0.03,0-0.06-0.02-0.07-0.05c-0.01-0.02-0.01-0.04,0-0.06c0.01-0.02,0.02-0.03,0.04-0.03
			c0.01,0,0.01,0,0.01,0.01c0,0,0,0,0,0c0.01,0,0.02,0,0.03,0c0.02,0,0.04,0.02,0.03,0.04c0,0.01,0,0.01,0,0.01c0,0,0,0.01,0,0.01
			c0,0,0,0,0,0.01c0,0,0,0.01,0,0.01c0,0.02-0.02,0.03-0.03,0.03C1.17,2.8,1.16,2.8,1.16,2.8z M1.11,2.69c0,0-0.01,0.01-0.01,0.01
			c-0.01,0.01-0.01,0.03,0,0.04c0.01,0.02,0.04,0.04,0.07,0.03c0.01,0,0.02-0.01,0.02-0.01c0,0,0,0,0-0.01c0,0,0-0.01,0-0.01
			c0-0.01,0-0.02,0-0.02c0,0,0-0.01,0-0.01c0-0.01-0.01-0.02-0.02-0.02C1.15,2.69,1.14,2.69,1.11,2.69C1.12,2.7,1.12,2.69,1.11,2.69
			z"/>
	</g>
	<g>
		<path class="st1" d="M1.11,2.67C1.11,2.67,1.1,2.67,1.11,2.67C1.1,2.63,1.08,2.59,1.04,2.58C1.02,2.58,1,2.58,0.98,2.59
			C0.97,2.6,0.96,2.61,0.96,2.62c0,0.01-0.01,0.01-0.01,0.01c-0.01,0-0.01-0.01-0.01-0.01c0-0.02,0.01-0.04,0.03-0.05
			c0.02-0.01,0.05-0.02,0.07-0.01c0.04,0.01,0.07,0.05,0.08,0.1C1.12,2.67,1.12,2.67,1.11,2.67C1.11,2.67,1.11,2.67,1.11,2.67z"/>
	</g>
	<g>
		<path class="st1" d="M1.06,2.76c-0.01,0-0.02,0-0.02-0.01c0,0-0.01,0-0.01,0C1.01,2.75,1,2.74,0.99,2.74c0,0,0,0-0.01,0
			c0,0-0.01,0-0.02,0c-0.02,0-0.03-0.01-0.03-0.03c-0.01-0.03-0.01-0.06-0.01-0.1c0-0.01,0.01-0.01,0.01-0.01
			c0.01,0,0.01,0.01,0.01,0.01c-0.01,0.03,0,0.06,0,0.09c0,0.01,0.01,0.02,0.02,0.02c0,0,0.01,0,0.01,0c0,0,0.01,0,0.01,0
			c0.02,0,0.03,0,0.04,0.01c0,0,0.01,0,0.01,0c0.01,0,0.02,0,0.03,0c0,0,0,0,0.01-0.01c0,0,0.01-0.01,0.01-0.01
			c0,0,0.01,0.01,0.01,0.01c0,0.01-0.01,0.01-0.02,0.02C1.07,2.76,1.06,2.76,1.06,2.76z"/>
	</g>
	<g>
		<path class="st1" d="M0.86,2.71c-0.02,0-0.03-0.01-0.04-0.02l0-0.01l0-0.01c0.01-0.01,0.02-0.04,0.03-0.07
			C0.88,2.56,0.9,2.51,0.92,2.5c0,0,0.01-0.01,0.03-0.01c0.01,0,0.01,0.01,0.01,0.01l0.02,0.04c0,0,0,0.01,0,0.01c0,0-0.01,0-0.01,0
			L0.94,2.52c0,0,0-0.01,0-0.01c0,0,0,0-0.01,0C0.92,2.53,0.89,2.58,0.87,2.62C0.86,2.65,0.85,2.67,0.84,2.69
			c0.01,0.01,0.02,0.01,0.03,0.01c0.03,0,0.05-0.03,0.06-0.06c0,0,0.01-0.01,0.01-0.01s0.01,0.01,0.01,0.01
			C0.93,2.68,0.91,2.71,0.87,2.71C0.87,2.71,0.86,2.71,0.86,2.71z"/>
	</g>
	<g>
		<path class="st1" d="M0.83,2.7C0.83,2.7,0.83,2.7,0.83,2.7c-0.02-0.01-0.1-0.06-0.1-0.11l0,0l0,0c0-0.01,0.01-0.02,0.02-0.03
			c0.01-0.02,0.01-0.02,0.02-0.03c0,0,0-0.01,0.01-0.01l0-0.01C0.78,2.47,0.8,2.45,0.81,2.42c0,0,0.01-0.02,0.03-0.02
			c0.01,0,0.02,0.01,0.02,0.01l0.07,0.07c0,0,0,0.01,0,0.01c0,0-0.01,0-0.01,0L0.85,2.43c0,0-0.01-0.01-0.01-0.01c0,0,0,0-0.01,0.01
			C0.81,2.46,0.8,2.48,0.79,2.5l0,0.01c0,0.01-0.01,0.01-0.01,0.01c0,0.01-0.01,0.01-0.02,0.03C0.75,2.57,0.75,2.58,0.74,2.59
			c0.01,0.04,0.07,0.09,0.09,0.09C0.84,2.68,0.84,2.69,0.83,2.7C0.84,2.69,0.83,2.7,0.83,2.7z"/>
	</g>
	<g>
		<path class="st1" d="M0.73,2.59C0.73,2.59,0.73,2.59,0.73,2.59c-0.02-0.01-0.05-0.1-0.05-0.16c0-0.02,0.02-0.05,0.04-0.07
			c0.01-0.01,0.03-0.02,0.04-0.02c0.02,0,0.04,0.02,0.05,0.04L0.83,2.4c0,0,0,0.01,0,0.01c0,0-0.01,0-0.01,0L0.8,2.38
			C0.79,2.37,0.78,2.36,0.76,2.35c-0.01,0-0.02,0-0.03,0.01C0.72,2.38,0.7,2.41,0.7,2.42c0,0.05,0.02,0.11,0.03,0.13
			c0,0,0.01,0,0.01,0.01C0.74,2.57,0.75,2.58,0.73,2.59C0.74,2.58,0.74,2.59,0.73,2.59z M0.73,2.57L0.73,2.57L0.73,2.57z"/>
	</g>
	<g>
		<path class="st1" d="M0.69,2.43C0.69,2.43,0.69,2.43,0.69,2.43c-0.01,0-0.02-0.01-0.02-0.03c-0.01-0.02,0-0.05,0.01-0.08
			c0,0,0-0.01,0.01-0.01C0.69,2.3,0.7,2.29,0.71,2.28l0.01,0l0,0.01C0.74,2.3,0.76,2.32,0.77,2.34c0,0,0,0.01,0,0.01
			c0,0-0.01,0-0.01,0C0.74,2.33,0.73,2.32,0.72,2.3c0,0.01-0.01,0.01-0.01,0.02c0,0.01,0,0.01-0.01,0.02
			C0.69,2.36,0.68,2.38,0.69,2.4c0,0.01,0.01,0.01,0.01,0.01C0.7,2.42,0.71,2.42,0.69,2.43C0.7,2.43,0.7,2.43,0.69,2.43z"/>
	</g>
	<g>
		<path class="st1" d="M0.69,2.33C0.69,2.33,0.69,2.33,0.69,2.33C0.66,2.31,0.66,2.27,0.66,2.26c0-0.01,0-0.01,0.01-0.02
			c0,0,0.01,0,0.02,0c0.01,0,0.02,0.01,0.02,0.02c0,0,0,0,0,0c0,0.01,0,0.01,0.01,0.02c0,0,0.01,0.01,0.01,0.01
			c0,0-0.01,0.01-0.01,0.01c-0.01,0-0.02-0.02-0.02-0.03c0,0,0,0,0,0c0-0.01-0.01-0.01-0.01-0.01c0,0,0,0,0,0.01
			c0,0.03,0,0.05,0.01,0.05C0.7,2.32,0.7,2.32,0.69,2.33C0.7,2.33,0.69,2.33,0.69,2.33z"/>
	</g>
	<g>
		<path class="st1" d="M1,2.57C0.99,2.57,0.99,2.57,1,2.57C0.98,2.53,0.95,2.5,0.92,2.48L0.91,2.47C0.84,2.41,0.78,2.33,0.73,2.24
			L0.72,2.23l0.01,0c0.04-0.01,0.08,0.02,0.11,0.06C0.86,2.3,0.88,2.32,0.89,2.34c0.05,0.06,0.1,0.14,0.13,0.21
			c0,0,0,0.01-0.01,0.01C1.01,2.56,1.01,2.56,1,2.57C1.01,2.56,1,2.57,1,2.57C1,2.57,1,2.57,1,2.57z M0.75,2.24
			C0.8,2.32,0.86,2.4,0.93,2.46l0.01,0.01C0.95,2.48,0.97,2.5,0.98,2.51C0.96,2.45,0.92,2.4,0.88,2.35
			C0.86,2.33,0.84,2.31,0.83,2.29C0.8,2.27,0.78,2.25,0.75,2.24z"/>
	</g>
	<g>
		<path class="st1" d="M1.08,2.6C1.08,2.6,1.08,2.6,1.08,2.6C1.03,2.47,0.97,2.36,0.9,2.26C0.89,2.25,0.88,2.24,0.87,2.24
			c0.03,0.12,0.11,0.22,0.19,0.32c0,0,0,0.01,0,0.01s-0.01,0-0.01,0c-0.09-0.1-0.17-0.21-0.2-0.34l0-0.01l0.01,0
			c0.02-0.01,0.04,0,0.06,0.03c0.08,0.1,0.14,0.22,0.18,0.34C1.09,2.59,1.09,2.6,1.08,2.6C1.09,2.6,1.08,2.6,1.08,2.6z"/>
	</g>
	<g>
		<path class="st1" d="M0.77,2.99C0.76,2.99,0.76,2.99,0.77,2.99C0.75,2.99,0.75,2.98,0.76,2.98c0.09-0.1,0.15-0.24,0.16-0.37
			l0-0.05L0.94,2.6c0.01,0.03,0.01,0.06,0.01,0.08l0.01,0.07c0-0.01,0-0.02,0.01-0.03c0-0.01,0.01-0.01,0.01-0.01
			c0.01,0,0.01,0.01,0.01,0.01C0.98,2.78,0.97,2.82,0.97,2.87l-0.02,0L0.94,2.69c0-0.01,0-0.02,0-0.02C0.91,2.79,0.86,2.9,0.77,2.99
			C0.77,2.99,0.77,2.99,0.77,2.99z"/>
	</g>
	<g>
		<path class="st1" d="M1.11,2.99C1.11,2.99,1.11,2.99,1.11,2.99C1.06,2.92,1.05,2.81,1.04,2.72c0-0.02,0-0.03-0.01-0.05
			c0,0.02-0.01,0.04-0.01,0.06c0,0,0,0,0,0c0.01,0,0.01,0.01,0.01,0.01c0,0.01-0.01,0.01-0.01,0.01c0,0,0,0,0,0
			c0,0.04-0.01,0.07-0.02,0.12l-0.02,0c0-0.01,0-0.02,0-0.03c0-0.01,0-0.03,0-0.05c0-0.01,0-0.03,0.02-0.04c0,0,0,0,0-0.01
			c0.01-0.04,0.01-0.08,0.02-0.13l0.01-0.06l0.01,0.06c0.01,0.04,0.01,0.08,0.02,0.12c0.01,0.1,0.02,0.2,0.06,0.26
			C1.12,2.98,1.12,2.99,1.11,2.99C1.12,2.99,1.12,2.99,1.11,2.99z"/>
	</g>
	<g>
		<path class="st1" d="M1.32,2.98C1.3,2.95,1.27,2.92,1.25,2.89L1.16,2.78c0,0,0-0.01,0-0.01c0,0,0.01,0,0.01,0c0,0,0,0,0-0.01
			c0,0,0.01,0,0.01,0c0.02,0.04,0.05,0.08,0.07,0.11l0.07,0.09L1.32,2.98z"/>
	</g>
	<g>
		<path class="st1" d="M0.95,2.46C0.95,2.46,0.95,2.46,0.95,2.46C0.88,2.41,0.83,2.34,0.8,2.27c0,0,0-0.01,0-0.01c0,0,0.01,0,0.01,0
			C0.84,2.34,0.89,2.4,0.95,2.46C0.95,2.46,0.95,2.46,0.95,2.46C0.95,2.46,0.95,2.46,0.95,2.46z"/>
	</g>
	<g>
		<path class="st1" d="M1.06,2.56C1.05,2.56,1.05,2.56,1.06,2.56c-0.07-0.09-0.12-0.2-0.15-0.3c0,0,0-0.01,0-0.01c0,0,0.01,0,0.01,0
			C0.94,2.36,0.99,2.47,1.06,2.56C1.06,2.56,1.06,2.56,1.06,2.56C1.06,2.56,1.06,2.56,1.06,2.56z"/>
	</g>
	<g>
		<polygon class="st1" points="0.8,2.3 0.8,2.3 0.78,2.29 0.77,2.29 0.78,2.28 0.81,2.29 0.81,2.3 		"/>
	</g>
	<g>
		<path class="st1" d="M0.86,2.39C0.85,2.39,0.85,2.39,0.86,2.39c-0.01,0-0.01,0-0.01-0.01c0,0,0,0,0.01,0c0.01,0,0.02,0,0.03-0.01
			c0,0,0.01,0,0.01,0c0,0,0,0.01,0,0.01C0.87,2.39,0.86,2.39,0.86,2.39z"/>
	</g>
	<g>
		<polygon class="st1" points="0.93,2.33 0.92,2.33 0.88,2.29 0.88,2.28 0.89,2.28 0.93,2.32 0.93,2.33 		"/>
	</g>
	<g>
		<polygon class="st1" points="1.01,2.48 1.01,2.48 0.98,2.46 0.98,2.45 0.99,2.45 1.02,2.47 1.02,2.48 		"/>
	</g>
	<g>
		<path class="st1" d="M1.15,2.79L1.15,2.79c-0.01-0.02-0.01-0.04,0-0.05s0.02-0.02,0.04-0.02c0,0,0,0,0.01,0c0,0,0,0,0,0
			c0.01,0,0.01,0.01,0.01,0.02c0,0.01-0.01,0.01-0.01,0.01L1.15,2.79z M1.18,2.72c-0.01,0-0.02,0.01-0.03,0.02
			c0,0.01-0.01,0.02,0,0.03l0.03-0.03C1.18,2.74,1.18,2.74,1.18,2.72C1.18,2.73,1.18,2.73,1.18,2.72C1.18,2.73,1.18,2.72,1.18,2.72z
			"/>
	</g>
	<g>
		<path class="st1" d="M0.63,3.08C0.63,3.08,0.63,3.08,0.63,3.08C0.62,3.08,0.62,3.07,0.63,3.08c0.05-0.03,0.1-0.07,0.14-0.11
			c0,0,0,0,0.01,0c0,0,0,0,0,0.01C0.74,3.02,0.69,3.06,0.63,3.08C0.63,3.08,0.63,3.08,0.63,3.08z"/>
	</g>
	<g>
		<path class="st1" d="M1.27,3.1C1.27,3.1,1.27,3.1,1.27,3.1C1.21,3.08,1.15,3.04,1.12,2.98c0,0,0-0.01,0-0.01c0,0,0.01,0,0.01,0
			C1.16,3.03,1.21,3.07,1.27,3.1C1.27,3.09,1.27,3.1,1.27,3.1C1.27,3.1,1.27,3.1,1.27,3.1z"/>
	</g>
	<g>
		<path class="st1" d="M1.33,2.88C1.33,2.88,1.33,2.88,1.33,2.88c-0.05-0.03-0.1-0.07-0.15-0.1c0,0,0,0,0-0.01s0,0,0.01,0
			C1.24,2.8,1.29,2.84,1.33,2.88C1.34,2.87,1.34,2.87,1.33,2.88C1.34,2.88,1.34,2.88,1.33,2.88z"/>
	</g>
	<g>
		<path class="st1" d="M1.32,2.9C1.32,2.9,1.32,2.9,1.32,2.9C1.27,2.86,1.23,2.82,1.2,2.78c0,0,0-0.01,0-0.01c0,0,0.01,0,0.01,0
			C1.24,2.82,1.28,2.86,1.32,2.9C1.32,2.89,1.32,2.89,1.32,2.9C1.32,2.9,1.32,2.9,1.32,2.9z"/>
	</g>
	<g>
		<polygon class="st1" points="1.19,2.72 1.19,2.71 1.19,2.71 1.19,2.71 1.2,2.71 1.2,2.71 		"/>
	</g>
	<g>
		<path class="st1" d="M1.05,2.87C1.05,2.87,1.05,2.87,1.05,2.87l-0.01,0l0.02-0.12c0-0.01,0.01-0.01,0.01-0.01
			c0.01,0,0.01,0.01,0.01,0.01l-0.02,0.1c0.01,0,0.01-0.01,0.02-0.01C1.16,2.8,1.23,2.75,1.29,2.69c0,0,0.01,0,0.01,0
			c0,0,0,0.01,0,0.01C1.24,2.77,1.17,2.82,1.09,2.86C1.07,2.87,1.06,2.87,1.05,2.87z"/>
	</g>
	<g>
		<path class="st1" d="M1.38,2.87C1.38,2.87,1.38,2.86,1.38,2.87c-0.04-0.05-0.07-0.1-0.09-0.15c0,0,0-0.01,0-0.01
			c0,0,0.01,0,0.01,0c0.03,0.05,0.05,0.1,0.08,0.14C1.39,2.86,1.39,2.86,1.38,2.87C1.39,2.86,1.39,2.87,1.38,2.87z"/>
	</g>
	<g>
		<path class="st1" d="M1.53,2.99C1.53,2.99,1.53,2.99,1.53,2.99C1.47,2.96,1.42,2.91,1.38,2.86c0,0,0-0.01,0-0.01
			c0,0,0.01,0,0.01,0C1.43,2.91,1.48,2.95,1.53,2.99C1.54,2.98,1.54,2.98,1.53,2.99C1.53,2.99,1.53,2.99,1.53,2.99z"/>
	</g>
	<g>
		<path class="st1" d="M1.66,3.03C1.66,3.03,1.66,3.03,1.66,3.03C1.62,3.02,1.57,3.01,1.54,2.99l0,0c0,0,0,0-0.01,0c0,0,0,0,0-0.01
			l0-0.02l0.01,0C1.57,3,1.62,3.01,1.66,3.03C1.66,3.03,1.66,3.03,1.66,3.03C1.66,3.03,1.66,3.03,1.66,3.03z"/>
	</g>
	<g>
		<path class="st1" d="M0.48,3.09C0.48,3.09,0.48,3.09,0.48,3.09C0.48,3.09,0.48,3.09,0.48,3.09C0.5,3.07,0.53,3.07,0.56,3.07
			c0.02,0,0.04,0,0.06,0c0,0,0.01,0,0.01,0c0,0,0,0.01,0,0.01c-0.02,0-0.04,0-0.06,0C0.53,3.08,0.51,3.08,0.48,3.09
			C0.48,3.09,0.48,3.09,0.48,3.09z"/>
	</g>
	<g>
		<polygon class="st1" points="1.33,3.13 1.33,3.13 1.27,3.1 1.27,3.09 1.28,3.09 1.33,3.12 1.34,3.12 		"/>
	</g>
	<g>
		<path class="st1" d="M1.19,2.7C1.19,2.7,1.19,2.7,1.19,2.7C1.19,2.7,1.19,2.7,1.19,2.7c0.04-0.06,0.09-0.1,0.15-0.12
			c0,0,0.01,0,0.01,0c0,0,0,0.01,0,0.01C1.29,2.61,1.23,2.65,1.19,2.7C1.2,2.7,1.19,2.7,1.19,2.7z"/>
	</g>
	<g>
		<polygon class="st1" points="1.2,2.71 1.2,2.7 1.2,2.7 1.29,2.64 1.3,2.64 1.3,2.65 1.2,2.71 		"/>
	</g>
	<g>
		<path class="st1" d="M1.42,3.05C1.42,3.05,1.42,3.05,1.42,3.05C1.38,3.02,1.35,3,1.32,2.97c0,0,0,0,0-0.01c0,0,0,0,0.01,0
			C1.35,2.99,1.39,3.02,1.42,3.05C1.42,3.04,1.42,3.05,1.42,3.05C1.42,3.05,1.42,3.05,1.42,3.05z"/>
	</g>
</g>
<rect x="0.01" y="1.02" class="st2" width="4.99" height="0.74"/>
<rect x="0.01" y="3.14" class="st2" width="4.97" height="0.74"/>
<rect x="0.16" y="1.86" class="st3" width="4.66" height="1.2"/>
<text transform="matrix(1 0 0 1 0.2119 2.1846)"><tspan x="0" y="0" class="st4 st5 st6">Northwestern University </tspan><tspan x="1.31" y="0.54" class="st4 st5 st6">Malaria Modeling </tspan></text>
</svg>
