<?xml version="1.0" encoding="utf-8"?>
<!-- Generator: Adobe Illustrator 24.0.0, SVG Export Plug-In . SVG Version: 6.00 Build 0)  -->
<svg version="1.1" id="Layer_1" xmlns="http://www.w3.org/2000/svg" xmlns:xlink="http://www.w3.org/1999/xlink" x="0px" y="0px"
	 viewBox="0 0 792 612" style="enable-background:new 0 0 792 612;" xml:space="preserve">
<style type="text/css">
	.st0{opacity:0.6;fill:#ED2224;}
	.st1{fill:#ED2224;}
	.st2{opacity:0.3;fill:#EA2828;}
	.st3{opacity:0.7;fill:#EA2828;}
	.st4{fill:#EA2928;}
	.st5{fill:#EA2828;}
	.st6{fill:#EC2526;}
	.st7{fill:#B4DDF1;}
</style>
<g>
	<path class="st0" d="M-300.69,273.63c8.64,17.26,7.68,40.89-0.68,44.87c-6.27,2.98-16.94-4.82-25.9-14.77
		c-4.36-4.84-7.68-9.21-9.72-12.69c-1.64-2.81-6.55-11.68-9.55-33.79c-2.34-17.24-3.5-25.86,0-27.59
		c4.05-2.01,11.93,6.19,27.7,22.58C-308.5,262.99-303.33,268.36-300.69,273.63z"/>
	<g>
		<path class="st1" d="M-230.82,350.7c-8.47,0-16.65-4.88-19.74-12.27c-1.94-4.64-1.6-10.27,0.89-15.07
			c2.3-4.41,6.14-7.51,10.55-8.48c1.36-0.3,2.7,0.55,3,1.9c0.04,0.16,0.06,0.32,0.06,0.48c2.9-0.38,6.04-0.48,9.07,0.36
			c4.72,1.32,9.51,5.75,9.07,11.36c-0.11,1.44-0.56,2.76-0.96,3.93c-0.44,1.3-0.82,2.42-0.66,3.35c0.08,0.48,0.34,1.05,0.6,1.67
			c0.43,0.98,0.92,2.09,1.03,3.43c0.38,4.85-4.24,8.02-8.7,8.91C-228,350.57-229.42,350.7-230.82,350.7z M-242.03,321.74
			c-1.26,1.01-2.34,2.35-3.17,3.93c-1.82,3.49-2.09,7.54-0.72,10.83c2.66,6.38,10.88,10.35,18.32,8.86c2.35-0.47,4.8-1.98,4.67-3.6
			c-0.04-0.5-0.32-1.13-0.62-1.81c-0.36-0.83-0.78-1.76-0.96-2.86c-0.37-2.17,0.29-4.09,0.86-5.79c0.33-0.98,0.64-1.9,0.71-2.72
			c0.22-2.8-2.64-5.37-5.41-6.14c-3.48-0.97-7.51-0.21-11.08,0.45C-240.47,323.11-241.5,322.61-242.03,321.74z"/>
	</g>
	<g>
		<path class="st1" d="M-242.16,317.49c-1.15,0-2.18-0.78-2.45-1.94c-2-8.61-7.63-19.04-17.46-22.47
			c-4.78-1.67-10.6-0.95-15.19,1.89c-3.66,2.26-5.93,5.52-6.38,9.18c-0.17,1.37-1.43,2.35-2.81,2.18c-1.38-0.17-2.36-1.42-2.19-2.8
			c0.65-5.19,3.75-9.75,8.73-12.82c5.85-3.61,13.33-4.52,19.51-2.36c9.99,3.49,17.73,13.23,20.7,26.07c0.31,1.35-0.53,2.7-1.89,3.01
			C-241.78,317.47-241.97,317.49-242.16,317.49z"/>
	</g>
	<g>
		<path class="st1" d="M-256.94,340.47c-2.1,0-4.32-0.47-6.34-1.39c-0.88-0.4-1.75-0.85-2.64-1.31c-2.9-1.49-5.63-2.9-8.13-2.32
			c-0.57,0.13-1.21,0.39-1.87,0.66c-1.31,0.53-2.79,1.14-4.55,1.11c-3.99-0.06-7.3-3.29-9.07-8.86c-2.61-8.2-3.07-16.99-1.34-25.41
			c0.28-1.36,1.61-2.23,2.97-1.95c1.36,0.28,2.24,1.6,1.96,2.96c-1.56,7.59-1.14,15.51,1.21,22.89c0.82,2.57,2.39,5.33,4.35,5.36
			c0.73,0.01,1.58-0.34,2.56-0.74c0.79-0.32,1.68-0.68,2.65-0.91c4.3-0.99,8.16,1,11.57,2.75c0.81,0.42,1.62,0.84,2.43,1.21
			c2.2,1.01,5,1.23,6.65,0.51c0.94-0.41,1.23-0.99,1.37-1.39c0.44-1.31,1.87-2.02,3.19-1.58c1.32,0.44,2.03,1.86,1.59,3.17
			c-0.67,2-2.1,3.53-4.14,4.4C-253.81,340.2-255.34,340.47-256.94,340.47z"/>
	</g>
	<g>
		<path class="st1" d="M-308.76,327.55c-4.46,0-8.38-1.7-10.8-4.79l-1.2-1.52l1.18-1.54c2.07-2.71,5.55-10.15,9.23-18.03
			c7.13-15.24,12.51-26.28,16.93-29.7c1.04-0.8,3.79-2.93,6.83-1.89c2.19,0.75,3.26,2.71,3.9,3.88l5.59,10.26
			c0.66,1.22,0.21,2.74-1.01,3.4c-1.22,0.66-2.75,0.21-3.41-1.01l-5.59-10.26c-0.19-0.35-0.77-1.42-1.1-1.53
			c-0.05-0.02-0.51-0.12-2.11,1.11c-3.8,2.94-10.26,16.76-15.45,27.86c-3.32,7.1-6.26,13.39-8.54,17.1c1.9,1.38,4.67,1.95,7.64,1.49
			c6.99-1.09,13.13-7.02,16.42-15.88c0.48-1.3,1.93-1.96,3.24-1.48s1.97,1.92,1.49,3.22c-3.94,10.59-11.55,17.72-20.37,19.09
			C-306.88,327.48-307.84,327.55-308.76,327.55z"/>
	</g>
	<g>
		<path class="st1" d="M-317.58,323.73c-0.21,0-0.42-0.03-0.63-0.08c-5.85-1.5-25.86-16.38-27.06-29.8l-0.07-0.74l0.35-0.66
			c1.3-2.46,2.97-5.58,4.93-9.19c2.53-4.66,3.64-6.6,4.43-7.98c0.65-1.15,1.08-1.89,1.93-3.52l0.99-1.9
			c2.91-5.59,6.54-12.54,11.14-18.75c0.93-1.25,3.39-4.58,7.13-4.28c2.53,0.2,4.3,2.01,5.35,3.09l18.45,18.88
			c0.97,0.99,0.95,2.58-0.05,3.55c-1,0.97-2.59,0.95-3.56-0.05l-18.45-18.88c-0.56-0.58-1.5-1.54-2.14-1.59
			c-0.43-0.03-1.25,0.33-2.68,2.26c-4.36,5.88-7.89,12.65-10.72,18.08l-1,1.92c-0.89,1.7-1.33,2.48-2.02,3.67
			c-0.78,1.37-1.88,3.29-4.38,7.9c-1.77,3.26-3.3,6.12-4.54,8.45c1.62,10.37,18.36,23.44,23.21,24.69c1.35,0.35,2.16,1.71,1.81,3.06
			C-315.44,322.98-316.46,323.73-317.58,323.73z"/>
	</g>
	<g>
		<path class="st1" d="M-342.45,294.03c-0.38,0-0.76-0.08-1.09-0.23c-3.47-1.6-11.73-24.96-11.81-42.81
			c-0.03-5.8,5.18-13.49,10.34-18.09c2.82-2.52,7.07-5.42,11.28-4.94c5.75,0.65,9.46,5.4,12.49,9.8l5.37,7.79
			c0.79,1.14,0.5,2.7-0.65,3.49c-1.15,0.78-2.71,0.49-3.5-0.65l-5.37-7.79c-2.4-3.48-5.27-7.24-8.91-7.65
			c-1.78-0.2-4.53,1.18-7.35,3.69c-4.71,4.21-8.68,10.77-8.66,14.34c0.06,13.8,4.86,28.44,7.71,35.13c1.05,0.06,1.99,0.79,2.28,1.86
			c0.66,2.46,1.02,4.29-0.4,5.48C-341.2,293.83-341.82,294.03-342.45,294.03z M-344.78,291.18h0.03H-344.78z"/>
	</g>
	<g>
		<path class="st1" d="M-352.84,253.49c-0.35,0-0.71-0.07-1.06-0.23c-2.33-1.08-4.22-3.47-5.33-6.75c-2.02-6-1.01-13.69,2.68-20.58
			c0.6-1.13,1.1-2.35,1.62-3.64c1.43-3.51,3.04-7.48,7.21-9.4l1.89-0.87l1.21,1.68c3.72,5.14,7.94,9.97,12.54,14.35
			c1.01,0.96,1.04,2.54,0.08,3.55c-0.96,1-2.55,1.04-3.56,0.08c-4.23-4.02-8.15-8.41-11.68-13.06c-1.3,1.34-2.12,3.34-3.02,5.56
			c-0.55,1.36-1.12,2.76-1.85,4.12c-3.06,5.7-3.93,11.91-2.35,16.62c0.64,1.9,1.63,3.31,2.67,3.79c1.26,0.58,1.81,2.07,1.23,3.33
			C-350.97,252.95-351.88,253.49-352.84,253.49z"/>
	</g>
	<g>
		<path class="st1" d="M-353.93,226.8c-0.41,0-0.82-0.1-1.21-0.31c-7.51-4.1-6.36-15.01-5.99-18.59c0.14-1.34,0.4-3.84,2.39-5.38
			c1.32-1.02,2.94-1.32,4.58-0.84c2.68,0.79,4.7,3.46,5.45,5.62c0.14,0.4,0.28,0.82,0.41,1.25c0.58,1.79,1.17,3.65,2.21,4
			c1.32,0.45,2.02,1.87,1.57,3.18c-0.45,1.31-1.88,2.01-3.19,1.57c-3.45-1.17-4.57-4.67-5.39-7.22c-0.12-0.39-0.25-0.77-0.37-1.13
			c-0.49-1.4-1.74-2.47-2.22-2.47c-0.1,0.11-0.29,0.53-0.44,1.95c-0.79,7.52,0.32,11.99,3.4,13.67c1.22,0.67,1.67,2.19,1,3.41
			C-352.17,226.33-353.04,226.8-353.93,226.8z"/>
	</g>
	<g>
		<path class="st1" d="M-272.46,289.55c-1.04,0-2.02-0.65-2.38-1.69c-3-8.65-10.46-15.18-17.68-21.49l-2.35-2.06
			c-19.96-17.65-36.56-38.44-49.35-61.77l-1.72-3.14l3.55-0.54c11-1.67,20.15,6.13,28.4,14.8c4.41,4.64,8.97,9.43,13.23,14.39
			c14.44,16.81,25.82,35.79,33.82,56.41c0.5,1.29-0.14,2.74-1.44,3.24c-0.56,0.21-1.15,0.22-1.67,0.05
			c-0.23,0.75-0.79,1.38-1.59,1.65C-271.91,289.51-272.19,289.55-272.46,289.55z M-337.77,203.75
			c12.22,21.36,27.77,40.46,46.25,56.81l2.33,2.04c4.53,3.97,9.16,8.01,12.89,12.68c-7.34-15.88-16.83-30.63-28.29-43.97
			c-4.18-4.86-8.69-9.61-13.06-14.21C-323.86,210.57-330.55,204.58-337.77,203.75z"/>
	</g>
	<g>
		<path class="st1" d="M-250.18,297.41c-1.02,0-1.98-0.62-2.36-1.64c-11.62-31.17-27.48-60.62-47.12-87.51
			c-2.15-2.94-5.12-6.19-8.13-6.85c7.75,31.89,29.48,59.2,51.15,84.49c0.9,1.05,0.78,2.64-0.28,3.54c-1.06,0.9-2.65,0.77-3.55-0.28
			c-22.73-26.53-45.54-55.29-52.9-89.55l-0.48-2.25l2.21-0.67c5.3-1.61,10.7,1.3,16.05,8.63c19.91,27.26,35.98,57.11,47.77,88.71
			c0.48,1.3-0.18,2.74-1.48,3.22C-249.6,297.36-249.89,297.41-250.18,297.41z"/>
	</g>
	<g>
		<path class="st1" d="M-334.27,402.11c-0.6,0-1.21-0.22-1.69-0.65c-1.03-0.93-1.1-2.52-0.17-3.54
			c24.83-27.18,40.17-62.33,43.19-98.96l1.06-12.91l3.85,12.37c2.28,7.31,3.03,14.92,3.75,22.28l1.88,19.08
			c0.42-2.59,0.9-5.17,1.44-7.73c0.29-1.36,1.62-2.22,2.98-1.94c1.36,0.28,2.23,1.61,1.95,2.97c-2.48,11.78-3.66,23.86-3.5,35.89
			l-5.02,0.28l-4.74-48.06c-0.2-2.07-0.41-4.15-0.65-6.24c-5.66,32.02-20.44,62.23-42.47,86.35
			C-332.9,401.83-333.58,402.11-334.27,402.11z"/>
	</g>
	<g>
		<path class="st1" d="M-242.05,401.49c-0.81,0-1.6-0.39-2.09-1.1c-12.5-18.38-15.22-46.78-17.62-71.83
			c-0.43-4.55-0.86-8.99-1.33-13.28c-0.7,5.36-1.36,10.46-2.03,15.55c0.19,0.01,0.38,0.03,0.57,0.06c1.38,0.19,2.34,1.45,2.15,2.83
			c-0.19,1.37-1.46,2.33-2.84,2.15c-0.19-0.03-0.37-0.03-0.54-0.01c-1.25,9.54-2.52,19.29-4,30.86l-5.02-0.31
			c-0.01-3.92-0.13-6.52-0.23-8.82c-0.17-3.86-0.3-6.91,0.15-13.63c0.12-1.83,0.8-7.92,4.42-11.19c0.07-0.52,0.14-1.05,0.21-1.57
			c1.42-10.84,2.84-21.68,4.53-34.88l1.99-15.52l2.98,15.37c1.86,9.58,2.9,20.45,4,31.95c2.45,25.65,4.99,52.17,16.77,69.5
			c0.78,1.15,0.48,2.71-0.67,3.48C-241.07,401.35-241.56,401.49-242.05,401.49z"/>
	</g>
	<g>
		<path class="st1" d="M-187.02,399c-6.83-7.6-13.29-15.54-19.33-23.79l-23.23-28.6c-0.87-1.08-0.71-2.66,0.37-3.53
			c0.92-0.74,2.2-0.73,3.11-0.05c0.18-0.6,0.58-1.14,1.18-1.47c1.21-0.68,2.75-0.25,3.43,0.95c5.79,10.23,12.19,20.14,19.14,29.64
			l19.17,23.6L-187.02,399z"/>
	</g>
	<g>
		<path class="st1" d="M-285.84,261.89c-0.29,0-0.59-0.1-0.83-0.31c-16.08-13.98-29.57-31.45-39.01-50.52
			c-0.31-0.62-0.05-1.37,0.57-1.68c0.62-0.31,1.38-0.05,1.69,0.57c9.29,18.78,22.57,35.97,38.41,49.74
			c0.52,0.46,0.58,1.25,0.12,1.77C-285.13,261.74-285.48,261.89-285.84,261.89z"/>
	</g>
	<g>
		<path class="st1" d="M-257.45,287.87c-0.38,0-0.75-0.17-1-0.49c-18.15-23.59-31.49-51.32-38.58-80.19
			c-0.17-0.67,0.25-1.35,0.92-1.52c0.68-0.16,1.36,0.25,1.52,0.92c7.01,28.53,20.2,55.94,38.13,79.26c0.42,0.55,0.32,1.34-0.23,1.76
			C-256.91,287.78-257.18,287.87-257.45,287.87z"/>
	</g>
	<g>
		<path class="st1" d="M-323.99,218.23c-0.11,0-0.22-0.01-0.33-0.04l-6.55-1.74c-0.67-0.18-1.07-0.87-0.89-1.54
			c0.18-0.67,0.87-1.07,1.54-0.89l6.55,1.74c0.67,0.18,1.07,0.87,0.89,1.54C-322.93,217.86-323.44,218.23-323.99,218.23z"/>
	</g>
	<g>
		<path class="st1" d="M-310.19,242.74c-0.83,0-1.66-0.08-2.48-0.26c-0.68-0.14-1.12-0.81-0.97-1.49c0.14-0.68,0.81-1.11,1.49-0.97
			c2.49,0.52,5.14,0.03,7.28-1.36c0.58-0.38,1.36-0.22,1.74,0.36c0.38,0.58,0.22,1.36-0.37,1.74
			C-305.49,242.06-307.84,242.74-310.19,242.74z"/>
	</g>
	<g>
		<path class="st1" d="M-291.17,226.31c-0.32,0-0.64-0.12-0.88-0.36l-11.62-11.34c-0.5-0.48-0.5-1.28-0.02-1.77s1.28-0.5,1.78-0.02
			l11.62,11.34c0.5,0.48,0.5,1.28,0.02,1.77C-290.52,226.19-290.84,226.31-291.17,226.31z"/>
	</g>
	<g>
		<path class="st1" d="M-268.21,265.76c-0.23,0-0.46-0.06-0.67-0.19l-8.12-5.06c-0.59-0.37-0.77-1.14-0.4-1.73
			c0.37-0.59,1.15-0.77,1.74-0.4l8.12,5.06c0.59,0.37,0.77,1.14,0.4,1.73C-267.38,265.55-267.79,265.76-268.21,265.76z"/>
	</g>
	<g>
		<path class="st1" d="M-233.74,347.86l-0.86-1.5c-2.07-3.62-2.13-8.33-0.14-11.99c1.99-3.67,5.97-6.2,10.14-6.45
			c0.69-0.04,1.29,0.48,1.33,1.17c0,0.02,0,0.05,0,0.07c1.33,0.94,1.83,2.79,1.48,4.32c-0.39,1.67-1.54,2.94-2.46,3.95
			L-233.74,347.86z M-225.68,330.57c-2.86,0.56-5.46,2.43-6.85,4.98c-1.3,2.39-1.5,5.34-0.63,7.92l7.04-7.74
			c0.77-0.84,1.63-1.79,1.87-2.83c0.18-0.77-0.18-1.67-0.71-1.82C-225.26,331.01-225.51,330.82-225.68,330.57z"/>
	</g>
	<g>
		<path class="st1" d="M-370.33,425.65c-0.48,0-0.94-0.27-1.15-0.74c-0.29-0.63-0.01-1.37,0.63-1.66
			c14.34-6.47,27.33-15.29,38.61-26.22c0.5-0.48,1.3-0.47,1.78,0.02c0.48,0.5,0.47,1.29-0.02,1.77
			c-11.49,11.13-24.72,20.12-39.33,26.71C-369.98,425.62-370.16,425.65-370.33,425.65z"/>
	</g>
	<g>
		<path class="st1" d="M-201.23,430.62c-0.15,0-0.31-0.03-0.46-0.09c-15.87-6.27-30.04-17.38-39.88-31.27
			c-0.4-0.57-0.27-1.35,0.3-1.75c0.57-0.4,1.35-0.26,1.75,0.3c9.57,13.5,23.33,24.3,38.75,30.39c0.65,0.26,0.96,0.98,0.71,1.63
			C-200.25,430.32-200.73,430.62-201.23,430.62z"/>
	</g>
	<g>
		<path class="st1" d="M-183.51,371.36c-0.23,0-0.46-0.06-0.67-0.2c-13.05-8.25-25.75-17.36-37.75-27.07
			c-0.54-0.44-0.62-1.23-0.18-1.76c0.44-0.54,1.23-0.62,1.77-0.18c11.92,9.65,24.54,18.7,37.51,26.9c0.59,0.37,0.76,1.15,0.39,1.73
			C-182.68,371.16-183.09,371.36-183.51,371.36z"/>
	</g>
	<g>
		<path class="st1" d="M-187.95,376.66c-0.26,0-0.51-0.08-0.74-0.24c-12.11-8.71-22.49-19.38-30.84-31.71
			c-0.39-0.57-0.24-1.35,0.34-1.74c0.58-0.39,1.36-0.24,1.75,0.34c8.18,12.09,18.35,22.55,30.23,31.08
			c0.56,0.41,0.69,1.19,0.28,1.75C-187.17,376.47-187.56,376.66-187.95,376.66z"/>
	</g>
	<g>
		<path class="st1" d="M-221.47,329.13c-0.7,0-1.26-0.56-1.26-1.25v-0.92c0-0.69,0.56-1.25,1.26-1.25c0.7,0,1.26,0.56,1.26,1.25
			v0.92C-220.22,328.57-220.78,329.13-221.47,329.13z"/>
	</g>
	<g>
		<path class="st1" d="M-259.36,369.97c-0.3,0-0.6-0.01-0.91-0.03l-2.77-0.2l5.56-32.19c0.24-1.37,1.54-2.28,2.91-2.05
			c1.37,0.24,2.29,1.53,2.05,2.9l-4.54,26.25c1.81-0.45,3.66-1.36,5.54-2.33c20.69-10.74,39.95-24.09,57.26-39.68
			c1.03-0.93,2.62-0.85,3.56,0.18c0.93,1.03,0.85,2.61-0.18,3.54c-17.62,15.88-37.24,29.47-58.31,40.41
			C-252.33,368.39-255.69,369.97-259.36,369.97z"/>
	</g>
	<g>
		<path class="st1" d="M-170.56,368.09c-0.85,0-1.68-0.43-2.15-1.21c-7.66-12.55-15.05-25.48-21.96-38.45
			c-0.65-1.22-0.19-2.74,1.04-3.39c1.23-0.65,2.75-0.19,3.4,1.04c6.87,12.88,14.21,25.73,21.82,38.2c0.72,1.18,0.34,2.73-0.84,3.45
			C-169.66,367.97-170.11,368.09-170.56,368.09z"/>
	</g>
	<g>
		<path class="st1" d="M-131.7,400.69c-0.19,0-0.39-0.04-0.57-0.14c-15.5-7.92-29.02-19.6-39.08-33.77c-0.4-0.57-0.27-1.35,0.3-1.75
			c0.57-0.4,1.35-0.27,1.75,0.3c9.83,13.84,23.03,25.25,38.17,32.99c0.62,0.32,0.86,1.07,0.55,1.69
			C-130.8,400.44-131.24,400.69-131.7,400.69z"/>
	</g>
	<g>
		<path class="st1" d="M-97.62,412.84c-0.11,0-0.22-0.01-0.33-0.04c-11.21-3.04-22.18-7.16-32.62-12.25l-0.1,1.09
			c-0.07,0.69-0.68,1.2-1.37,1.13c-0.69-0.07-1.2-0.68-1.13-1.37l0.45-4.73l1.64,0.82c10.79,5.39,22.16,9.72,33.8,12.88
			c0.67,0.18,1.07,0.87,0.88,1.54C-96.55,412.47-97.06,412.84-97.62,412.84z"/>
	</g>
	<g>
		<path class="st1" d="M-409.26,428.39c-0.4,0-0.8-0.19-1.04-0.55c-0.39-0.57-0.24-1.35,0.33-1.74c6.65-4.52,14.76-3.85,22.61-3.19
			c5.38,0.45,10.94,0.91,15.96-0.3c0.68-0.16,1.36,0.25,1.52,0.92c0.16,0.67-0.25,1.35-0.93,1.51c-5.42,1.31-11.19,0.83-16.76,0.36
			c-7.75-0.64-15.07-1.25-20.98,2.77C-408.77,428.32-409.01,428.39-409.26,428.39z"/>
	</g>
	<g>
		<path class="st1" d="M-184.56,436.96c-0.17,0-0.34-0.03-0.5-0.1l-14.81-6.38c-0.64-0.28-0.93-1.01-0.66-1.65
			c0.28-0.64,1.02-0.93,1.66-0.65l14.81,6.38c0.64,0.28,0.93,1.01,0.66,1.65C-183.6,436.68-184.07,436.96-184.56,436.96z"/>
	</g>
	<g>
		<path class="st1" d="M-221.04,325.09c-0.26,0-0.52-0.08-0.75-0.25c-0.56-0.41-0.67-1.2-0.26-1.75
			c10.32-13.82,25.19-23.95,41.86-28.5c0.67-0.18,1.36,0.21,1.55,0.88s-0.21,1.36-0.88,1.54c-16.14,4.41-30.52,14.21-40.51,27.58
			C-220.27,324.92-220.65,325.09-221.04,325.09z"/>
	</g>
	<g>
		<path class="st1" d="M-219.35,325.91c-0.43,0-0.84-0.22-1.08-0.61c-0.36-0.59-0.16-1.36,0.43-1.72l25.54-15.28
			c0.6-0.36,1.37-0.16,1.73,0.43c0.36,0.59,0.16,1.36-0.43,1.72l-25.54,15.28C-218.9,325.86-219.13,325.91-219.35,325.91z"/>
	</g>
	<g>
		<path class="st1" d="M-161.28,416.73c-0.2,0-0.39-0.06-0.56-0.18c-8.84-6.53-17.59-13.42-25.99-20.5
			c-0.4-0.34-0.45-0.93-0.11-1.33c0.34-0.4,0.93-0.45,1.33-0.11c8.37,7.05,17.09,13.92,25.9,20.43c0.42,0.31,0.51,0.9,0.2,1.32
			C-160.7,416.6-160.99,416.73-161.28,416.73z"/>
	</g>
</g>
<g>
	<g>
		<path class="st1" d="M25.8,436.46L24.74,432c-3.72-15.58,2.64-30.13,8.79-44.19c3.45-7.9,7.02-16.07,8.6-24.12
			c3.79-19.35-3.54-39.35-10.63-58.68c-1.2-3.28-2.4-6.54-3.54-9.79c-11.3-32.17-10.41-57.2,2.65-74.4
			c6.78-8.93,16.19-14.34,25.81-14.82c2.44-0.12,4.51,1.78,4.64,4.24c0,0.07,0.01,0.15,0.01,0.22c0.24,0.16,0.47,0.33,0.7,0.51
			c5.35,4.14,8.95,11.94,8.96,19.41c0.01,3.09-0.32,6.16-0.63,9.13c-0.62,5.93-1.21,11.53,0.96,16.11c1.36,2.88,3.84,5.41,6.46,8.08
			l0.8,0.82c22.73,23.28,44.01,63.44,29.16,99.97c-7.76,19.09-23.74,33.21-37.84,45.68c-11.03,9.75-23.53,20.8-39.44,25.11
			L25.8,436.46z M49.09,216.89c-4.25,1.92-8.26,5.16-11.46,9.38c-11.11,14.64-11.56,36.83-1.33,65.96c1.13,3.21,2.31,6.44,3.5,9.67
			c7.52,20.5,15.29,41.7,11.01,63.53c-1.77,9.02-5.54,17.65-9.19,26c-5.07,11.6-9.9,22.64-9.03,33.67
			c11.89-4.58,22.1-13.6,31.22-21.67c13.37-11.82,28.52-25.21,35.48-42.35c13.21-32.5-6.43-68.95-27.27-90.29l-0.78-0.8
			c-3.03-3.08-6.16-6.27-8.17-10.53c-3.24-6.87-2.49-14-1.77-20.91c0.3-2.86,0.58-5.56,0.58-8.16c-0.01-4.68-2.32-9.87-5.5-12.32
			c-1.61-1.24-3.21-1.62-4.91-1.16C50.66,217.13,49.84,217.11,49.09,216.89z"/>
	</g>
	<g>
		<path class="st1" d="M71.42,380.13c-0.33,0-0.67-0.04-1.02-0.13c-1.15-0.29-2.07-0.99-2.64-2.04c-1.18-2.16-0.43-5.07-0.06-6.22
			c5.75-17.59,2.56-39.24-8.96-60.96l-1.21-2.25c-2.97-5.5-6.05-11.19-6.57-17.64c-0.61-7.68,3.87-16.78,12.2-18.11
			c1.21-0.19,2.34,0.64,2.53,1.86c0.19,1.22-0.63,2.36-1.84,2.56c-5.64,0.9-8.93,7.62-8.48,13.33c0.44,5.51,3.29,10.77,6.04,15.86
			l1.23,2.29c12.1,22.82,15.39,45.71,9.26,64.48c-0.41,1.26-0.41,2.21-0.31,2.56c0.04-0.1,0.35-0.22,0.94-0.65
			c7.32-5.35,12.24-14.33,13.85-25.28c1.47-9.97,0.19-20.06-1.38-30.39c-1.22-8.03-2.59-15.8-6.02-22.58
			c-3.79-7.5-9.8-12.71-16.48-14.29c-1.19-0.28-1.93-1.48-1.65-2.69c0.28-1.2,1.47-1.95,2.66-1.67c7.94,1.88,15.01,7.94,19.4,16.6
			c3.73,7.37,5.18,15.53,6.45,23.94c1.62,10.68,2.94,21.14,1.38,31.72c-1.79,12.15-7.34,22.18-15.63,28.24
			C74.53,379.11,73.13,380.13,71.42,380.13z M71.62,375.81h0.04H71.62z"/>
	</g>
	<g>
		<path class="st1" d="M41.36,276.76l-4.29-1.05l0.47-2.61c0.23-3.56-1.18-7.29-2.66-11.2c-0.85-2.25-1.73-4.57-2.31-6.94
			c-3.21-13.02,3.98-27.16,16.04-31.52c1.15-0.42,2.41,0.19,2.83,1.35c0.41,1.16-0.19,2.44-1.34,2.86
			c-0.08,0.03-0.15,0.06-0.23,0.08c0.17,0.39,0.23,0.84,0.15,1.3l-8.09,44.59C41.86,274.66,41.67,275.71,41.36,276.76z
			 M45.31,230.25c-6.88,5.13-10.62,14.84-8.45,23.63c0.52,2.11,1.31,4.21,2.15,6.43c0.19,0.5,0.38,1.01,0.57,1.52L45.31,230.25z"/>
	</g>
	<g>
		<path class="st1" d="M51.09,269.84l-1.27-5.03c-3.28-12.99-2.52-27.06,2.13-39.64c0.11-0.3,0.28-0.56,0.48-0.77
			c0-0.01,0-0.01-0.01-0.02c-0.52-1.12-0.05-2.45,1.05-2.98c1.1-0.53,2.42-0.05,2.94,1.06c6.41,13.67,5.41,30.14-2.59,42.98
			L51.09,269.84z M54.77,230.75c-2.55,8.69-3.18,17.97-1.86,26.93C56.53,249.2,57.19,239.61,54.77,230.75z"/>
	</g>
	<g>
		<path class="st1" d="M63.49,229.17l-22.89-1.48l1.12-2.86c1.67-4.26,5.32-7.68,9.65-9.3c0.06-0.06,0.11-0.12,0.18-0.18
			c0.58-0.53,1.37-0.68,2.07-0.48c0.58-0.13,1.17-0.22,1.76-0.28c1.22-0.12,2.3,0.78,2.42,2.01c0.07,0.73-0.22,1.42-0.72,1.88
			c1.71,2.26,3.23,4.65,4.55,7.15L63.49,229.17z M47.47,223.65l8.18,0.53c-0.96-1.49-2.01-2.93-3.13-4.31
			C50.54,220.68,48.78,222,47.47,223.65z"/>
	</g>
	<g>
		<path class="st1" d="M45.06,294c-3.26,0-6.53-0.52-9.62-1.53l-3.02-0.99l1.96-2.52c2.3-2.95,5.68-5.08,9.36-5.98
			c0.47-0.41,1.1-0.63,1.77-0.53c0.26,0.04,0.53,0.08,0.82,0.12c0.3-0.01,0.58,0.05,0.85,0.15c1.44,0.28,3.04,0.78,4.35,1.91
			c1.26,1.08,2.03,2.78,2.01,4.43c-0.02,1.42-0.6,2.68-1.64,3.53c-1.06,0.86-2.28,1.1-3.44,1.24C47.34,293.94,46.2,294,45.06,294z
			 M40.63,289.16c2.43,0.41,4.91,0.48,7.35,0.21c0.79-0.09,1.06-0.2,1.15-0.27c0.05-0.12-0.05-0.72-0.45-1.07
			c-0.6-0.52-1.55-0.78-2.51-0.96C44.19,287.31,42.27,288.05,40.63,289.16z"/>
	</g>
	<g>
		<path class="st1" d="M56.15,317.27l-2.35-0.43c-4.33-0.8-6.99-5.19-7.1-11.75c-0.02-1.06-0.07-3.87,2.05-5.45
			c1.61-1.2,3.76-0.73,4.96,0.32c1.19,1.04,1.51,2.63,0.8,3.97c-0.03,0.06-0.07,0.12-0.1,0.18c1.66,3.32,2.36,7.1,1.98,10.77
			L56.15,317.27z"/>
	</g>
	<g>
		<path class="st1" d="M58.92,339.59l-1.69-1.19c-3.27-2.31-3.37-4.53-2.88-5.99c0.36-1.08,1.26-1.83,2.37-2.04
			c-0.32-0.93,0.01-2,0.86-2.58c1.01-0.69,2.39-0.42,3.07,0.6c1.91,2.86,1.73,6.89-0.42,9.58L58.92,339.59z M57.27,332.02
			C57.27,332.02,57.26,332.02,57.27,332.02C57.26,332.02,57.27,332.02,57.27,332.02z"/>
	</g>
	<g>
		<path class="st1" d="M41.22,410.92c-1.88,0-3.67-0.61-5.02-1.78c-2.03-1.75-2.93-4.63-2.36-7.52c0.58-2.94,2.55-5.3,5.15-6.16
			l0.68,2.13L39,395.46c2.62-0.86,5.66-0.12,7.92,1.93c2.18,1.98,3.17,4.71,2.63,7.31c-0.54,2.61-2.55,4.75-5.36,5.72
			C43.2,410.75,42.2,410.92,41.22,410.92z M40.36,399.71c-1.29,0.42-1.97,1.71-2.18,2.78c-0.2,1.02-0.07,2.41,0.9,3.25
			c1.04,0.9,2.58,0.82,3.68,0.45c1.02-0.35,2.21-1.17,2.46-2.4c0.25-1.2-0.49-2.37-1.26-3.07C43.1,399.94,41.71,399.27,40.36,399.71
			L40.36,399.71z"/>
	</g>
	<g>
		<path class="st1" d="M52.43,387.47c-2.71,0-5.27-2-5.79-4.68c-0.58-2.95,1.43-6.03,4.38-6.73c0.52-0.12,1.03-0.05,1.47,0.17
			c0.52,0.03,1.04,0.18,1.49,0.44l1.12,0.64l-0.01,9.83l-1.9,0.27C52.94,387.45,52.68,387.47,52.43,387.47z"/>
	</g>
	<g>
		<path class="st1" d="M59.97,397.13c-1.29,0-2.42-0.74-2.86-1.9c-0.48-1.24-0.06-2.65,1.04-3.5c1.13-0.88,2.61-0.93,3.7-0.13
			c0.49,0.36,0.79,0.89,0.88,1.45c0.31,0.48,0.45,1.08,0.32,1.69c-0.27,1.3-1.39,2.26-2.79,2.37
			C60.16,397.12,60.07,397.13,59.97,397.13z"/>
	</g>
</g>
<g>
	<path class="st2" d="M328.57,232.19c-52.78,0-95.56,42.76-95.56,95.51s42.78,95.51,95.56,95.51s95.56-42.76,95.56-95.51
		S381.35,232.19,328.57,232.19z M326.92,388.24c-32.71,0-59.24-26.52-59.24-59.23c0-32.71,26.52-59.23,59.24-59.23
		s59.24,26.52,59.24,59.23C386.15,361.72,359.63,388.24,326.92,388.24z"/>
	<ellipse class="st3" cx="326.92" cy="329.01" rx="59.24" ry="59.23"/>
	<path class="st4" d="M326.92,426.12c-54.42,0-98.7-44.27-98.7-98.7s44.27-98.7,98.7-98.7s98.7,44.27,98.7,98.7
		S381.34,426.12,326.92,426.12z M326.92,235.09c-50.91,0-92.33,41.42-92.33,92.33s41.42,92.33,92.33,92.33s92.33-41.42,92.33-92.33
		S377.83,235.09,326.92,235.09z"/>
	<path class="st5" d="M378.77,301.95c-3.91-6.88-13.02-10.81-20.93-10.87c-7.91-0.06-15.54,2.94-22.5,6.71
		c-10.35,5.61-19.92,13.27-25.71,23.52c-10.53,18.65-5.55,44.61,11.14,58.04c16.69,13.43,43.11,12.74,59.08-1.54
		c5-4.48,9.07-10.22,10.61-16.75c1.54-6.54,0.29-13.89-4.13-18.95c-5.19,5.53-6.17,14.03-11.31,19.61
		c-5.2,5.65-13.9,7.11-21.31,5.09c-7.41-2.02-13.68-7.02-18.91-12.64c-4.75-5.12-8.98-11.25-9.54-18.21
		c-1-12.51,10.29-22.99,22.23-26.86c5.53-1.79,11.56-2.62,17.15-1.02c5.59,1.6,10.61,6,11.76,11.7c3.59,1.02,7.06-2.81,7.19-6.54
		c0.13-3.73-1.94-7.14-3.88-10.32"/>
	<path class="st6" d="M349.29,390.53c-10.63,0-21.24-3.3-29.51-9.95c-17.23-13.86-22.4-40.81-11.53-60.06
		c5.33-9.44,14.19-17.56,26.33-24.14c8.79-4.76,16.17-6.96,23.27-6.9c7.57,0.06,17.78,3.74,22.3,11.68
		c0.05,0.08,0.08,0.16,0.11,0.24c0.32,0.12,0.6,0.35,0.8,0.66c2,3.28,4.26,6.99,4.12,11.21c-0.09,2.63-1.54,5.34-3.68,6.91
		c-1.71,1.25-3.67,1.65-5.53,1.11l-0.93-0.26l-0.19-0.95c-0.95-4.72-5.23-8.93-10.63-10.48c-4.64-1.32-10.09-0.99-16.22,1
		c-11.21,3.64-22.07,13.47-21.13,25.22c0.44,5.48,3.42,11.12,9.12,17.26c6.05,6.52,11.99,10.51,18.16,12.19
		c7.38,2.02,15.32,0.16,19.72-4.63c2.38-2.57,3.81-5.85,5.32-9.32c1.57-3.6,3.2-7.32,5.99-10.3l1.21-1.28l1.16,1.32
		c4.5,5.16,6.22,12.96,4.48,20.36c-1.49,6.34-5.33,12.42-11.1,17.58C372.34,386.66,360.8,390.53,349.29,390.53z M357.61,292.67
		c-6.46,0-13.3,2.07-21.5,6.52c-11.61,6.29-20.05,14-25.08,22.91c-10.14,17.96-5.32,43.08,10.75,56.01
		c16.07,12.93,41.65,12.27,57.02-1.48c3.68-3.29,8.42-8.73,10.12-15.93c1.35-5.73,0.34-11.7-2.63-16.05
		c-1.73,2.32-2.94,5.07-4.19,7.95c-1.55,3.55-3.16,7.23-5.89,10.2c-5.28,5.73-14.27,7.89-22.91,5.54
		c-6.76-1.85-13.19-6.13-19.65-13.1c-6.21-6.68-9.46-12.95-9.96-19.17c-1.07-13.4,10.92-24.48,23.32-28.5
		c6.75-2.19,12.83-2.54,18.08-1.03c6.21,1.78,11.03,6.34,12.6,11.8c0.79-0.02,1.46-0.38,1.93-0.73c1.36-0.99,2.32-2.78,2.37-4.44
		c0.11-3.26-1.8-6.4-3.65-9.44c-0.06-0.09-0.1-0.19-0.14-0.29c-0.34-0.13-0.63-0.37-0.82-0.7c-3.89-6.84-12.87-10.01-19.56-10.07
		C357.75,292.67,357.68,292.67,357.61,292.67z"/>
	<path class="st5" d="M391.5,324.24c-5.12-3.51-16.14-1.56-18.95,3.98c-1.04,2.06-1.29,4.84,0.35,6.46
		c0.89,0.88,2.16,1.25,3.37,1.58c3.56,0.98,7.21,1.96,10.89,1.63s7.43-2.3,8.86-5.7c1.43-3.4-0.46-8.1-4.1-8.71"/>
	<path class="st6" d="M385.66,339.54c-3.43,0-6.79-0.92-9.8-1.75c-1.2-0.33-2.85-0.78-4.07-1.99c-2.23-2.21-1.93-5.77-0.65-8.31
		c1.39-2.75,4.54-4.93,8.63-5.98c4.1-1.06,8.26-0.8,11.28,0.63c0.33-0.21,0.73-0.3,1.14-0.24c1.99,0.33,3.75,1.64,4.82,3.59
		c1.24,2.25,1.43,5.05,0.48,7.3c-1.52,3.62-5.52,6.23-10.18,6.67C386.76,339.52,386.2,339.54,385.66,339.54z M384.73,324.07
		c-1.36,0-2.79,0.17-4.18,0.53c-3.15,0.81-5.61,2.43-6.58,4.33c-0.74,1.46-1.04,3.53,0.05,4.61c0.58,0.57,1.51,0.86,2.67,1.18
		c3.39,0.93,6.88,1.89,10.32,1.57c3.51-0.32,6.47-2.18,7.54-4.73c0.57-1.36,0.44-3.14-0.34-4.54c-0.26-0.48-0.78-1.22-1.6-1.66
		c-0.54,0.52-1.38,0.61-2.01,0.17C389.19,324.58,387.06,324.07,384.73,324.07z"/>
	<path class="st6" d="M274.98,360.87c-1.09,0-2.15-0.56-2.73-1.57c-5.76-9.99-8.47-20.36-8.06-30.81
		c1.05-26.65,24.3-63.55,65.22-63.55h0.37c3.11-0.04,11.4-0.04,21.39,3.63c1.63,0.6,2.47,2.4,1.87,4.03
		c-0.6,1.63-2.41,2.46-4.03,1.87c-8.94-3.28-16.34-3.23-19.21-3.24h-0.39c-36.98,0-57.99,33.4-58.94,57.52
		c-0.36,9.25,2.06,18.47,7.22,27.42c0.87,1.5,0.35,3.43-1.15,4.29C276.05,360.73,275.51,360.87,274.98,360.87z"/>
</g>
<g>
	<path class="st1" d="M601.06,419.97c-2.4,0-4.68-0.41-6.75-1.24c-9.4-3.76-13.93-15.09-12.42-31.07c0.79-8.37,2.17-16.86,3.5-25.08
		c3.4-20.95,6.6-40.74,1.34-60.05c-2.84-10.41-8.01-19.9-13.17-28.61c-6.03-10.18-17.25-29.11-7.44-43.8
		c6.73-10.08,14.79-14.36,23.97-12.75c25.77,4.55,49.35,55.79,52.44,68.48c6.6,27.06,3.76,54.86,0.55,76.07
		c-4.6,30.37-14.98,48.62-31.71,55.78C607.85,419.21,604.34,419.97,601.06,419.97z M586.48,223.64c-5.45,0-10.34,3.34-14.88,10.14
		l0,0c-6.6,9.88-0.24,23.52,7.63,36.79c5.14,8.67,10.81,19.05,13.86,30.24c5.64,20.69,2.16,42.12-1.19,62.84
		c-1.31,8.11-2.67,16.49-3.44,24.64c-0.57,6.09-0.92,20.66,8.31,24.35c4.39,1.75,9.42,0.14,12.03-0.98
		c14.47-6.19,23.56-22.78,27.79-50.71c3.12-20.61,5.89-47.59-0.43-73.52c-3.39-13.91-26.19-59.85-47.2-63.56
		C588.11,223.71,587.29,223.64,586.48,223.64z M568.86,231.95h0.04H568.86z"/>
	<path class="st1" d="M734.57,425.09c-4.33,0-8.66-1.01-12.64-3.3c-9.81-5.63-14.4-16.74-17.6-26.87
		c-18.07-57.22-16.39-119.91,4.74-176.55c2.58-6.92,5.92-14.68,12.87-19.2c4.27-2.77,9.97-3.54,14.87-2.02
		c3.95,1.23,6.92,3.83,8.36,7.31c0.08,0.19,0.14,0.39,0.18,0.59c6.02,7.16,9.57,17.29,9.96,28.92c0.29,8.7-1.03,17.32-2.31,25.66
		c-0.57,3.71-1.14,7.41-1.57,11.12c-2.21,19.15-0.58,39.08,4.71,57.62c1.42,4.99,3.15,10.03,4.82,14.9
		c2.73,7.97,5.55,16.2,7.24,24.69c2.32,11.7,3.16,28.51-6.07,42.16C756.3,418.76,745.4,425.09,734.57,425.09z M731.63,202.96
		c-2.17,0-4.36,0.6-6.11,1.73c-5.27,3.43-8.08,10.05-10.29,15.99c-20.62,55.27-22.27,116.44-4.63,172.27
		c2.82,8.91,6.75,18.64,14.6,23.15c10.6,6.09,25.09-0.2,31.48-9.65c6.21-9.18,8.01-22.4,5.07-37.2c-1.6-8.06-4.35-16.08-7.01-23.84
		c-1.7-4.95-3.45-10.07-4.92-15.23c-5.53-19.37-7.23-40.18-4.92-60.18c0.44-3.79,1.02-7.58,1.6-11.36
		c1.29-8.41,2.51-16.35,2.24-24.44c-0.44-13.08-5.29-23.81-13.32-29.42c-0.56-0.39-0.96-0.92-1.19-1.52
		C733.39,203.05,732.51,202.96,731.63,202.96z"/>
	<path class="st1" d="M618.66,292.45h-1.75c-0.91,0-1.64-0.74-1.64-1.65s0.73-1.65,1.64-1.65h1.75c0.91,0,1.64,0.74,1.64,1.65
		S619.57,292.45,618.66,292.45z"/>
	<path class="st1" d="M617.43,336.1c0,0-0.01,0-0.01,0c-7.31,0-11.48-8-12.37-15.92c-0.91-8.11-0.4-16.25,1.51-24.19
		c0.57-2.38,1.37-4.81,3.3-6.49c1.26-1.1,3.08-1.66,4.75-1.45c1.4,0.17,2.58,0.85,3.33,1.92c0.52,0.74,0.34,1.77-0.4,2.29
		c-0.75,0.52-1.77,0.34-2.29-0.4c-0.26-0.37-0.71-0.5-1.03-0.54c-0.76-0.1-1.64,0.18-2.2,0.67c-1.16,1.01-1.74,2.63-2.26,4.77
		c-1.82,7.56-2.3,15.32-1.44,23.05c0.7,6.26,3.85,12.99,9.1,12.99c0,0,0,0,0,0c4.59,0,7.65-5.21,8.47-6.81
		c5.92-11.43,2.96-27-6.73-35.46c-0.69-0.6-0.76-1.64-0.16-2.32c0.6-0.68,1.64-0.75,2.32-0.16c10.96,9.57,14.18,26.53,7.49,39.45
		C627.48,330.09,623.7,336.1,617.43,336.1z"/>
	<path class="st1" d="M607.38,280.7c-0.13,0-0.26-0.01-0.39-0.02c-1.11-0.15-2-0.91-2.25-1.93c-0.25-1.02,0.17-2.1,1.09-2.75
		c0.92-0.66,2.08-0.71,2.97-0.13c0.58,0.38,0.84,1.06,0.71,1.7c0.41,0.5,0.5,1.23,0.16,1.83
		C609.22,280.22,608.35,280.7,607.38,280.7z M606.8,277.8C606.8,277.8,606.8,277.8,606.8,277.8C606.8,277.8,606.8,277.8,606.8,277.8
		z"/>
	<path class="st1" d="M600.55,294.12c-0.47,0-0.94-0.1-1.39-0.29c-1.19-0.5-2.01-1.55-2.16-2.73c-0.15-1.19,0.4-2.4,1.43-3.17
		c1.03-0.78,2.36-0.96,3.45-0.49c0.45,0.19,0.77,0.56,0.91,0.99c0.49,0.53,0.81,1.23,0.91,1.99c0.14,1.07-0.18,2.11-0.88,2.86
		C602.11,293.85,601.32,294.12,600.55,294.12z M600.36,290.6c-0.05,0.04-0.08,0.09-0.09,0.13c0.05,0.03,0.29,0.14,0.39,0.11
		C600.55,290.77,600.45,290.69,600.36,290.6z"/>
	<path class="st1" d="M624.11,287.11c-0.26,0-0.52-0.02-0.77-0.07c-2.24-0.38-4.11-2.38-4.44-4.75c-0.23-1.59,0.24-3.13,1.26-4.12
		c1.36-1.32,3.55-1.44,4.89-0.24c0.07,0.06,0.13,0.13,0.19,0.2c1.06,0.18,2.04,0.79,2.74,1.7c0.77,1,1.1,2.24,0.91,3.41
		c-0.19,1.16-0.86,2.2-1.88,2.93C626.15,286.78,625.12,287.11,624.11,287.11z M622.81,280.4c-0.1,0-0.26,0.04-0.35,0.14
		c-0.26,0.25-0.38,0.76-0.3,1.3c0.14,0.96,0.9,1.83,1.74,1.97c0.38,0.07,0.84-0.05,1.2-0.31c0.3-0.22,0.5-0.5,0.55-0.79
		c0.04-0.27-0.06-0.59-0.27-0.87c-0.21-0.27-0.5-0.45-0.77-0.48c-0.47-0.05-0.88-0.28-1.15-0.63c-0.21-0.07-0.41-0.18-0.58-0.33
		C622.86,280.4,622.83,280.4,622.81,280.4z"/>
	<path class="st1" d="M604.49,343.33c-1.2,0-2.35-0.71-2.98-1.92c-0.76-1.44-0.54-3.08,0.54-4.08c0.54-0.5,1.28-0.69,2.04-0.66
		c0.38-0.19,0.84-0.24,1.28-0.11c1.41,0.41,2.33,1.79,2.29,3.41c-0.05,1.63-1.04,2.95-2.47,3.29
		C604.95,343.3,604.72,343.33,604.49,343.33z"/>
	<path class="st1" d="M617.38,348.36c-1.02,0-2.05-0.4-2.9-1.15c-1.24-1.1-1.85-2.71-1.59-4.23c0.22-1.28,0.97-2.42,2.13-3.22
		c1.25-0.86,2.79-1.2,4.21-0.91c0.89,0.17,1.47,1.04,1.3,1.93c-0.05,0.27-0.16,0.5-0.32,0.71c0.69,0.72,1.07,1.75,1.02,2.89
		c-0.07,1.81-1.16,3.34-2.72,3.81C618.14,348.3,617.76,348.36,617.38,348.36z M616.77,342.56c-0.24,0.19-0.56,0.52-0.64,0.98
		c-0.07,0.38,0.15,0.87,0.53,1.2c0.11,0.1,0.51,0.41,0.89,0.3c0.2-0.06,0.38-0.42,0.39-0.79c0.01-0.25-0.06-0.49-0.16-0.53
		C617.25,343.52,616.89,343.07,616.77,342.56z"/>
	<path class="st1" d="M629.12,338.14c-1.21-0.06-2.01-0.5-2.55-1.21c-0.54-0.71-0.77-1.59-0.62-2.43c0.15-0.83,0.67-1.58,1.43-2.06
		c0.09-0.06,0.18-0.11,0.28-0.16c0.35-0.35,0.87-0.54,1.43-0.45c1.54,0.2,2.76,1.58,2.77,3.14
		C631.86,336.54,630.66,337.93,629.12,338.14z"/>
	<path class="st1" d="M707.51,296.16l-0.94-0.84c-0.82-0.73-1.25-1.82-1.18-2.98c0.07-1.17,0.63-2.19,1.53-2.82
		c0.76-0.52,1.77-0.34,2.29,0.41c0.05,0.08,0.1,0.16,0.14,0.25c0.16,0.13,0.3,0.3,0.41,0.49c0.89,1.63,0.36,3.78-1.19,4.8
		L707.51,296.16z"/>
	<path class="st1" d="M717.91,288.52c-0.72,0-1.41-0.21-2.01-0.62c-0.73-0.5-1.28-1.26-1.6-2.2c-0.55-1.62-0.21-3.48,0.92-4.97
		c0.49-0.65,1.09-1.18,1.75-1.56c0.02-0.04,0.05-0.07,0.07-0.11c0.45-0.6,1.23-0.8,1.89-0.55c0.27-0.04,0.54-0.05,0.82-0.03
		c0.91,0.05,1.6,0.82,1.56,1.73c-0.01,0.16-0.04,0.31-0.09,0.45c0.85,1.25,1.23,2.65,1.05,4.01c-0.2,1.48-1.27,2.85-2.71,3.48
		C719.01,288.4,718.45,288.52,717.91,288.52z M718.29,282.25c-0.16,0.13-0.31,0.29-0.44,0.46c-0.46,0.61-0.63,1.35-0.43,1.93
		c0.08,0.25,0.22,0.46,0.35,0.55c0.13,0.09,0.39,0,0.46-0.04c0.39-0.18,0.73-0.57,0.78-0.93
		C719.1,283.54,718.76,282.83,718.29,282.25z"/>
	<path class="st1" d="M731.23,292.37c-0.75,0-1.46-0.25-2.03-0.72l-0.4-0.5c-0.64-1.21-0.64-2.66-0.09-3.87
		c0.08-0.34,0.26-0.66,0.54-0.9c0.15-0.19,0.31-0.37,0.5-0.53c1.48-1.33,3.74-1.49,5.38-0.41c0.76,0.5,0.96,1.52,0.46,2.28
		c-0.22,0.33-0.53,0.55-0.87,0.66c0.05,0.23,0.08,0.47,0.07,0.71c-0.02,1.25-0.8,2.38-2.03,2.94
		C732.25,292.26,731.73,292.37,731.23,292.37z"/>
	<path class="st1" d="M725,328.79c-0.71,0-1.36-0.46-1.57-1.17c-2.9-9.57-6.85-18.85-11.76-27.57c-0.45-0.79-0.16-1.79,0.63-2.24
		c0.79-0.45,1.79-0.16,2.24,0.63c5.02,8.93,9.07,18.42,12.04,28.22c0.26,0.87-0.23,1.79-1.1,2.05
		C725.32,328.77,725.16,328.79,725,328.79z"/>
	<path class="st1" d="M727.29,328.32c-0.79,0-1.49-0.57-1.62-1.38c-1.76-10.97-4.21-21.95-7.27-32.62l-3.29-11.44l6.26,10.12
		l-0.74,0.68l0.92-0.27c3.1,10.8,5.58,21.9,7.36,33.01c0.15,0.89-0.47,1.74-1.36,1.88C727.46,328.32,727.37,328.32,727.29,328.32z"
		/>
	<path class="st1" d="M727.31,325.6C727.31,325.6,727.31,325.6,727.31,325.6c-0.92,0-1.65-0.75-1.64-1.65
		c0.04-7.48,0.84-14.97,2.4-22.27c0.09-0.44,0.29-1.36,1.12-1.95c0.65-0.47,1.56-0.54,2.3-0.17l0.89,0.45l0.23,1.33
		c0.01,0.91-0.71,1.65-1.62,1.67c-1.27,6.86-2,13.92-2.04,20.97C728.95,324.87,728.22,325.6,727.31,325.6z"/>
	<path class="st1" d="M717.68,345.91l-1.32-1.2c-0.73-0.67-1.64-1.49-2.14-2.69c-0.68-1.63-0.24-3.5,1.04-4.44
		c0.88-0.64,2.13-0.73,3.16-0.2c0.94,0.48,1.51,1.4,1.5,2.39c-0.01,0.52-0.25,0.98-0.64,1.28c0.01,0.04,0.03,0.08,0.04,0.12
		c0.35,1.17,0.15,2.42-0.56,3.32L717.68,345.91z"/>
	<path class="st1" d="M730.58,351.86c-0.39,0-0.78-0.08-1.15-0.23c-0.89-0.39-1.57-1.14-2.02-2.25c-0.91-2.26-0.43-5.45,1.96-6.86
		c1.35-0.8,3.14-0.71,4.56,0.22c1.27,0.84,1.92,2.16,1.74,3.54c-0.1,0.81-0.78,1.4-1.57,1.43c0.1,1.27-0.49,2.62-1.53,3.44
		C731.97,351.62,731.27,351.86,730.58,351.86z M730.27,346.92c-0.02,0.43,0.05,0.86,0.19,1.23c0.12,0.31,0.24,0.44,0.27,0.46
		c-0.1-0.08,0.12-0.43,0.08-0.65C730.76,347.62,730.56,347.27,730.27,346.92z"/>
	<path class="st1" d="M743.46,342.52c-1.29,0-2.61-0.59-3.82-1.71c-1.9-1.77-3.09-4.26-3.25-6.85c-0.12-1.92,0.38-3.51,1.44-4.6
		c0.79-0.81,1.96-1.21,3.08-1.24c1.02,0.03,1.92,0.44,2.55,1.16c0.14,0.16,0.24,0.34,0.29,0.53c0.35,0.06,0.68,0.24,0.93,0.53
		c1.27,1.43,3.02,3.39,3.42,5.91c0.26,1.6-0.23,3.38-1.27,4.63c-0.86,1.04-2.03,1.63-3.28,1.66
		C743.53,342.52,743.49,342.52,743.46,342.52z M740.82,331.4c-0.18,0-0.45,0.07-0.62,0.24c-0.39,0.4-0.58,1.17-0.52,2.11
		c0.11,1.76,0.91,3.45,2.2,4.65c0.58,0.54,1.14,0.83,1.58,0.83c0.27,0.03,0.59-0.16,0.85-0.47c0.44-0.52,0.66-1.33,0.55-2
		c-0.23-1.45-1.28-2.73-2.63-4.24c-0.19-0.21-0.31-0.46-0.37-0.71c-0.32-0.05-0.63-0.17-0.88-0.36
		C740.95,331.41,740.9,331.4,740.82,331.4z"/>
	<path class="st1" d="M718.96,334.09c-0.39,0-0.78-0.14-1.1-0.42c-0.68-0.6-0.73-1.65-0.13-2.32c2.17-2.43,4.12-4.82,4.1-7.46
		c-0.01-0.91,0.72-1.65,1.63-1.66c0,0,0.01,0,0.01,0c0.9,0,1.64,0.73,1.64,1.63c0.03,3.81-2.42,6.87-4.94,9.67
		C719.86,333.91,719.41,334.09,718.96,334.09z"/>
	<path class="st1" d="M727.43,340.05c-0.81,0-1.52-0.61-1.63-1.44l-1.56-12.17c-0.11-0.9,0.52-1.72,1.42-1.84
		c0.93-0.1,1.73,0.53,1.84,1.42l1.56,12.17c0.11,0.9-0.52,1.72-1.42,1.84C727.57,340.05,727.5,340.05,727.43,340.05z"/>
	<path class="st1" d="M732.39,332.26c-0.22,0-0.43-0.04-0.64-0.13c-2.98-1.27-5.41-3.7-6.68-6.68c-0.35-0.84,0.03-1.8,0.87-2.16
		c0.83-0.35,1.8,0.04,2.16,0.87c0.94,2.2,2.73,4,4.94,4.94c0.84,0.36,1.23,1.32,0.87,2.16
		C733.63,331.88,733.02,332.26,732.39,332.26z"/>
	<path class="st1" d="M738.16,319.12c-0.5,0-1.02-0.07-1.53-0.22c-1.73-0.5-3.02-1.74-3.45-3.33c-0.43-1.58,0.04-3.31,1.26-4.62
		c1.23-1.32,2.91-1.91,4.53-1.58c0.14,0.03,0.27,0.07,0.39,0.13c0.14,0.02,0.28,0.05,0.42,0.1c1.53,0.59,2.64,2,2.97,3.76
		c0.33,1.76-0.2,3.48-1.42,4.58C740.47,318.72,739.35,319.12,738.16,319.12z M738.09,312.57c-0.49,0-0.95,0.3-1.25,0.62
		c-0.34,0.37-0.65,0.95-0.5,1.51c0.15,0.55,0.72,0.9,1.2,1.04c0.48,0.15,1.14,0.16,1.57-0.23c0.43-0.39,0.48-1.05,0.39-1.54
		c-0.09-0.49-0.38-1.09-0.92-1.3c-0.04-0.02-0.08-0.04-0.13-0.06c-0.05,0-0.1-0.01-0.15-0.02
		C738.24,312.58,738.16,312.57,738.09,312.57z"/>
	<path class="st1" d="M708.11,317.86c-0.15,0-0.31-0.01-0.47-0.04l-0.73-0.14l-0.38-0.63c-0.77-1.29-0.96-2.91-0.51-4.34l0.18-0.56
		l0.49-0.32c0.58-0.39,1.32-0.49,2.03-0.32c0.7,0.18,1.29,0.64,1.62,1.26c0.15,0.28,0.21,0.58,0.19,0.87
		c0.37,0.7,0.42,1.58,0.08,2.41C710.17,317.17,709.18,317.86,708.11,317.86z"/>
	<path class="st1" d="M598.28,432.33c-1.53,0-3.08-0.11-4.67-0.36c-18.26-2.79-28.63-21.42-33.19-32.28
		c-6.1-14.54-11.81-36.21-4.33-56.87c1.47-4.06,3.42-7.98,5.31-11.77c3.34-6.71,6.5-13.06,7.23-20.11
		c1.14-10.95-3.72-20.95-8.85-31.54c-4.16-8.58-8.46-17.45-9.4-27c-2.05-20.89,15.11-41.82,35.99-43.91
		c0.88-0.07,1.71,0.57,1.8,1.47c0.09,0.9-0.57,1.71-1.47,1.8c-19.18,1.91-34.93,21.13-33.05,40.31c0.88,8.96,5.05,17.56,9.09,25.88
		c5.11,10.54,10.4,21.44,9.16,33.31c-0.79,7.65-4.23,14.55-7.56,21.23c-1.85,3.71-3.76,7.55-5.16,11.43
		c-7.12,19.67-1.61,40.48,4.27,54.49c4.29,10.22,13.98,27.76,30.65,30.3c22.98,3.46,38.95-23.04,43.31-31.25
		c15.93-30.12,22.7-65.36,19.06-99.24c-1.21-11.27-3.33-20.09-6.67-27.77c-6.14-14.12-16.96-25.51-27.43-36.53
		c-9.95-10.47-23.1-22.02-36.71-18.44c-0.86,0.23-1.78-0.29-2.01-1.17c-0.23-0.88,0.29-1.78,1.17-2.01
		c15.26-4,29.35,8.23,39.93,19.36c10.17,10.7,21.69,22.83,28.06,37.48c3.47,7.99,5.67,17.12,6.92,28.73
		c3.71,34.52-3.19,70.44-19.42,101.13C636,407.16,620.83,432.33,598.28,432.33z"/>
	<path class="st1" d="M739.94,431.06c-4.46,0-8.8-0.7-12.84-2.15c-17.12-6.11-28.59-23.42-35.08-52.92
		c-7.97-36.27-10.17-73.41-6.53-110.37c1.41-14.34,3.9-30.98,11.65-45.73c6.79-12.9,25.67-31.78,42.05-32.17
		c8.03-0.13,14.39,3.76,19.1,11.74l0,0c5.62,9.54,5.74,21.43,5.83,30.99l0.33,34.91c0.08,8.09,0.16,17.26,4.51,24.59
		c3.43,5.77,8.98,9.64,14.85,13.74c4.03,2.82,8.21,5.73,11.68,9.33c22.63,23.52,6.41,61.7,0.9,72.84
		c-8.01,16.2-16.49,27.28-26.7,34.87C760.61,427.48,749.99,431.06,739.94,431.06z M739.73,191.01c-0.15,0-0.3,0-0.45,0
		c-15.14,0.37-32.8,18.22-39.22,30.42c-7.49,14.24-9.91,30.49-11.29,44.51c-3.61,36.62-1.43,73.41,6.47,109.34
		c6.22,28.3,17.01,44.83,32.97,50.53c12.14,4.33,27.29,1.37,39.52-7.73c9.77-7.26,17.94-17.97,25.71-33.69
		c10.86-21.96,16.48-51.64-0.32-69.1c-3.25-3.38-7.29-6.19-11.19-8.92c-5.9-4.12-12-8.37-15.79-14.75
		c-4.8-8.09-4.9-18.15-4.97-26.24l-0.33-34.91c-0.09-9.64-0.2-20.57-5.37-29.34C751.5,194.42,746.21,191.01,739.73,191.01z"/>
</g>
<rect x="-484.15" y="-82.9" class="st7" width="1751.24" height="194.58"/>
<rect x="-484.15" y="500.85" class="st7" width="1751.24" height="194.58"/>
<rect x="834.75" y="151.57" style="fill:none;" width="413.62" height="318.3"/>
<text transform="matrix(1 0 0 1 844.6787 201.2734)"><tspan x="0" y="0" style="fill:#EF4136; font-family:'MyriadPro-Regular'; font-size:70px;">Northwestern </tspan><tspan x="111.3" y="84" style="fill:#EF4136; font-family:'MyriadPro-Regular'; font-size:70px;">University </tspan><tspan x="190.4" y="168" style="fill:#EF4136; font-family:'MyriadPro-Regular'; font-size:70px;">Malaria </tspan><tspan x="123.55" y="252" style="fill:#EF4136; font-family:'MyriadPro-Regular'; font-size:70px;">Modeling </tspan></text>
</svg>
