<?xml version="1.0" encoding="utf-8"?>
<!-- Generator: Adobe Illustrator 24.0.0, SVG Export Plug-In . SVG Version: 6.00 Build 0)  -->
<svg version="1.1" id="Layer_1" xmlns="http://www.w3.org/2000/svg" xmlns:xlink="http://www.w3.org/1999/xlink" x="0px" y="0px"
	 viewBox="0 0 792 612" style="enable-background:new 0 0 792 612;" xml:space="preserve">
<style type="text/css">
	.st0{opacity:0.6;fill:#ED2224;}
	.st1{fill:#ED2224;}
	.st2{fill:#B4DDF1;}
	.st3{fill:none;}
	.st4{fill:#EF4136;}
	.st5{font-family:'MyriadPro-Regular';}
	.st6{font-size:72px;}
</style>
<g>
	<path class="st0" d="M165.1,319.54c5.18,10.35,4.61,24.53-0.41,26.92c-3.76,1.79-10.16-2.89-15.54-8.86
		c-2.62-2.91-4.61-5.52-5.83-7.61c-0.98-1.68-3.93-7.01-5.73-20.27c-1.4-10.34-2.1-15.51,0-16.56c2.43-1.2,7.16,3.71,16.62,13.55
		C160.41,313.15,163.52,316.37,165.1,319.54z"/>
	<g>
		<path class="st1" d="M207.02,365.78c-5.08,0-9.99-2.93-11.84-7.36c-1.16-2.78-0.96-6.16,0.54-9.04c1.38-2.65,3.69-4.5,6.33-5.09
			c0.81-0.18,1.62,0.33,1.8,1.14c0.02,0.1,0.03,0.19,0.04,0.29c1.74-0.23,3.62-0.29,5.44,0.22c2.83,0.79,5.7,3.45,5.44,6.82
			c-0.07,0.87-0.34,1.66-0.57,2.36c-0.26,0.78-0.49,1.45-0.4,2.01c0.05,0.29,0.2,0.63,0.36,1c0.26,0.59,0.55,1.25,0.62,2.06
			c0.23,2.91-2.54,4.81-5.22,5.35C208.71,365.7,207.86,365.78,207.02,365.78z M200.29,348.4c-0.75,0.61-1.41,1.41-1.9,2.36
			c-1.09,2.1-1.25,4.53-0.43,6.5c1.6,3.83,6.53,6.21,10.99,5.32c1.41-0.28,2.88-1.19,2.8-2.16c-0.02-0.3-0.19-0.68-0.37-1.09
			c-0.22-0.5-0.47-1.06-0.58-1.71c-0.22-1.3,0.17-2.46,0.52-3.47c0.2-0.59,0.39-1.14,0.42-1.63c0.13-1.68-1.58-3.22-3.24-3.69
			c-2.09-0.58-4.51-0.13-6.65,0.27C201.23,349.22,200.61,348.92,200.29,348.4z"/>
	</g>
	<g>
		<path class="st1" d="M200.22,345.85c-0.69,0-1.31-0.47-1.47-1.17c-1.2-5.17-4.58-11.42-10.48-13.48c-2.87-1-6.36-0.57-9.12,1.13
			c-2.2,1.36-3.56,3.31-3.83,5.51c-0.1,0.82-0.86,1.41-1.69,1.31c-0.83-0.1-1.42-0.85-1.31-1.68c0.39-3.12,2.25-5.85,5.24-7.69
			c3.51-2.17,8-2.71,11.71-1.42c5.99,2.09,10.64,7.94,12.42,15.64c0.19,0.81-0.32,1.62-1.13,1.8
			C200.44,345.84,200.33,345.85,200.22,345.85z"/>
	</g>
	<g>
		<path class="st1" d="M191.35,359.64c-1.26,0-2.59-0.28-3.8-0.84c-0.53-0.24-1.05-0.51-1.58-0.78c-1.74-0.89-3.38-1.74-4.88-1.39
			c-0.34,0.08-0.72,0.23-1.12,0.4c-0.79,0.32-1.68,0.68-2.73,0.67c-2.4-0.04-4.38-1.97-5.44-5.32c-1.56-4.92-1.84-10.19-0.8-15.25
			c0.17-0.81,0.97-1.34,1.78-1.17c0.82,0.17,1.34,0.96,1.18,1.78c-0.94,4.55-0.68,9.3,0.72,13.74c0.49,1.54,1.43,3.2,2.61,3.21
			c0.44,0.01,0.95-0.2,1.54-0.44c0.47-0.19,1.01-0.41,1.59-0.54c2.58-0.59,4.9,0.6,6.94,1.65c0.49,0.25,0.97,0.5,1.46,0.72
			c1.32,0.61,3,0.74,3.99,0.31c0.57-0.24,0.74-0.59,0.82-0.83c0.26-0.79,1.12-1.21,1.91-0.95s1.22,1.12,0.95,1.9
			c-0.4,1.2-1.26,2.12-2.49,2.64C193.23,359.48,192.31,359.64,191.35,359.64z"/>
	</g>
	<g>
		<path class="st1" d="M160.25,351.89c-2.68,0-5.03-1.02-6.48-2.87l-0.72-0.91l0.71-0.92c1.24-1.63,3.33-6.09,5.54-10.82
			c4.28-9.14,7.51-15.77,10.16-17.82c0.62-0.48,2.27-1.76,4.1-1.14c1.31,0.45,1.95,1.63,2.34,2.33l3.35,6.15
			c0.4,0.73,0.13,1.64-0.61,2.04c-0.73,0.4-1.65,0.13-2.05-0.6l-3.35-6.15c-0.11-0.21-0.46-0.85-0.66-0.92
			c-0.03-0.01-0.31-0.07-1.26,0.66c-2.28,1.76-6.15,10.05-9.27,16.72c-1.99,4.26-3.76,8.04-5.13,10.26c1.14,0.83,2.8,1.17,4.58,0.89
			c4.19-0.65,7.88-4.21,9.85-9.53c0.29-0.78,1.16-1.18,1.94-0.89c0.78,0.29,1.18,1.15,0.89,1.93c-2.36,6.35-6.93,10.63-12.22,11.46
			C161.38,351.84,160.81,351.89,160.25,351.89z"/>
	</g>
	<g>
		<path class="st1" d="M154.96,349.59c-0.12,0-0.25-0.02-0.38-0.05c-3.51-0.9-15.51-9.83-16.23-17.88l-0.04-0.44l0.21-0.39
			c0.78-1.47,1.78-3.35,2.96-5.52c1.52-2.79,2.18-3.96,2.66-4.79c0.39-0.69,0.65-1.13,1.16-2.11l0.6-1.14
			c1.75-3.35,3.92-7.53,6.68-11.25c0.56-0.75,2.03-2.75,4.28-2.57c1.52,0.12,2.58,1.2,3.21,1.85l11.07,11.33
			c0.58,0.6,0.57,1.55-0.03,2.13c-0.6,0.58-1.55,0.57-2.14-0.03L157.9,307.4c-0.34-0.35-0.9-0.92-1.28-0.95
			c-0.26-0.02-0.75,0.2-1.61,1.36c-2.62,3.53-4.73,7.59-6.43,10.85l-0.6,1.15c-0.54,1.02-0.8,1.49-1.21,2.2
			c-0.47,0.82-1.13,1.98-2.63,4.74c-1.06,1.96-1.98,3.67-2.72,5.07c0.97,6.22,11.01,14.06,13.93,14.81
			c0.81,0.21,1.29,1.03,1.09,1.83C156.25,349.14,155.64,349.59,154.96,349.59z"/>
	</g>
	<g>
		<path class="st1" d="M140.05,331.78c-0.23,0-0.45-0.05-0.66-0.14c-2.08-0.96-7.04-14.97-7.09-25.69
			c-0.02-3.48,3.11-8.09,6.2-10.86c1.69-1.51,4.24-3.25,6.77-2.97c3.45,0.39,5.68,3.24,7.49,5.88l3.22,4.67
			c0.47,0.69,0.3,1.62-0.39,2.09c-0.69,0.47-1.63,0.3-2.1-0.39l-3.22-4.67c-1.44-2.09-3.16-4.34-5.35-4.59
			c-1.07-0.12-2.72,0.71-4.41,2.22c-2.83,2.52-5.21,6.46-5.2,8.6c0.04,8.28,2.92,17.06,4.62,21.08c0.63,0.04,1.2,0.47,1.37,1.11
			c0.4,1.48,0.61,2.58-0.24,3.29C140.8,331.66,140.42,331.78,140.05,331.78z M138.64,330.06h0.02H138.64z"/>
	</g>
	<g>
		<path class="st1" d="M133.81,307.45c-0.21,0-0.43-0.04-0.63-0.14c-1.4-0.65-2.53-2.08-3.2-4.05c-1.21-3.6-0.61-8.21,1.61-12.35
			c0.36-0.68,0.66-1.41,0.97-2.18c0.86-2.1,1.83-4.49,4.33-5.64l1.13-0.52l0.73,1.01c2.23,3.09,4.76,5.98,7.52,8.61
			c0.6,0.57,0.63,1.53,0.05,2.13c-0.58,0.6-1.53,0.62-2.14,0.05c-2.54-2.41-4.89-5.05-7.01-7.84c-0.78,0.8-1.27,2-1.81,3.34
			c-0.33,0.81-0.67,1.66-1.11,2.47c-1.83,3.42-2.36,7.15-1.41,9.97c0.38,1.14,0.98,1.99,1.6,2.27c0.76,0.35,1.09,1.24,0.74,2
			C134.93,307.13,134.38,307.45,133.81,307.45z"/>
	</g>
	<g>
		<path class="st1" d="M133.16,291.43c-0.25,0-0.49-0.06-0.73-0.19c-4.51-2.46-3.82-9-3.59-11.15c0.08-0.81,0.24-2.3,1.43-3.23
			c0.79-0.61,1.77-0.79,2.75-0.5c1.61,0.47,2.82,2.08,3.27,3.37c0.08,0.24,0.17,0.49,0.25,0.75c0.35,1.08,0.7,2.19,1.33,2.4
			c0.79,0.27,1.21,1.12,0.94,1.91c-0.27,0.79-1.13,1.21-1.92,0.94c-2.07-0.7-2.74-2.8-3.23-4.33c-0.07-0.23-0.15-0.46-0.22-0.68
			c-0.29-0.84-1.05-1.48-1.33-1.48c-0.06,0.06-0.17,0.32-0.26,1.17c-0.47,4.51,0.19,7.19,2.04,8.2c0.73,0.4,1,1.31,0.6,2.04
			C134.21,291.15,133.69,291.43,133.16,291.43z"/>
	</g>
	<g>
		<path class="st1" d="M182.04,329.09c-0.63,0-1.21-0.39-1.43-1.01c-1.8-5.19-6.28-9.11-10.61-12.89l-1.41-1.24
			c-11.97-10.59-21.94-23.06-29.61-37.06l-1.03-1.89l2.13-0.32c6.6-1,12.09,3.68,17.04,8.88c2.65,2.78,5.38,5.66,7.94,8.64
			c8.66,10.08,15.49,21.47,20.29,33.85c0.3,0.78-0.09,1.65-0.86,1.95c-0.33,0.13-0.69,0.13-1,0.03c-0.13,0.45-0.48,0.83-0.95,0.99
			C182.37,329.06,182.2,329.09,182.04,329.09z M142.85,277.61c7.33,12.82,16.66,24.27,27.75,34.08l1.4,1.23
			c2.72,2.38,5.49,4.81,7.74,7.61c-4.4-9.53-10.1-18.38-16.97-26.38c-2.51-2.92-5.22-5.77-7.84-8.52
			C151.2,281.7,147.18,278.11,142.85,277.61z"/>
	</g>
	<g>
		<path class="st1" d="M195.4,333.8c-0.61,0-1.19-0.37-1.42-0.98c-6.97-18.7-16.49-36.37-28.27-52.5c-1.29-1.77-3.07-3.71-4.88-4.11
			c4.65,19.13,17.69,35.52,30.69,50.69c0.54,0.63,0.47,1.58-0.17,2.12s-1.59,0.46-2.13-0.17c-13.64-15.92-27.33-33.17-31.74-53.73
			l-0.29-1.35l1.33-0.4c3.18-0.96,6.42,0.78,9.63,5.18c11.95,16.36,21.59,34.26,28.66,53.23c0.29,0.78-0.11,1.65-0.89,1.93
			C195.76,333.77,195.58,333.8,195.4,333.8z"/>
	</g>
	<g>
		<path class="st1" d="M144.95,396.62c-0.36,0-0.73-0.13-1.02-0.39c-0.62-0.56-0.66-1.51-0.1-2.13c14.9-16.31,24.1-37.4,25.91-59.37
			l0.64-7.75l2.31,7.42c1.37,4.39,1.82,8.95,2.25,13.37l1.13,11.45c0.25-1.55,0.54-3.1,0.87-4.64c0.17-0.81,0.97-1.33,1.79-1.16
			c0.82,0.17,1.34,0.97,1.17,1.78c-1.49,7.07-2.2,14.31-2.1,21.54l-3.01,0.17l-2.84-28.84c-0.12-1.24-0.25-2.49-0.39-3.75
			c-3.4,19.21-12.26,37.34-25.48,51.81C145.77,396.45,145.36,396.62,144.95,396.62z"/>
	</g>
	<g>
		<path class="st1" d="M200.29,396.25c-0.48,0-0.96-0.23-1.25-0.66c-7.5-11.03-9.13-28.07-10.57-43.1c-0.26-2.73-0.52-5.39-0.8-7.97
			c-0.42,3.22-0.82,6.28-1.22,9.33c0.11,0.01,0.23,0.02,0.34,0.03c0.83,0.11,1.41,0.87,1.29,1.7s-0.87,1.4-1.7,1.29
			c-0.11-0.02-0.22-0.02-0.32-0.01c-0.75,5.72-1.51,11.58-2.4,18.52l-3.01-0.18c-0.01-2.35-0.08-3.91-0.14-5.29
			c-0.1-2.32-0.18-4.14,0.09-8.18c0.07-1.1,0.48-4.75,2.65-6.71c0.04-0.31,0.08-0.63,0.12-0.94c0.85-6.5,1.7-13.01,2.72-20.93
			l1.19-9.31l1.79,9.22c1.12,5.75,1.74,12.27,2.4,19.17c1.47,15.39,3,31.3,10.06,41.7c0.47,0.69,0.29,1.62-0.4,2.09
			C200.87,396.16,200.58,396.25,200.29,396.25z"/>
	</g>
	<g>
		<path class="st1" d="M233.3,394.76c-4.1-4.56-7.97-9.33-11.6-14.27l-13.94-17.16c-0.52-0.65-0.42-1.59,0.22-2.12
			c0.55-0.44,1.32-0.44,1.86-0.03c0.11-0.36,0.35-0.68,0.71-0.88c0.73-0.41,1.65-0.15,2.06,0.57c3.47,6.14,7.31,12.08,11.48,17.78
			l11.5,14.16L233.3,394.76z"/>
	</g>
	<g>
		<path class="st1" d="M174.01,312.49c-0.18,0-0.35-0.06-0.5-0.19c-9.65-8.39-17.74-18.87-23.41-30.31
			c-0.18-0.37-0.03-0.82,0.34-1.01c0.37-0.18,0.83-0.03,1.01,0.34c5.58,11.27,13.54,21.58,23.04,29.84
			c0.31,0.27,0.35,0.75,0.07,1.06C174.43,312.4,174.22,312.49,174.01,312.49z"/>
	</g>
	<g>
		<path class="st1" d="M191.04,328.08c-0.23,0-0.45-0.1-0.6-0.29c-10.89-14.15-18.89-30.79-23.15-48.11
			c-0.1-0.4,0.15-0.81,0.55-0.91c0.41-0.1,0.81,0.15,0.91,0.55c4.21,17.12,12.12,33.56,22.88,47.55c0.25,0.33,0.19,0.8-0.14,1.06
			C191.37,328.03,191.21,328.08,191.04,328.08z"/>
	</g>
	<g>
		<path class="st1" d="M151.12,286.3c-0.06,0-0.13-0.01-0.2-0.03l-3.93-1.04c-0.4-0.11-0.64-0.52-0.53-0.92
			c0.11-0.4,0.52-0.64,0.92-0.53l3.93,1.04c0.4,0.11,0.64,0.52,0.53,0.92C151.76,286.07,151.45,286.3,151.12,286.3z"/>
	</g>
	<g>
		<path class="st1" d="M159.4,301c-0.5,0-1-0.05-1.49-0.15c-0.41-0.09-0.67-0.48-0.58-0.89s0.49-0.67,0.89-0.58
			c1.5,0.31,3.09,0.02,4.37-0.82c0.35-0.23,0.82-0.13,1.05,0.22s0.13,0.81-0.22,1.04C162.22,300.59,160.81,301,159.4,301z"/>
	</g>
	<g>
		<path class="st1" d="M170.81,291.14c-0.19,0-0.38-0.07-0.53-0.21l-6.97-6.81c-0.3-0.29-0.3-0.77-0.01-1.06
			c0.29-0.3,0.77-0.3,1.07-0.01l6.97,6.81c0.3,0.29,0.3,0.77,0.01,1.06C171.2,291.07,171.01,291.14,170.81,291.14z"/>
	</g>
	<g>
		<path class="st1" d="M184.59,314.81c-0.14,0-0.28-0.04-0.4-0.11l-4.87-3.04c-0.35-0.22-0.46-0.68-0.24-1.04
			c0.22-0.35,0.69-0.46,1.04-0.24l4.87,3.04c0.35,0.22,0.46,0.68,0.24,1.04C185.08,314.69,184.84,314.81,184.59,314.81z"/>
	</g>
	<g>
		<path class="st1" d="M205.27,364.07l-0.52-0.9c-1.24-2.17-1.28-5-0.08-7.19c1.19-2.2,3.58-3.72,6.09-3.87
			c0.42-0.03,0.77,0.29,0.8,0.7c0,0.01,0,0.03,0,0.04c0.8,0.56,1.1,1.68,0.89,2.59c-0.23,1-0.92,1.76-1.48,2.37L205.27,364.07z
			 M210.11,353.7c-1.72,0.34-3.28,1.46-4.11,2.99c-0.78,1.44-0.9,3.21-0.38,4.75l4.23-4.64c0.46-0.5,0.98-1.08,1.12-1.7
			c0.11-0.46-0.11-1-0.43-1.09C210.36,353.96,210.21,353.85,210.11,353.7z"/>
	</g>
	<g>
		<path class="st1" d="M123.31,410.75c-0.29,0-0.56-0.16-0.69-0.44c-0.17-0.38,0-0.82,0.38-1c8.6-3.88,16.4-9.17,23.17-15.73
			c0.3-0.29,0.78-0.28,1.07,0.01c0.29,0.3,0.28,0.77-0.01,1.06c-6.89,6.68-14.83,12.07-23.6,16.02
			C123.52,410.73,123.42,410.75,123.31,410.75z"/>
	</g>
	<g>
		<path class="st1" d="M224.78,413.73c-0.09,0-0.19-0.02-0.28-0.05c-9.52-3.76-18.02-10.43-23.93-18.76
			c-0.24-0.34-0.16-0.81,0.18-1.05c0.34-0.24,0.81-0.16,1.05,0.18c5.74,8.1,14,14.58,23.25,18.23c0.39,0.15,0.58,0.59,0.42,0.98
			C225.36,413.55,225.08,413.73,224.78,413.73z"/>
	</g>
	<g>
		<path class="st1" d="M235.41,378.17c-0.14,0-0.28-0.04-0.4-0.12c-7.83-4.95-15.45-10.42-22.65-16.24
			c-0.32-0.26-0.37-0.74-0.11-1.06c0.26-0.32,0.74-0.37,1.06-0.11c7.15,5.79,14.73,11.22,22.51,16.14c0.35,0.22,0.46,0.69,0.23,1.04
			C235.9,378.05,235.66,378.17,235.41,378.17z"/>
	</g>
	<g>
		<path class="st1" d="M232.74,381.35c-0.15,0-0.31-0.05-0.44-0.14c-7.27-5.22-13.49-11.63-18.5-19.03
			c-0.23-0.34-0.14-0.81,0.2-1.04c0.35-0.23,0.82-0.14,1.05,0.2c4.91,7.25,11.01,13.53,18.14,18.65c0.34,0.24,0.41,0.71,0.17,1.05
			C233.21,381.24,232.98,381.35,232.74,381.35z"/>
	</g>
	<g>
		<path class="st1" d="M212.63,352.84c-0.42,0-0.76-0.34-0.76-0.75v-0.55c0-0.42,0.34-0.75,0.76-0.75s0.76,0.34,0.76,0.75v0.55
			C213.38,352.5,213.05,352.84,212.63,352.84z"/>
	</g>
	<g>
		<path class="st1" d="M189.9,377.34c-0.18,0-0.36-0.01-0.55-0.02l-1.66-0.12l3.34-19.31c0.14-0.82,0.92-1.37,1.75-1.23
			s1.37,0.92,1.23,1.74l-2.72,15.75c1.09-0.27,2.2-0.81,3.32-1.4c12.41-6.44,23.97-14.45,34.35-23.81c0.62-0.56,1.57-0.51,2.13,0.11
			c0.56,0.62,0.51,1.57-0.11,2.13c-10.57,9.53-22.34,17.68-34.99,24.24C194.12,376.39,192.1,377.34,189.9,377.34z"/>
	</g>
	<g>
		<path class="st1" d="M243.18,376.21c-0.51,0-1.01-0.26-1.29-0.72c-4.59-7.53-9.03-15.29-13.18-23.07
			c-0.39-0.73-0.11-1.65,0.63-2.04s1.65-0.11,2.04,0.62c4.12,7.73,8.53,15.44,13.09,22.92c0.43,0.71,0.21,1.64-0.51,2.07
			C243.72,376.14,243.44,376.21,243.18,376.21z"/>
	</g>
	<g>
		<path class="st1" d="M266.49,395.77c-0.12,0-0.23-0.03-0.34-0.08c-9.3-4.75-17.41-11.76-23.45-20.26
			c-0.24-0.34-0.16-0.81,0.18-1.05s0.81-0.16,1.05,0.18c5.9,8.31,13.82,15.15,22.9,19.79c0.37,0.19,0.52,0.64,0.33,1.01
			C267.03,395.62,266.77,395.77,266.49,395.77z"/>
	</g>
	<g>
		<path class="st1" d="M286.94,403.06c-0.07,0-0.13-0.01-0.2-0.03c-6.73-1.82-13.31-4.29-19.57-7.35l-0.06,0.65
			c-0.04,0.41-0.41,0.72-0.82,0.68c-0.42-0.04-0.72-0.41-0.68-0.82l0.27-2.84l0.99,0.49c6.47,3.23,13.29,5.83,20.28,7.73
			c0.4,0.11,0.64,0.52,0.53,0.92C287.58,402.84,287.28,403.06,286.94,403.06z"/>
	</g>
	<g>
		<path class="st1" d="M99.96,412.39c-0.24,0-0.48-0.11-0.62-0.33c-0.24-0.34-0.15-0.81,0.2-1.05c3.99-2.71,8.86-2.31,13.57-1.92
			c3.23,0.27,6.56,0.55,9.58-0.18c0.41-0.1,0.81,0.15,0.91,0.55c0.1,0.4-0.15,0.81-0.56,0.91c-3.25,0.78-6.71,0.5-10.06,0.22
			c-4.65-0.39-9.04-0.75-12.59,1.66C100.25,412.35,100.11,412.39,99.96,412.39z"/>
	</g>
	<g>
		<path class="st1" d="M234.78,417.53c-0.1,0-0.2-0.02-0.3-0.06l-8.89-3.83c-0.38-0.17-0.56-0.61-0.39-0.99
			c0.17-0.38,0.61-0.56,0.99-0.39l8.89,3.83c0.38,0.17,0.56,0.61,0.39,0.99C235.35,417.36,235.07,417.53,234.78,417.53z"/>
	</g>
	<g>
		<path class="st1" d="M212.89,350.41c-0.16,0-0.31-0.05-0.45-0.15c-0.33-0.25-0.4-0.72-0.16-1.05c6.19-8.29,15.11-14.37,25.12-17.1
			c0.4-0.11,0.82,0.13,0.93,0.53c0.11,0.4-0.13,0.81-0.53,0.92c-9.68,2.65-18.31,8.52-24.31,16.55
			C213.35,350.31,213.12,350.41,212.89,350.41z"/>
	</g>
	<g>
		<path class="st1" d="M213.91,350.91c-0.26,0-0.51-0.13-0.65-0.37c-0.21-0.36-0.1-0.82,0.26-1.03l15.33-9.17
			c0.36-0.21,0.82-0.1,1.04,0.26s0.1,0.82-0.26,1.03l-15.33,9.17C214.17,350.87,214.04,350.91,213.91,350.91z"/>
	</g>
	<g>
		<path class="st1" d="M248.75,405.39c-0.12,0-0.24-0.04-0.34-0.11c-5.31-3.92-10.55-8.05-15.6-12.3c-0.24-0.2-0.27-0.56-0.07-0.8
			c0.2-0.24,0.56-0.27,0.8-0.07c5.02,4.23,10.25,8.35,15.54,12.26c0.25,0.19,0.3,0.54,0.12,0.79
			C249.09,405.31,248.92,405.39,248.75,405.39z"/>
	</g>
</g>
<rect x="-16.21" y="72.77" class="st2" width="862.34" height="116.75"/>
<rect x="-16.21" y="423.02" class="st2" width="862.34" height="116.75"/>
<rect x="-34.91" y="205.51" class="st3" width="849.86" height="190.98"/>
<text transform="matrix(1 0 0 1 83.7212 256.6309)"><tspan x="0" y="0" class="st4 st5 st6">Northwestern University </tspan><tspan x="208.44" y="86.4" class="st4 st5 st6">Malaria Modeling </tspan></text>
</svg>
