<?xml version="1.0" encoding="utf-8"?>
<!-- Generator: Adobe Illustrator 24.0.0, SVG Export Plug-In . SVG Version: 6.00 Build 0)  -->
<svg version="1.1" id="Layer_1" xmlns="http://www.w3.org/2000/svg" xmlns:xlink="http://www.w3.org/1999/xlink" x="0px" y="0px"
	 viewBox="0 0 792 612" style="enable-background:new 0 0 792 612;" xml:space="preserve">
<style type="text/css">
	.st0{opacity:0.6;fill:#ED2224;}
	.st1{fill:#ED2224;}
	.st2{opacity:0.3;fill:#EA2828;}
	.st3{opacity:0.7;fill:#EA2828;}
	.st4{fill:#EA2928;}
	.st5{fill:#EA2828;}
	.st6{fill:#EC2526;}
	.st7{fill:#B4DDF1;}
	.st8{fill:none;}
	.st9{fill:#EF4136;}
	.st10{font-family:'MyriadPro-Regular';}
	.st11{font-size:14px;}
</style>
<g>
	<path class="st0" d="M253.04,299.74c1.73,3.45,1.54,8.18-0.14,8.97c-1.25,0.6-3.39-0.96-5.18-2.95c-0.87-0.97-1.54-1.84-1.94-2.54
		c-0.33-0.56-1.31-2.34-1.91-6.76c-0.47-3.45-0.7-5.17,0-5.52c0.81-0.4,2.39,1.24,5.54,4.52
		C251.47,297.61,252.51,298.69,253.04,299.74z"/>
	<g>
		<path class="st1" d="M267.01,315.15c-1.69,0-3.33-0.98-3.95-2.45c-0.39-0.93-0.32-2.05,0.18-3.01c0.46-0.88,1.23-1.5,2.11-1.7
			c0.27-0.06,0.54,0.11,0.6,0.38c0.01,0.03,0.01,0.06,0.01,0.1c0.58-0.08,1.21-0.1,1.81,0.07c0.94,0.26,1.9,1.15,1.81,2.27
			c-0.02,0.29-0.11,0.55-0.19,0.79c-0.09,0.26-0.16,0.48-0.13,0.67c0.02,0.1,0.07,0.21,0.12,0.33c0.09,0.2,0.18,0.42,0.21,0.69
			c0.08,0.97-0.85,1.6-1.74,1.78C267.57,315.13,267.29,315.15,267.01,315.15z M264.77,309.36c-0.25,0.2-0.47,0.47-0.63,0.79
			c-0.36,0.7-0.42,1.51-0.14,2.17c0.53,1.28,2.18,2.07,3.66,1.77c0.47-0.09,0.96-0.4,0.93-0.72c-0.01-0.1-0.06-0.23-0.12-0.36
			c-0.07-0.17-0.16-0.35-0.19-0.57c-0.07-0.43,0.06-0.82,0.17-1.16c0.07-0.2,0.13-0.38,0.14-0.54c0.04-0.56-0.53-1.07-1.08-1.23
			c-0.7-0.19-1.5-0.04-2.22,0.09C265.08,309.63,264.87,309.53,264.77,309.36z"/>
	</g>
	<g>
		<path class="st1" d="M264.74,308.51c-0.23,0-0.44-0.16-0.49-0.39c-0.4-1.72-1.53-3.81-3.49-4.49c-0.96-0.33-2.12-0.19-3.04,0.38
			c-0.73,0.45-1.19,1.1-1.28,1.84c-0.03,0.27-0.29,0.47-0.56,0.44c-0.28-0.03-0.47-0.28-0.44-0.56c0.13-1.04,0.75-1.95,1.75-2.56
			c1.17-0.72,2.67-0.9,3.9-0.47c2,0.7,3.55,2.65,4.14,5.21c0.06,0.27-0.11,0.54-0.38,0.6C264.82,308.51,264.78,308.51,264.74,308.51
			z"/>
	</g>
	<g>
		<path class="st1" d="M261.79,313.11c-0.42,0-0.86-0.09-1.27-0.28c-0.18-0.08-0.35-0.17-0.53-0.26c-0.58-0.3-1.13-0.58-1.63-0.46
			c-0.11,0.03-0.24,0.08-0.37,0.13c-0.26,0.11-0.56,0.23-0.91,0.22c-0.8-0.01-1.46-0.66-1.81-1.77c-0.52-1.64-0.61-3.4-0.27-5.08
			c0.06-0.27,0.32-0.45,0.59-0.39c0.27,0.06,0.45,0.32,0.39,0.59c-0.31,1.52-0.23,3.1,0.24,4.58c0.16,0.51,0.48,1.07,0.87,1.07
			c0.15,0,0.32-0.07,0.51-0.15c0.16-0.06,0.34-0.14,0.53-0.18c0.86-0.2,1.63,0.2,2.31,0.55c0.16,0.08,0.32,0.17,0.49,0.24
			c0.44,0.2,1,0.25,1.33,0.1c0.19-0.08,0.25-0.2,0.27-0.28c0.09-0.26,0.37-0.4,0.64-0.32s0.41,0.37,0.32,0.63
			c-0.13,0.4-0.42,0.71-0.83,0.88C262.41,313.05,262.11,313.11,261.79,313.11z"/>
	</g>
	<g>
		<path class="st1" d="M251.42,310.52c-0.89,0-1.68-0.34-2.16-0.96l-0.24-0.3l0.24-0.31c0.41-0.54,1.11-2.03,1.85-3.61
			c1.43-3.05,2.5-5.26,3.39-5.94c0.21-0.16,0.76-0.59,1.37-0.38c0.44,0.15,0.65,0.54,0.78,0.78l1.12,2.05
			c0.13,0.24,0.04,0.55-0.2,0.68c-0.24,0.13-0.55,0.04-0.68-0.2l-1.12-2.05c-0.04-0.07-0.15-0.28-0.22-0.31
			c-0.01,0-0.1-0.02-0.42,0.22c-0.76,0.59-2.05,3.35-3.09,5.57c-0.66,1.42-1.25,2.68-1.71,3.42c0.38,0.28,0.93,0.39,1.53,0.3
			c1.4-0.22,2.63-1.4,3.28-3.18c0.1-0.26,0.39-0.39,0.65-0.3s0.39,0.38,0.3,0.64c-0.79,2.12-2.31,3.54-4.07,3.82
			C251.8,310.51,251.61,310.52,251.42,310.52z"/>
	</g>
	<g>
		<path class="st1" d="M249.66,309.76c-0.04,0-0.08-0.01-0.13-0.02c-1.17-0.3-5.17-3.28-5.41-5.96l-0.01-0.15l0.07-0.13
			c0.26-0.49,0.59-1.12,0.99-1.84c0.51-0.93,0.73-1.32,0.89-1.6c0.13-0.23,0.22-0.38,0.39-0.7l0.2-0.38
			c0.58-1.12,1.31-2.51,2.23-3.75c0.19-0.25,0.68-0.92,1.43-0.86c0.51,0.04,0.86,0.4,1.07,0.62l3.69,3.78
			c0.19,0.2,0.19,0.52-0.01,0.71c-0.2,0.19-0.52,0.19-0.71-0.01l-3.69-3.78c-0.11-0.12-0.3-0.31-0.43-0.32
			c-0.09-0.01-0.25,0.07-0.54,0.45c-0.87,1.18-1.58,2.53-2.14,3.62l-0.2,0.38c-0.18,0.34-0.27,0.5-0.4,0.73
			c-0.16,0.27-0.38,0.66-0.88,1.58c-0.35,0.65-0.66,1.22-0.91,1.69c0.32,2.07,3.67,4.69,4.64,4.94c0.27,0.07,0.43,0.34,0.36,0.61
			C250.09,309.61,249.88,309.76,249.66,309.76z"/>
	</g>
	<g>
		<path class="st1" d="M244.68,303.82c-0.08,0-0.15-0.02-0.22-0.05c-0.69-0.32-2.35-4.99-2.36-8.56c-0.01-1.16,1.04-2.7,2.07-3.62
			c0.56-0.5,1.41-1.08,2.26-0.99c1.15,0.13,1.89,1.08,2.5,1.96l1.07,1.56c0.16,0.23,0.1,0.54-0.13,0.7c-0.23,0.16-0.54,0.1-0.7-0.13
			l-1.07-1.56c-0.48-0.7-1.05-1.45-1.78-1.53c-0.36-0.04-0.91,0.24-1.47,0.74c-0.94,0.84-1.74,2.15-1.73,2.87
			c0.01,2.76,0.97,5.69,1.54,7.03c0.21,0.01,0.4,0.16,0.46,0.37c0.13,0.49,0.2,0.86-0.08,1.1
			C244.94,303.78,244.81,303.82,244.68,303.82z M244.22,303.25L244.22,303.25L244.22,303.25z"/>
	</g>
	<g>
		<path class="st1" d="M242.61,295.71c-0.07,0-0.14-0.01-0.21-0.05c-0.47-0.22-0.84-0.69-1.07-1.35c-0.4-1.2-0.2-2.74,0.54-4.12
			c0.12-0.23,0.22-0.47,0.32-0.73c0.29-0.7,0.61-1.5,1.44-1.88l0.38-0.17l0.24,0.34c0.74,1.03,1.59,1.99,2.51,2.87
			c0.2,0.19,0.21,0.51,0.02,0.71c-0.19,0.2-0.51,0.21-0.71,0.02c-0.85-0.8-1.63-1.68-2.34-2.61c-0.26,0.27-0.42,0.67-0.6,1.11
			c-0.11,0.27-0.22,0.55-0.37,0.82c-0.61,1.14-0.79,2.38-0.47,3.32c0.13,0.38,0.33,0.66,0.53,0.76c0.25,0.12,0.36,0.41,0.25,0.67
			C242.98,295.6,242.8,295.71,242.61,295.71z"/>
	</g>
	<g>
		<path class="st1" d="M242.39,290.37c-0.08,0-0.16-0.02-0.24-0.06c-1.5-0.82-1.27-3-1.2-3.72c0.03-0.27,0.08-0.77,0.48-1.08
			c0.26-0.2,0.59-0.26,0.92-0.17c0.54,0.16,0.94,0.69,1.09,1.12c0.03,0.08,0.06,0.16,0.08,0.25c0.12,0.36,0.23,0.73,0.44,0.8
			c0.26,0.09,0.4,0.37,0.31,0.64c-0.09,0.26-0.38,0.4-0.64,0.31c-0.69-0.23-0.91-0.93-1.08-1.44c-0.02-0.08-0.05-0.15-0.07-0.23
			c-0.1-0.28-0.35-0.49-0.44-0.49c-0.02,0.02-0.06,0.11-0.09,0.39c-0.16,1.5,0.06,2.4,0.68,2.73c0.24,0.13,0.33,0.44,0.2,0.68
			C242.74,290.28,242.57,290.37,242.39,290.37z"/>
	</g>
	<g>
		<path class="st1" d="M258.68,302.92c-0.21,0-0.4-0.13-0.48-0.34c-0.6-1.73-2.09-3.04-3.54-4.3l-0.47-0.41
			c-3.99-3.53-7.31-7.69-9.87-12.35l-0.34-0.63l0.71-0.11c2.2-0.33,4.03,1.23,5.68,2.96c0.88,0.93,1.79,1.89,2.65,2.88
			c2.89,3.36,5.16,7.16,6.76,11.28c0.1,0.26-0.03,0.55-0.29,0.65c-0.11,0.04-0.23,0.04-0.33,0.01c-0.05,0.15-0.16,0.28-0.32,0.33
			C258.79,302.91,258.74,302.92,258.68,302.92z M245.62,285.76c2.44,4.27,5.55,8.09,9.25,11.36l0.47,0.41
			c0.91,0.79,1.83,1.6,2.58,2.54c-1.47-3.18-3.37-6.13-5.66-8.79c-0.84-0.97-1.74-1.92-2.61-2.84
			C248.4,287.13,247.06,285.93,245.62,285.76z"/>
	</g>
	<g>
		<path class="st1" d="M263.14,304.5c-0.2,0-0.4-0.12-0.47-0.33c-2.32-6.23-5.5-12.12-9.42-17.5c-0.43-0.59-1.02-1.24-1.63-1.37
			c1.55,6.38,5.9,11.84,10.23,16.9c0.18,0.21,0.16,0.53-0.06,0.71c-0.21,0.18-0.53,0.15-0.71-0.06
			c-4.55-5.31-9.11-11.06-10.58-17.91l-0.1-0.45l0.44-0.13c1.06-0.32,2.14,0.26,3.21,1.73c3.98,5.45,7.2,11.42,9.55,17.74
			c0.1,0.26-0.04,0.55-0.3,0.64C263.26,304.48,263.2,304.5,263.14,304.5z"/>
	</g>
	<g>
		<path class="st1" d="M246.32,325.43c-0.12,0-0.24-0.04-0.34-0.13c-0.21-0.19-0.22-0.5-0.03-0.71c4.97-5.44,8.03-12.47,8.64-19.79
			l0.21-2.58l0.77,2.47c0.46,1.46,0.61,2.98,0.75,4.46l0.38,3.82c0.08-0.52,0.18-1.03,0.29-1.55c0.06-0.27,0.32-0.44,0.6-0.39
			c0.27,0.06,0.45,0.32,0.39,0.59c-0.5,2.36-0.73,4.77-0.7,7.18l-1,0.06l-0.95-9.61c-0.04-0.41-0.08-0.83-0.13-1.25
			c-1.13,6.4-4.09,12.45-8.49,17.27C246.59,325.38,246.46,325.43,246.32,325.43z"/>
	</g>
	<g>
		<path class="st1" d="M264.77,325.31c-0.16,0-0.32-0.08-0.42-0.22c-2.5-3.68-3.04-9.36-3.52-14.37c-0.09-0.91-0.17-1.8-0.27-2.66
			c-0.14,1.07-0.27,2.09-0.41,3.11c0.04,0,0.08,0.01,0.11,0.01c0.28,0.04,0.47,0.29,0.43,0.57c-0.04,0.27-0.29,0.47-0.57,0.43
			c-0.04-0.01-0.07-0.01-0.11,0c-0.25,1.91-0.5,3.86-0.8,6.17l-1-0.06c0-0.78-0.03-1.3-0.05-1.76c-0.03-0.77-0.06-1.38,0.03-2.73
			c0.02-0.37,0.16-1.58,0.88-2.24c0.01-0.1,0.03-0.21,0.04-0.31c0.28-2.17,0.57-4.34,0.91-6.98l0.4-3.1l0.6,3.07
			c0.37,1.92,0.58,4.09,0.8,6.39c0.49,5.13,1,10.43,3.35,13.9c0.16,0.23,0.1,0.54-0.13,0.7
			C264.96,325.28,264.86,325.31,264.77,325.31z"/>
	</g>
	<g>
		<path class="st1" d="M275.77,324.81c-1.37-1.52-2.66-3.11-3.87-4.76l-4.65-5.72c-0.17-0.22-0.14-0.53,0.07-0.71
			c0.18-0.15,0.44-0.15,0.62-0.01c0.04-0.12,0.12-0.23,0.24-0.29c0.24-0.14,0.55-0.05,0.69,0.19c1.16,2.05,2.44,4.03,3.83,5.93
			l3.83,4.72L275.77,324.81z"/>
	</g>
	<g>
		<path class="st1" d="M256.01,297.39c-0.06,0-0.12-0.02-0.17-0.06c-3.22-2.8-5.91-6.29-7.8-10.1c-0.06-0.12-0.01-0.27,0.11-0.34
			c0.12-0.06,0.28-0.01,0.34,0.11c1.86,3.76,4.51,7.19,7.68,9.95c0.1,0.09,0.12,0.25,0.02,0.35
			C256.15,297.36,256.08,297.39,256.01,297.39z"/>
	</g>
	<g>
		<path class="st1" d="M261.68,302.59c-0.08,0-0.15-0.03-0.2-0.1c-3.63-4.72-6.3-10.26-7.72-16.04c-0.03-0.13,0.05-0.27,0.18-0.3
			c0.14-0.03,0.27,0.05,0.3,0.18c1.4,5.71,4.04,11.19,7.63,15.85c0.08,0.11,0.06,0.27-0.05,0.35
			C261.79,302.57,261.74,302.59,261.68,302.59z"/>
	</g>
	<g>
		<path class="st1" d="M248.38,288.66c-0.02,0-0.04,0-0.07-0.01L247,288.3c-0.13-0.04-0.21-0.17-0.18-0.31s0.17-0.21,0.31-0.18
			l1.31,0.35c0.13,0.04,0.21,0.17,0.18,0.31C248.59,288.58,248.49,288.66,248.38,288.66z"/>
	</g>
	<g>
		<path class="st1" d="M251.14,293.56c-0.17,0-0.33-0.02-0.5-0.05c-0.14-0.03-0.22-0.16-0.19-0.3c0.03-0.14,0.16-0.22,0.3-0.19
			c0.5,0.1,1.03,0.01,1.46-0.27c0.12-0.08,0.27-0.04,0.35,0.07c0.08,0.12,0.04,0.27-0.07,0.35
			C252.08,293.42,251.61,293.56,251.14,293.56z"/>
	</g>
	<g>
		<path class="st1" d="M254.94,290.27c-0.06,0-0.13-0.02-0.18-0.07l-2.32-2.27c-0.1-0.1-0.1-0.26,0-0.35c0.1-0.1,0.26-0.1,0.36,0
			l2.32,2.27c0.1,0.1,0.1,0.26,0,0.35C255.07,290.25,255.01,290.27,254.94,290.27z"/>
	</g>
	<g>
		<path class="st1" d="M259.53,298.16c-0.05,0-0.09-0.01-0.13-0.04l-1.62-1.01c-0.12-0.07-0.15-0.23-0.08-0.35
			c0.07-0.12,0.23-0.15,0.35-0.08l1.62,1.01c0.12,0.07,0.15,0.23,0.08,0.35C259.7,298.12,259.62,298.16,259.53,298.16z"/>
	</g>
	<g>
		<path class="st1" d="M266.43,314.58l-0.17-0.3c-0.41-0.72-0.43-1.67-0.03-2.4c0.4-0.73,1.19-1.24,2.03-1.29
			c0.14-0.01,0.26,0.1,0.27,0.24c0,0,0,0.01,0,0.01c0.27,0.19,0.37,0.56,0.3,0.86c-0.08,0.33-0.31,0.59-0.49,0.79L266.43,314.58z
			 M268.04,311.13c-0.57,0.11-1.09,0.49-1.37,1c-0.26,0.48-0.3,1.07-0.13,1.58l1.41-1.55c0.15-0.17,0.33-0.36,0.37-0.57
			c0.04-0.15-0.04-0.33-0.14-0.36C268.12,311.21,268.07,311.18,268.04,311.13z"/>
	</g>
	<g>
		<path class="st1" d="M239.11,330.14c-0.1,0-0.19-0.05-0.23-0.15c-0.06-0.13,0-0.27,0.13-0.33c2.87-1.29,5.47-3.06,7.72-5.24
			c0.1-0.1,0.26-0.09,0.36,0c0.1,0.1,0.09,0.26,0,0.35c-2.3,2.23-4.94,4.02-7.87,5.34C239.18,330.14,239.14,330.14,239.11,330.14z"
			/>
	</g>
	<g>
		<path class="st1" d="M272.93,331.14c-0.03,0-0.06-0.01-0.09-0.02c-3.17-1.25-6.01-3.48-7.98-6.25c-0.08-0.11-0.05-0.27,0.06-0.35
			c0.11-0.08,0.27-0.05,0.35,0.06c1.91,2.7,4.67,4.86,7.75,6.08c0.13,0.05,0.19,0.2,0.14,0.33
			C273.12,331.08,273.03,331.14,272.93,331.14z"/>
	</g>
	<g>
		<path class="st1" d="M276.47,319.28c-0.05,0-0.09-0.01-0.13-0.04c-2.61-1.65-5.15-3.47-7.55-5.41c-0.11-0.09-0.12-0.25-0.04-0.35
			c0.09-0.11,0.25-0.12,0.35-0.04c2.38,1.93,4.91,3.74,7.5,5.38c0.12,0.07,0.15,0.23,0.08,0.35
			C276.64,319.24,276.56,319.28,276.47,319.28z"/>
	</g>
	<g>
		<path class="st1" d="M275.58,320.34c-0.05,0-0.1-0.02-0.15-0.05c-2.42-1.74-4.5-3.88-6.17-6.34c-0.08-0.11-0.05-0.27,0.07-0.35
			s0.27-0.05,0.35,0.07c1.64,2.42,3.67,4.51,6.05,6.22c0.11,0.08,0.14,0.24,0.06,0.35C275.74,320.31,275.66,320.34,275.58,320.34z"
			/>
	</g>
	<g>
		<path class="st1" d="M268.88,310.84c-0.14,0-0.25-0.11-0.25-0.25v-0.18c0-0.14,0.11-0.25,0.25-0.25c0.14,0,0.25,0.11,0.25,0.25
			v0.18C269.13,310.73,269.02,310.84,268.88,310.84z"/>
	</g>
	<g>
		<path class="st1" d="M261.3,319.01c-0.06,0-0.12,0-0.18-0.01l-0.55-0.04l1.11-6.44c0.05-0.27,0.31-0.46,0.58-0.41
			c0.27,0.05,0.46,0.31,0.41,0.58l-0.91,5.25c0.36-0.09,0.73-0.27,1.11-0.47c4.14-2.15,7.99-4.82,11.45-7.94
			c0.21-0.19,0.52-0.17,0.71,0.04c0.19,0.21,0.17,0.52-0.04,0.71c-3.52,3.18-7.45,5.89-11.66,8.08
			C262.71,318.69,262.04,319.01,261.3,319.01z"/>
	</g>
	<g>
		<path class="st1" d="M279.06,318.63c-0.17,0-0.34-0.09-0.43-0.24c-1.53-2.51-3.01-5.1-4.39-7.69c-0.13-0.24-0.04-0.55,0.21-0.68
			c0.25-0.13,0.55-0.04,0.68,0.21c1.37,2.58,2.84,5.15,4.36,7.64c0.14,0.24,0.07,0.55-0.17,0.69
			C279.24,318.61,279.15,318.63,279.06,318.63z"/>
	</g>
	<g>
		<path class="st1" d="M286.83,325.15c-0.04,0-0.08-0.01-0.11-0.03c-3.1-1.58-5.8-3.92-7.82-6.75c-0.08-0.11-0.05-0.27,0.06-0.35
			c0.11-0.08,0.27-0.05,0.35,0.06c1.97,2.77,4.61,5.05,7.63,6.6c0.12,0.06,0.17,0.21,0.11,0.34
			C287.01,325.1,286.93,325.15,286.83,325.15z"/>
	</g>
	<g>
		<path class="st1" d="M293.65,327.58c-0.02,0-0.04,0-0.07-0.01c-2.24-0.61-4.44-1.43-6.52-2.45l-0.02,0.22
			c-0.01,0.14-0.14,0.24-0.27,0.23c-0.14-0.01-0.24-0.14-0.23-0.27l0.09-0.95l0.33,0.16c2.16,1.08,4.43,1.94,6.76,2.58
			c0.13,0.04,0.21,0.17,0.18,0.31C293.86,327.51,293.76,327.58,293.65,327.58z"/>
	</g>
	<g>
		<path class="st1" d="M231.32,330.69c-0.08,0-0.16-0.04-0.21-0.11c-0.08-0.11-0.05-0.27,0.07-0.35c1.33-0.9,2.95-0.77,4.52-0.64
			c1.08,0.09,2.19,0.18,3.19-0.06c0.14-0.03,0.27,0.05,0.3,0.18c0.03,0.13-0.05,0.27-0.19,0.3c-1.08,0.26-2.24,0.17-3.35,0.07
			c-1.55-0.13-3.01-0.25-4.2,0.55C231.42,330.68,231.37,330.69,231.32,330.69z"/>
	</g>
	<g>
		<path class="st1" d="M276.26,332.4c-0.03,0-0.07-0.01-0.1-0.02l-2.96-1.28c-0.13-0.06-0.19-0.2-0.13-0.33
			c0.06-0.13,0.2-0.19,0.33-0.13l2.96,1.28c0.13,0.06,0.19,0.2,0.13,0.33C276.45,332.35,276.36,332.4,276.26,332.4z"/>
	</g>
	<g>
		<path class="st1" d="M268.97,310.03c-0.05,0-0.1-0.02-0.15-0.05c-0.11-0.08-0.13-0.24-0.05-0.35c2.06-2.76,5.04-4.79,8.37-5.7
			c0.13-0.04,0.27,0.04,0.31,0.18c0.04,0.13-0.04,0.27-0.18,0.31c-3.23,0.88-6.1,2.84-8.1,5.52
			C269.12,310,269.04,310.03,268.97,310.03z"/>
	</g>
	<g>
		<path class="st1" d="M269.3,310.2c-0.09,0-0.17-0.04-0.22-0.12c-0.07-0.12-0.03-0.27,0.09-0.34l5.11-3.06
			c0.12-0.07,0.27-0.03,0.35,0.09c0.07,0.12,0.03,0.27-0.09,0.34l-5.11,3.06C269.39,310.18,269.35,310.2,269.3,310.2z"/>
	</g>
	<g>
		<path class="st1" d="M280.92,328.36c-0.04,0-0.08-0.01-0.11-0.04c-1.77-1.31-3.52-2.68-5.2-4.1c-0.08-0.07-0.09-0.19-0.02-0.27
			c0.07-0.08,0.19-0.09,0.27-0.02c1.67,1.41,3.42,2.78,5.18,4.09c0.08,0.06,0.1,0.18,0.04,0.26
			C281.03,328.33,280.98,328.36,280.92,328.36z"/>
	</g>
</g>
<g>
	<g>
		<path class="st1" d="M318.33,332.3l-0.21-0.89c-0.74-3.12,0.53-6.03,1.76-8.84c0.69-1.58,1.4-3.21,1.72-4.82
			c0.76-3.87-0.71-7.87-2.13-11.74c-0.24-0.66-0.48-1.31-0.71-1.96c-2.26-6.43-2.08-11.44,0.53-14.88c1.36-1.79,3.24-2.87,5.16-2.96
			c0.49-0.02,0.9,0.36,0.93,0.85c0,0.01,0,0.03,0,0.04c0.05,0.03,0.09,0.07,0.14,0.1c1.07,0.83,1.79,2.39,1.79,3.88
			c0,0.62-0.06,1.23-0.13,1.83c-0.12,1.19-0.24,2.31,0.19,3.22c0.27,0.58,0.77,1.08,1.29,1.62l0.16,0.16
			c4.55,4.66,8.8,12.69,5.83,19.99c-1.55,3.82-4.75,6.64-7.57,9.14c-2.21,1.95-4.71,4.16-7.89,5.02L318.33,332.3z M322.99,288.39
			c-0.85,0.38-1.65,1.03-2.29,1.88c-2.22,2.93-2.31,7.37-0.27,13.19c0.23,0.64,0.46,1.29,0.7,1.93c1.5,4.1,3.06,8.34,2.2,12.71
			c-0.35,1.8-1.11,3.53-1.84,5.2c-1.01,2.32-1.98,4.53-1.81,6.73c2.38-0.92,4.42-2.72,6.24-4.33c2.67-2.36,5.7-5.04,7.1-8.47
			c2.64-6.5-1.29-13.79-5.45-18.06l-0.16-0.16c-0.61-0.62-1.23-1.25-1.63-2.11c-0.65-1.37-0.5-2.8-0.35-4.18
			c0.06-0.57,0.12-1.11,0.12-1.63c0-0.94-0.46-1.97-1.1-2.46c-0.32-0.25-0.64-0.32-0.98-0.23
			C323.31,288.44,323.14,288.43,322.99,288.39z"/>
	</g>
	<g>
		<path class="st1" d="M327.46,321.04c-0.07,0-0.13-0.01-0.2-0.03c-0.23-0.06-0.41-0.2-0.53-0.41c-0.24-0.43-0.09-1.01-0.01-1.24
			c1.15-3.52,0.51-7.85-1.79-12.19l-0.24-0.45c-0.59-1.1-1.21-2.24-1.31-3.53c-0.12-1.54,0.77-3.36,2.44-3.62
			c0.24-0.04,0.47,0.13,0.51,0.37c0.04,0.24-0.13,0.47-0.37,0.51c-1.13,0.18-1.79,1.52-1.7,2.67c0.09,1.1,0.66,2.15,1.21,3.17
			l0.25,0.46c2.42,4.56,3.08,9.14,1.85,12.9c-0.08,0.25-0.08,0.44-0.06,0.51c0.01-0.02,0.07-0.04,0.19-0.13
			c1.46-1.07,2.45-2.87,2.77-5.06c0.29-1.99,0.04-4.01-0.28-6.08c-0.24-1.61-0.52-3.16-1.2-4.52c-0.76-1.5-1.96-2.54-3.3-2.86
			c-0.24-0.06-0.39-0.3-0.33-0.54c0.06-0.24,0.29-0.39,0.53-0.33c1.59,0.38,3,1.59,3.88,3.32c0.75,1.47,1.04,3.11,1.29,4.79
			c0.32,2.14,0.59,4.23,0.28,6.34c-0.36,2.43-1.47,4.44-3.13,5.65C328.08,320.83,327.8,321.04,327.46,321.04z M327.5,320.17
			L327.5,320.17L327.5,320.17z"/>
	</g>
	<g>
		<path class="st1" d="M321.45,300.36l-0.86-0.21l0.09-0.52c0.05-0.71-0.24-1.46-0.53-2.24c-0.17-0.45-0.35-0.91-0.46-1.39
			c-0.64-2.6,0.8-5.43,3.21-6.3c0.23-0.08,0.48,0.04,0.57,0.27c0.08,0.23-0.04,0.49-0.27,0.57c-0.02,0.01-0.03,0.01-0.05,0.02
			c0.03,0.08,0.05,0.17,0.03,0.26l-1.62,8.92C321.55,299.95,321.51,300.15,321.45,300.36z M322.24,291.06
			c-1.38,1.03-2.12,2.97-1.69,4.73c0.1,0.42,0.26,0.84,0.43,1.29c0.04,0.1,0.08,0.2,0.11,0.3L322.24,291.06z"/>
	</g>
	<g>
		<path class="st1" d="M323.39,298.98l-0.25-1.01c-0.66-2.6-0.5-5.41,0.43-7.93c0.02-0.06,0.06-0.11,0.1-0.15c0,0,0,0,0,0
			c-0.1-0.22-0.01-0.49,0.21-0.6s0.48-0.01,0.59,0.21c1.28,2.73,1.08,6.03-0.52,8.6L323.39,298.98z M324.13,291.16
			c-0.51,1.74-0.64,3.59-0.37,5.39C324.48,294.85,324.61,292.94,324.13,291.16z"/>
	</g>
	<g>
		<path class="st1" d="M325.87,290.85l-4.58-0.3l0.22-0.57c0.33-0.85,1.06-1.54,1.93-1.86c0.01-0.01,0.02-0.02,0.04-0.04
			c0.12-0.11,0.27-0.14,0.41-0.1c0.12-0.03,0.23-0.04,0.35-0.06c0.24-0.02,0.46,0.16,0.48,0.4c0.01,0.15-0.04,0.28-0.14,0.38
			c0.34,0.45,0.65,0.93,0.91,1.43L325.87,290.85z M322.67,289.74l1.64,0.11c-0.19-0.3-0.4-0.59-0.63-0.86
			C323.28,289.15,322.93,289.41,322.67,289.74z"/>
	</g>
	<g>
		<path class="st1" d="M322.19,303.81c-0.65,0-1.31-0.1-1.92-0.31l-0.6-0.2l0.39-0.5c0.46-0.59,1.14-1.02,1.87-1.2
			c0.09-0.08,0.22-0.13,0.35-0.11c0.05,0.01,0.11,0.02,0.16,0.02c0.06,0,0.12,0.01,0.17,0.03c0.29,0.06,0.61,0.16,0.87,0.38
			c0.25,0.22,0.41,0.56,0.4,0.89c0,0.28-0.12,0.54-0.33,0.71c-0.21,0.17-0.46,0.22-0.69,0.25
			C322.64,303.8,322.41,303.81,322.19,303.81z M321.3,302.84c0.49,0.08,0.98,0.1,1.47,0.04c0.16-0.02,0.21-0.04,0.23-0.05
			c0.01-0.02-0.01-0.14-0.09-0.21c-0.12-0.1-0.31-0.16-0.5-0.19C322.01,302.48,321.63,302.62,321.3,302.84z"/>
	</g>
	<g>
		<path class="st1" d="M324.4,308.47l-0.47-0.09c-0.87-0.16-1.4-1.04-1.42-2.35c0-0.21-0.01-0.77,0.41-1.09
			c0.32-0.24,0.75-0.15,0.99,0.06c0.24,0.21,0.3,0.53,0.16,0.79c-0.01,0.01-0.01,0.02-0.02,0.04c0.33,0.66,0.47,1.42,0.4,2.15
			L324.4,308.47z"/>
	</g>
	<g>
		<path class="st1" d="M324.96,312.93l-0.34-0.24c-0.65-0.46-0.67-0.91-0.58-1.2c0.07-0.22,0.25-0.37,0.47-0.41
			c-0.06-0.19,0-0.4,0.17-0.52c0.2-0.14,0.48-0.08,0.61,0.12c0.38,0.57,0.35,1.38-0.08,1.92L324.96,312.93z M324.63,311.42
			C324.63,311.42,324.63,311.42,324.63,311.42C324.63,311.42,324.63,311.42,324.63,311.42z"/>
	</g>
	<g>
		<path class="st1" d="M321.42,327.2c-0.38,0-0.73-0.12-1-0.36c-0.41-0.35-0.59-0.93-0.47-1.5c0.12-0.59,0.51-1.06,1.03-1.23
			l0.14,0.43l-0.14-0.43c0.52-0.17,1.13-0.02,1.58,0.39c0.44,0.4,0.63,0.94,0.53,1.46c-0.11,0.52-0.51,0.95-1.07,1.14
			C321.81,327.16,321.61,327.2,321.42,327.2z M321.25,324.95c-0.26,0.08-0.39,0.34-0.44,0.56c-0.04,0.2-0.01,0.48,0.18,0.65
			c0.21,0.18,0.52,0.16,0.74,0.09c0.2-0.07,0.44-0.23,0.49-0.48c0.05-0.24-0.1-0.47-0.25-0.61
			C321.8,325,321.52,324.87,321.25,324.95L321.25,324.95z"/>
	</g>
	<g>
		<path class="st1" d="M323.66,322.51c-0.54,0-1.05-0.4-1.16-0.94c-0.12-0.59,0.29-1.21,0.88-1.35c0.1-0.02,0.21-0.01,0.29,0.03
			c0.1,0.01,0.21,0.04,0.3,0.09l0.22,0.13l0,1.97l-0.38,0.05C323.76,322.5,323.71,322.51,323.66,322.51z"/>
	</g>
	<g>
		<path class="st1" d="M325.17,324.44c-0.26,0-0.48-0.15-0.57-0.38c-0.1-0.25-0.01-0.53,0.21-0.7c0.23-0.18,0.52-0.19,0.74-0.03
			c0.1,0.07,0.16,0.18,0.18,0.29c0.06,0.1,0.09,0.22,0.06,0.34c-0.05,0.26-0.28,0.45-0.56,0.47
			C325.21,324.44,325.19,324.44,325.17,324.44z"/>
	</g>
</g>
<g>
	<path class="st2" d="M378.89,291.45c-10.56,0-19.11,8.55-19.11,19.1s8.56,19.1,19.11,19.1c10.56,0,19.11-8.55,19.11-19.1
		S389.44,291.45,378.89,291.45z M378.56,322.66c-6.54,0-11.85-5.3-11.85-11.85c0-6.54,5.3-11.85,11.85-11.85s11.85,5.3,11.85,11.85
		C390.4,317.36,385.1,322.66,378.56,322.66z"/>
	<circle class="st3" cx="378.56" cy="310.81" r="11.85"/>
	<path class="st4" d="M378.56,330.24c-10.88,0-19.74-8.85-19.74-19.74s8.85-19.74,19.74-19.74c10.88,0,19.74,8.85,19.74,19.74
		S389.44,330.24,378.56,330.24z M378.56,292.03c-10.18,0-18.47,8.28-18.47,18.47c0,10.18,8.28,18.47,18.47,18.47
		c10.18,0,18.47-8.28,18.47-18.47C397.02,300.31,388.74,292.03,378.56,292.03z"/>
	<path class="st5" d="M388.93,305.4c-0.78-1.38-2.6-2.16-4.19-2.17c-1.58-0.01-3.11,0.59-4.5,1.34c-2.07,1.12-3.98,2.65-5.14,4.7
		c-2.11,3.73-1.11,8.92,2.23,11.61c3.34,2.69,8.62,2.55,11.82-0.31c1-0.9,1.81-2.04,2.12-3.35c0.31-1.31,0.06-2.78-0.83-3.79
		c-1.04,1.11-1.23,2.81-2.26,3.92c-1.04,1.13-2.78,1.42-4.26,1.02c-1.48-0.4-2.74-1.4-3.78-2.53c-0.95-1.02-1.8-2.25-1.91-3.64
		c-0.2-2.5,2.06-4.6,4.45-5.37c1.11-0.36,2.31-0.52,3.43-0.2c1.12,0.32,2.12,1.2,2.35,2.34c0.72,0.2,1.41-0.56,1.44-1.31
		c0.03-0.75-0.39-1.43-0.78-2.06"/>
	<path class="st6" d="M383.03,323.12c-2.13,0-4.25-0.66-5.9-1.99c-3.45-2.77-4.48-8.16-2.31-12.01c1.07-1.89,2.84-3.51,5.27-4.83
		c1.76-0.95,3.23-1.39,4.65-1.38c1.51,0.01,3.56,0.75,4.46,2.34c0.01,0.02,0.02,0.03,0.02,0.05c0.06,0.02,0.12,0.07,0.16,0.13
		c0.4,0.66,0.85,1.4,0.82,2.24c-0.02,0.53-0.31,1.07-0.74,1.38c-0.34,0.25-0.73,0.33-1.11,0.22l-0.19-0.05l-0.04-0.19
		c-0.19-0.94-1.05-1.79-2.13-2.1c-0.93-0.26-2.02-0.2-3.24,0.2c-2.24,0.73-4.41,2.69-4.23,5.04c0.09,1.1,0.68,2.22,1.82,3.45
		c1.21,1.3,2.4,2.1,3.63,2.44c1.48,0.4,3.06,0.03,3.94-0.93c0.48-0.51,0.76-1.17,1.06-1.86c0.31-0.72,0.64-1.46,1.2-2.06l0.24-0.26
		l0.23,0.26c0.9,1.03,1.24,2.59,0.9,4.07c-0.3,1.27-1.07,2.48-2.22,3.52C387.64,322.34,385.34,323.12,383.03,323.12z M384.7,303.55
		c-1.29,0-2.66,0.41-4.3,1.3c-2.32,1.26-4.01,2.8-5.02,4.58c-2.03,3.59-1.06,8.62,2.15,11.2c3.21,2.59,8.33,2.45,11.4-0.3
		c0.74-0.66,1.68-1.75,2.02-3.19c0.27-1.15,0.07-2.34-0.53-3.21c-0.35,0.46-0.59,1.01-0.84,1.59c-0.31,0.71-0.63,1.45-1.18,2.04
		c-1.06,1.15-2.85,1.58-4.58,1.11c-1.35-0.37-2.64-1.23-3.93-2.62c-1.24-1.34-1.89-2.59-1.99-3.83c-0.21-2.68,2.18-4.9,4.66-5.7
		c1.35-0.44,2.57-0.51,3.62-0.21c1.24,0.36,2.21,1.27,2.52,2.36c0.16,0,0.29-0.08,0.39-0.15c0.27-0.2,0.46-0.56,0.47-0.89
		c0.02-0.65-0.36-1.28-0.73-1.89c-0.01-0.02-0.02-0.04-0.03-0.06c-0.07-0.03-0.13-0.07-0.16-0.14c-0.78-1.37-2.57-2-3.91-2.01
		C384.73,303.55,384.71,303.55,384.7,303.55z"/>
	<path class="st5" d="M391.47,309.86c-1.02-0.7-3.23-0.31-3.79,0.8c-0.21,0.41-0.26,0.97,0.07,1.29c0.18,0.18,0.43,0.25,0.67,0.32
		c0.71,0.2,1.44,0.39,2.18,0.33c0.73-0.07,1.49-0.46,1.77-1.14s-0.09-1.62-0.82-1.74"/>
	<path class="st6" d="M390.31,312.92c-0.69,0-1.36-0.18-1.96-0.35c-0.24-0.07-0.57-0.16-0.81-0.4c-0.45-0.44-0.39-1.15-0.13-1.66
		c0.28-0.55,0.91-0.99,1.73-1.2c0.82-0.21,1.65-0.16,2.26,0.13c0.07-0.04,0.15-0.06,0.23-0.05c0.4,0.07,0.75,0.33,0.96,0.72
		c0.25,0.45,0.29,1.01,0.1,1.46c-0.3,0.72-1.1,1.25-2.04,1.33C390.53,312.92,390.41,312.92,390.31,312.92z M390.12,309.83
		c-0.27,0-0.56,0.03-0.84,0.11c-0.63,0.16-1.12,0.49-1.32,0.87c-0.15,0.29-0.21,0.71,0.01,0.92c0.12,0.11,0.3,0.17,0.53,0.24
		c0.68,0.19,1.38,0.38,2.06,0.31c0.7-0.06,1.29-0.44,1.51-0.95c0.11-0.27,0.09-0.63-0.07-0.91c-0.05-0.1-0.16-0.24-0.32-0.33
		c-0.11,0.1-0.28,0.12-0.4,0.03C391.01,309.93,390.59,309.83,390.12,309.83z"/>
	<path class="st6" d="M368.17,317.19c-0.22,0-0.43-0.11-0.55-0.31c-1.15-2-1.69-4.07-1.61-6.16c0.21-5.33,4.86-12.71,13.04-12.71
		h0.07c0.62-0.01,2.28-0.01,4.28,0.73c0.33,0.12,0.49,0.48,0.37,0.81c-0.12,0.33-0.48,0.49-0.81,0.37
		c-1.79-0.66-3.27-0.65-3.84-0.65h-0.08c-7.4,0-11.6,6.68-11.79,11.5c-0.07,1.85,0.41,3.69,1.44,5.48c0.17,0.3,0.07,0.69-0.23,0.86
		C368.38,317.16,368.28,317.19,368.17,317.19z"/>
</g>
<g>
	<path class="st1" d="M433.39,329.01c-0.48,0-0.94-0.08-1.35-0.25c-1.88-0.75-2.79-3.02-2.48-6.21c0.16-1.67,0.43-3.37,0.7-5.02
		c0.68-4.19,1.32-8.15,0.27-12.01c-0.57-2.08-1.6-3.98-2.63-5.72c-1.21-2.04-3.45-5.82-1.49-8.76c1.35-2.02,2.96-2.87,4.79-2.55
		c5.15,0.91,9.87,11.16,10.49,13.7c1.32,5.41,0.75,10.97,0.11,15.21c-0.92,6.07-3,9.72-6.34,11.16
		C434.74,328.86,434.04,329.01,433.39,329.01z M430.47,289.74c-1.09,0-2.07,0.67-2.98,2.03l0,0c-1.32,1.98-0.05,4.7,1.53,7.36
		c1.03,1.73,2.16,3.81,2.77,6.05c1.13,4.14,0.43,8.42-0.24,12.57c-0.26,1.62-0.53,3.3-0.69,4.93c-0.11,1.22-0.18,4.13,1.66,4.87
		c0.88,0.35,1.88,0.03,2.41-0.2c2.89-1.24,4.71-4.56,5.56-10.14c0.62-4.12,1.18-9.52-0.09-14.7c-0.68-2.78-5.24-11.97-9.44-12.71
		C430.8,289.75,430.63,289.74,430.47,289.74z M426.95,291.4L426.95,291.4L426.95,291.4z"/>
	<path class="st1" d="M460.09,330.03c-0.87,0-1.73-0.2-2.53-0.66c-1.96-1.13-2.88-3.35-3.52-5.37c-3.61-11.44-3.28-23.98,0.95-35.31
		c0.52-1.38,1.18-2.94,2.57-3.84c0.85-0.55,1.99-0.71,2.97-0.4c0.79,0.25,1.38,0.77,1.67,1.46c0.02,0.04,0.03,0.08,0.04,0.12
		c1.2,1.43,1.91,3.46,1.99,5.78c0.06,1.74-0.21,3.46-0.46,5.13c-0.11,0.74-0.23,1.48-0.31,2.22c-0.44,3.83-0.12,7.82,0.94,11.52
		c0.28,1,0.63,2.01,0.96,2.98c0.55,1.59,1.11,3.24,1.45,4.94c0.46,2.34,0.63,5.7-1.21,8.43
		C464.43,328.76,462.25,330.03,460.09,330.03z M459.5,285.6c-0.43,0-0.87,0.12-1.22,0.35c-1.05,0.69-1.62,2.01-2.06,3.2
		c-4.12,11.05-4.45,23.29-0.93,34.45c0.56,1.78,1.35,3.73,2.92,4.63c2.12,1.22,5.02-0.04,6.3-1.93c1.24-1.84,1.6-4.48,1.01-7.44
		c-0.32-1.61-0.87-3.22-1.4-4.77c-0.34-0.99-0.69-2.01-0.98-3.05c-1.11-3.87-1.45-8.04-0.98-12.04c0.09-0.76,0.2-1.52,0.32-2.27
		c0.26-1.68,0.5-3.27,0.45-4.89c-0.09-2.62-1.06-4.76-2.66-5.88c-0.11-0.08-0.19-0.18-0.24-0.3
		C459.85,285.62,459.68,285.6,459.5,285.6z"/>
	<path class="st1" d="M436.91,303.5h-0.35c-0.18,0-0.33-0.15-0.33-0.33c0-0.18,0.15-0.33,0.33-0.33h0.35c0.18,0,0.33,0.15,0.33,0.33
		C437.24,303.35,437.09,303.5,436.91,303.5z"/>
	<path class="st1" d="M436.66,312.23C436.66,312.23,436.66,312.23,436.66,312.23c-1.46,0-2.3-1.6-2.48-3.18
		c-0.18-1.62-0.08-3.25,0.3-4.84c0.11-0.48,0.27-0.96,0.66-1.3c0.25-0.22,0.62-0.33,0.95-0.29c0.28,0.03,0.52,0.17,0.67,0.38
		c0.1,0.15,0.07,0.35-0.08,0.46c-0.15,0.1-0.35,0.07-0.46-0.08c-0.05-0.07-0.14-0.1-0.21-0.11c-0.15-0.02-0.33,0.04-0.44,0.13
		c-0.23,0.2-0.35,0.53-0.45,0.95c-0.36,1.51-0.46,3.06-0.29,4.61c0.14,1.25,0.77,2.6,1.82,2.6c0,0,0,0,0,0
		c0.92,0,1.53-1.04,1.69-1.36c1.18-2.29,0.59-5.4-1.35-7.09c-0.14-0.12-0.15-0.33-0.03-0.46c0.12-0.14,0.33-0.15,0.46-0.03
		c2.19,1.91,2.84,5.31,1.5,7.89C438.67,311.03,437.91,312.23,436.66,312.23z"/>
	<path class="st1" d="M434.65,301.15c-0.03,0-0.05,0-0.08,0c-0.22-0.03-0.4-0.18-0.45-0.39c-0.05-0.2,0.03-0.42,0.22-0.55
		c0.18-0.13,0.42-0.14,0.59-0.03c0.12,0.08,0.17,0.21,0.14,0.34c0.08,0.1,0.1,0.25,0.03,0.37
		C435.02,301.06,434.84,301.15,434.65,301.15z M434.53,300.57C434.53,300.57,434.53,300.57,434.53,300.57
		C434.53,300.57,434.53,300.57,434.53,300.57z"/>
	<path class="st1" d="M433.28,303.84c-0.09,0-0.19-0.02-0.28-0.06c-0.24-0.1-0.4-0.31-0.43-0.55c-0.03-0.24,0.08-0.48,0.29-0.63
		c0.21-0.16,0.47-0.19,0.69-0.1c0.09,0.04,0.15,0.11,0.18,0.2c0.1,0.11,0.16,0.25,0.18,0.4c0.03,0.21-0.04,0.42-0.18,0.57
		C433.6,303.78,433.44,303.84,433.28,303.84z M433.25,303.13c-0.01,0.01-0.02,0.02-0.02,0.03c0.01,0.01,0.06,0.03,0.08,0.02
		C433.28,303.17,433.26,303.15,433.25,303.13z"/>
	<path class="st1" d="M438,302.43c-0.05,0-0.1,0-0.15-0.01c-0.45-0.08-0.82-0.48-0.89-0.95c-0.05-0.32,0.05-0.63,0.25-0.82
		c0.27-0.26,0.71-0.29,0.98-0.05c0.01,0.01,0.03,0.03,0.04,0.04c0.21,0.04,0.41,0.16,0.55,0.34c0.15,0.2,0.22,0.45,0.18,0.68
		c-0.04,0.23-0.17,0.44-0.38,0.59C438.4,302.37,438.2,302.43,438,302.43z M437.74,301.09c-0.02,0-0.05,0.01-0.07,0.03
		c-0.05,0.05-0.08,0.15-0.06,0.26c0.03,0.19,0.18,0.37,0.35,0.39c0.08,0.01,0.17-0.01,0.24-0.06c0.06-0.04,0.1-0.1,0.11-0.16
		c0.01-0.05-0.01-0.12-0.05-0.17c-0.04-0.05-0.1-0.09-0.15-0.1c-0.09-0.01-0.18-0.06-0.23-0.13c-0.04-0.01-0.08-0.04-0.12-0.07
		C437.75,301.09,437.74,301.09,437.74,301.09z"/>
	<path class="st1" d="M434.07,313.68c-0.24,0-0.47-0.14-0.6-0.38c-0.15-0.29-0.11-0.62,0.11-0.82c0.11-0.1,0.26-0.14,0.41-0.13
		c0.08-0.04,0.17-0.05,0.26-0.02c0.28,0.08,0.47,0.36,0.46,0.68c-0.01,0.33-0.21,0.59-0.49,0.66
		C434.16,313.67,434.12,313.68,434.07,313.68z"/>
	<path class="st1" d="M436.65,314.68c-0.2,0-0.41-0.08-0.58-0.23c-0.25-0.22-0.37-0.54-0.32-0.85c0.04-0.26,0.19-0.48,0.43-0.64
		c0.25-0.17,0.56-0.24,0.84-0.18c0.18,0.03,0.29,0.21,0.26,0.39c-0.01,0.05-0.03,0.1-0.06,0.14c0.14,0.14,0.21,0.35,0.2,0.58
		c-0.01,0.36-0.23,0.67-0.54,0.76C436.8,314.67,436.73,314.68,436.65,314.68z M436.53,313.52c-0.05,0.04-0.11,0.1-0.13,0.2
		c-0.01,0.08,0.03,0.17,0.11,0.24c0.02,0.02,0.1,0.08,0.18,0.06c0.04-0.01,0.08-0.08,0.08-0.16c0-0.05-0.01-0.1-0.03-0.11
		C436.62,313.72,436.55,313.63,436.53,313.52z"/>
	<path class="st1" d="M439,312.64c-0.24-0.01-0.4-0.1-0.51-0.24c-0.11-0.14-0.15-0.32-0.12-0.49c0.03-0.17,0.13-0.32,0.29-0.41
		c0.02-0.01,0.04-0.02,0.06-0.03c0.07-0.07,0.17-0.11,0.29-0.09c0.31,0.04,0.55,0.32,0.55,0.63
		C439.55,312.32,439.31,312.6,439,312.64z"/>
	<path class="st1" d="M454.68,304.24l-0.19-0.17c-0.16-0.15-0.25-0.36-0.24-0.6c0.01-0.23,0.13-0.44,0.31-0.56
		c0.15-0.1,0.35-0.07,0.46,0.08c0.01,0.02,0.02,0.03,0.03,0.05c0.03,0.03,0.06,0.06,0.08,0.1c0.18,0.33,0.07,0.76-0.24,0.96
		L454.68,304.24z"/>
	<path class="st1" d="M456.76,302.72c-0.14,0-0.28-0.04-0.4-0.12c-0.15-0.1-0.26-0.25-0.32-0.44c-0.11-0.32-0.04-0.7,0.18-0.99
		c0.1-0.13,0.22-0.24,0.35-0.31c0-0.01,0.01-0.01,0.01-0.02c0.09-0.12,0.24-0.16,0.38-0.11c0.05-0.01,0.11-0.01,0.16-0.01
		c0.18,0.01,0.32,0.16,0.31,0.35c0,0.03-0.01,0.06-0.02,0.09c0.17,0.25,0.25,0.53,0.21,0.8c-0.04,0.3-0.25,0.57-0.54,0.7
		C456.98,302.69,456.86,302.72,456.76,302.72z M456.83,301.46c-0.03,0.03-0.06,0.06-0.09,0.09c-0.09,0.12-0.13,0.27-0.09,0.39
		c0.02,0.05,0.04,0.09,0.07,0.11c0.03,0.02,0.08,0,0.09-0.01c0.08-0.04,0.15-0.11,0.16-0.19
		C456.99,301.72,456.93,301.58,456.83,301.46z"/>
	<path class="st1" d="M459.42,303.49c-0.15,0-0.29-0.05-0.41-0.14l-0.08-0.1c-0.13-0.24-0.13-0.53-0.02-0.77
		c0.02-0.07,0.05-0.13,0.11-0.18c0.03-0.04,0.06-0.07,0.1-0.11c0.3-0.27,0.75-0.3,1.08-0.08c0.15,0.1,0.19,0.3,0.09,0.46
		c-0.04,0.07-0.11,0.11-0.17,0.13c0.01,0.05,0.02,0.09,0.01,0.14c0,0.25-0.16,0.48-0.41,0.59
		C459.62,303.46,459.52,303.49,459.42,303.49z"/>
	<path class="st1" d="M458.17,310.77c-0.14,0-0.27-0.09-0.31-0.23c-0.58-1.91-1.37-3.77-2.35-5.51c-0.09-0.16-0.03-0.36,0.13-0.45
		c0.16-0.09,0.36-0.03,0.45,0.13c1,1.79,1.81,3.68,2.41,5.64c0.05,0.17-0.05,0.36-0.22,0.41
		C458.24,310.77,458.21,310.77,458.17,310.77z"/>
	<path class="st1" d="M458.63,310.68c-0.16,0-0.3-0.11-0.32-0.28c-0.35-2.19-0.84-4.39-1.45-6.52l-0.66-2.29l1.25,2.02l-0.15,0.14
		l0.18-0.05c0.62,2.16,1.12,4.38,1.47,6.6c0.03,0.18-0.09,0.35-0.27,0.38C458.67,310.68,458.65,310.68,458.63,310.68z"/>
	<path class="st1" d="M458.64,310.13C458.64,310.13,458.64,310.13,458.64,310.13c-0.18,0-0.33-0.15-0.33-0.33
		c0.01-1.5,0.17-2.99,0.48-4.45c0.02-0.09,0.06-0.27,0.22-0.39c0.13-0.09,0.31-0.11,0.46-0.03l0.18,0.09l0.05,0.27
		c0,0.18-0.14,0.33-0.32,0.33c-0.25,1.37-0.4,2.78-0.41,4.19C458.96,309.99,458.82,310.13,458.64,310.13z"/>
	<path class="st1" d="M456.71,314.2l-0.26-0.24c-0.15-0.13-0.33-0.3-0.43-0.54c-0.14-0.33-0.05-0.7,0.21-0.89
		c0.18-0.13,0.43-0.15,0.63-0.04c0.19,0.1,0.3,0.28,0.3,0.48c0,0.1-0.05,0.2-0.13,0.26c0,0.01,0.01,0.02,0.01,0.02
		c0.07,0.23,0.03,0.48-0.11,0.66L456.71,314.2z"/>
	<path class="st1" d="M459.29,315.38c-0.08,0-0.16-0.02-0.23-0.05c-0.18-0.08-0.31-0.23-0.4-0.45c-0.18-0.45-0.09-1.09,0.39-1.37
		c0.27-0.16,0.63-0.14,0.91,0.04c0.25,0.17,0.38,0.43,0.35,0.71c-0.02,0.16-0.16,0.28-0.31,0.29c0.02,0.25-0.1,0.52-0.31,0.69
		C459.57,315.34,459.43,315.38,459.29,315.38z M459.23,314.4c0,0.09,0.01,0.17,0.04,0.25c0.02,0.06,0.05,0.09,0.05,0.09
		c-0.02-0.02,0.02-0.09,0.02-0.13C459.33,314.54,459.29,314.47,459.23,314.4z"/>
	<path class="st1" d="M461.87,313.52c-0.26,0-0.52-0.12-0.76-0.34c-0.38-0.35-0.62-0.85-0.65-1.37c-0.02-0.38,0.08-0.7,0.29-0.92
		c0.16-0.16,0.39-0.24,0.62-0.25c0.2,0.01,0.38,0.09,0.51,0.23c0.03,0.03,0.05,0.07,0.06,0.11c0.07,0.01,0.14,0.05,0.19,0.11
		c0.25,0.29,0.6,0.68,0.68,1.18c0.05,0.32-0.05,0.68-0.25,0.93c-0.17,0.21-0.41,0.33-0.66,0.33
		C461.88,313.52,461.87,313.52,461.87,313.52z M461.34,311.29c-0.04,0-0.09,0.01-0.12,0.05c-0.08,0.08-0.12,0.23-0.1,0.42
		c0.02,0.35,0.18,0.69,0.44,0.93c0.12,0.11,0.23,0.17,0.32,0.17c0.05,0.01,0.12-0.03,0.17-0.09c0.09-0.1,0.13-0.27,0.11-0.4
		c-0.05-0.29-0.26-0.55-0.53-0.85c-0.04-0.04-0.06-0.09-0.07-0.14c-0.06-0.01-0.13-0.03-0.18-0.07
		C461.37,311.3,461.35,311.29,461.34,311.29z"/>
	<path class="st1" d="M456.97,311.83c-0.08,0-0.16-0.03-0.22-0.08c-0.14-0.12-0.15-0.33-0.03-0.46c0.43-0.49,0.82-0.96,0.82-1.49
		c0-0.18,0.14-0.33,0.33-0.33c0,0,0,0,0,0c0.18,0,0.33,0.15,0.33,0.33c0.01,0.76-0.48,1.37-0.99,1.93
		C457.15,311.79,457.06,311.83,456.97,311.83z"/>
	<path class="st1" d="M458.66,313.02c-0.16,0-0.3-0.12-0.33-0.29l-0.31-2.43c-0.02-0.18,0.1-0.34,0.28-0.37
		c0.19-0.02,0.35,0.11,0.37,0.28l0.31,2.43c0.02,0.18-0.1,0.34-0.28,0.37C458.69,313.02,458.67,313.02,458.66,313.02z"/>
	<path class="st1" d="M459.65,311.46c-0.04,0-0.09-0.01-0.13-0.03c-0.6-0.25-1.08-0.74-1.34-1.34c-0.07-0.17,0.01-0.36,0.17-0.43
		c0.17-0.07,0.36,0.01,0.43,0.17c0.19,0.44,0.55,0.8,0.99,0.99c0.17,0.07,0.25,0.26,0.17,0.43
		C459.9,311.39,459.78,311.46,459.65,311.46z"/>
	<path class="st1" d="M460.81,308.84c-0.1,0-0.2-0.01-0.31-0.04c-0.35-0.1-0.6-0.35-0.69-0.67c-0.09-0.32,0.01-0.66,0.25-0.92
		c0.24-0.26,0.58-0.38,0.91-0.32c0.03,0.01,0.05,0.01,0.08,0.03c0.03,0,0.06,0.01,0.08,0.02c0.31,0.12,0.53,0.4,0.59,0.75
		c0.07,0.35-0.04,0.7-0.28,0.92C461.27,308.76,461.04,308.84,460.81,308.84z M460.79,307.53c-0.1,0-0.19,0.06-0.25,0.12
		c-0.07,0.07-0.13,0.19-0.1,0.3c0.03,0.11,0.14,0.18,0.24,0.21c0.1,0.03,0.23,0.03,0.31-0.05c0.09-0.08,0.1-0.21,0.08-0.31
		c-0.02-0.1-0.08-0.22-0.18-0.26c-0.01,0-0.02-0.01-0.03-0.01c-0.01,0-0.02,0-0.03,0C460.82,307.53,460.81,307.53,460.79,307.53z"/>
	<path class="st1" d="M454.8,308.58c-0.03,0-0.06,0-0.09-0.01l-0.15-0.03l-0.08-0.13c-0.15-0.26-0.19-0.58-0.1-0.87l0.04-0.11
		l0.1-0.06c0.12-0.08,0.26-0.1,0.41-0.06c0.14,0.04,0.26,0.13,0.32,0.25c0.03,0.06,0.04,0.12,0.04,0.17
		c0.07,0.14,0.08,0.32,0.02,0.48C455.21,308.45,455.01,308.58,454.8,308.58z"/>
	<path class="st1" d="M432.83,331.48c-0.31,0-0.62-0.02-0.93-0.07c-3.65-0.56-5.73-4.28-6.64-6.46c-1.22-2.91-2.36-7.24-0.87-11.37
		c0.29-0.81,0.68-1.6,1.06-2.35c0.67-1.34,1.3-2.61,1.45-4.02c0.23-2.19-0.74-4.19-1.77-6.31c-0.83-1.72-1.69-3.49-1.88-5.4
		c-0.41-4.18,3.02-8.36,7.2-8.78c0.18-0.01,0.34,0.11,0.36,0.29c0.02,0.18-0.11,0.34-0.29,0.36c-3.84,0.38-6.99,4.23-6.61,8.06
		c0.18,1.79,1.01,3.51,1.82,5.18c1.02,2.11,2.08,4.29,1.83,6.66c-0.16,1.53-0.85,2.91-1.51,4.25c-0.37,0.74-0.75,1.51-1.03,2.29
		c-1.42,3.93-0.32,8.1,0.85,10.9c0.86,2.04,2.8,5.55,6.13,6.06c4.6,0.69,7.79-4.61,8.66-6.25c3.19-6.02,4.54-13.07,3.81-19.85
		c-0.24-2.25-0.67-4.02-1.33-5.55c-1.23-2.82-3.39-5.1-5.49-7.31c-1.99-2.09-4.62-4.4-7.34-3.69c-0.17,0.05-0.36-0.06-0.4-0.23
		c-0.05-0.18,0.06-0.36,0.23-0.4c3.05-0.8,5.87,1.65,7.99,3.87c2.03,2.14,4.34,4.57,5.61,7.5c0.69,1.6,1.13,3.42,1.38,5.75
		c0.74,6.9-0.64,14.09-3.88,20.23C440.37,326.44,437.34,331.48,432.83,331.48z"/>
	<path class="st1" d="M461.16,331.22c-0.89,0-1.76-0.14-2.57-0.43c-3.42-1.22-5.72-4.68-7.02-10.58
		c-1.59-7.25-2.03-14.68-1.31-22.07c0.28-2.87,0.78-6.2,2.33-9.15c1.36-2.58,5.13-6.36,8.41-6.43c1.61-0.03,2.88,0.75,3.82,2.35l0,0
		c1.12,1.91,1.15,4.29,1.17,6.2l0.07,6.98c0.02,1.62,0.03,3.45,0.9,4.92c0.69,1.15,1.8,1.93,2.97,2.75
		c0.81,0.56,1.64,1.15,2.34,1.87c4.53,4.7,1.28,12.34,0.18,14.57c-1.6,3.24-3.3,5.46-5.34,6.97
		C465.3,330.51,463.17,331.22,461.16,331.22z M461.12,283.22c-0.03,0-0.06,0-0.09,0c-3.03,0.07-6.56,3.64-7.84,6.08
		c-1.5,2.85-1.98,6.1-2.26,8.9c-0.72,7.32-0.29,14.68,1.29,21.87c1.24,5.66,3.4,8.97,6.59,10.11c2.43,0.87,5.46,0.27,7.9-1.55
		c1.95-1.45,3.59-3.59,5.14-6.74c2.17-4.39,3.3-10.33-0.06-13.82c-0.65-0.68-1.46-1.24-2.24-1.78c-1.18-0.82-2.4-1.67-3.16-2.95
		c-0.96-1.62-0.98-3.63-0.99-5.25l-0.07-6.98c-0.02-1.93-0.04-4.11-1.07-5.87C463.47,283.9,462.42,283.22,461.12,283.22z"/>
</g>
<rect x="216.34" y="228.43" class="st7" width="350.25" height="38.92"/>
<rect x="216.34" y="345.18" class="st7" width="350.25" height="38.92"/>
<rect x="480.12" y="275.33" class="st8" width="82.72" height="63.66"/>
<text transform="matrix(1 0 0 1 482.1094 285.2671)"><tspan x="0" y="0" class="st9 st10 st11">Northwestern </tspan><tspan x="22.26" y="16.8" class="st9 st10 st11">University </tspan><tspan x="3.98" y="33.6" class="st9 st10 st11">Malaria Mod</tspan><tspan x="76.44" y="33.6" class="st9 st10 st11">-</tspan><tspan x="51.55" y="50.4" class="st9 st10 st11">eling </tspan></text>
</svg>
