<?xml version="1.0" encoding="utf-8"?>
<!-- Generator: Adobe Illustrator 24.0.0, SVG Export Plug-In . SVG Version: 6.00 Build 0)  -->
<svg version="1.1" id="Layer_1" xmlns="http://www.w3.org/2000/svg" xmlns:xlink="http://www.w3.org/1999/xlink" x="0px" y="0px"
	 viewBox="0 0 792 612" style="enable-background:new 0 0 792 612;" xml:space="preserve">
<style type="text/css">
	.st0{opacity:0.6;fill:#ED2224;}
	.st1{fill:#ED2224;}
	.st2{opacity:0.3;fill:#EA2828;}
	.st3{opacity:0.7;fill:#EA2828;}
	.st4{fill:#EA2928;}
	.st5{fill:#EA2828;}
	.st6{fill:#EC2526;}
	.st7{fill:#B4DDF1;}
	.st8{fill:none;}
	.st9{fill:#EF4136;}
	.st10{font-family:'MyriadPro-Regular';}
	.st11{font-size:7px;}
</style>
<g>
	<path class="st0" d="M322.25,303c0.86,1.73,0.77,4.09-0.07,4.49c-0.63,0.3-1.69-0.48-2.59-1.48c-0.44-0.48-0.77-0.92-0.97-1.27
		c-0.16-0.28-0.66-1.17-0.95-3.38c-0.23-1.72-0.35-2.59,0-2.76c0.41-0.2,1.19,0.62,2.77,2.26
		C321.47,301.94,321.99,302.48,322.25,303z"/>
	<g>
		<path class="st1" d="M329.24,310.71c-0.85,0-1.67-0.49-1.97-1.23c-0.19-0.46-0.16-1.03,0.09-1.51c0.23-0.44,0.61-0.75,1.05-0.85
			c0.14-0.03,0.27,0.06,0.3,0.19c0,0.02,0.01,0.03,0.01,0.05c0.29-0.04,0.6-0.05,0.91,0.04c0.47,0.13,0.95,0.57,0.91,1.14
			c-0.01,0.14-0.06,0.28-0.1,0.39c-0.04,0.13-0.08,0.24-0.07,0.34c0.01,0.05,0.03,0.11,0.06,0.17c0.04,0.1,0.09,0.21,0.1,0.34
			c0.04,0.48-0.42,0.8-0.87,0.89C329.52,310.7,329.38,310.71,329.24,310.71z M328.12,307.81c-0.13,0.1-0.23,0.23-0.32,0.39
			c-0.18,0.35-0.21,0.75-0.07,1.08c0.27,0.64,1.09,1.04,1.83,0.89c0.23-0.05,0.48-0.2,0.47-0.36c0-0.05-0.03-0.11-0.06-0.18
			c-0.04-0.08-0.08-0.18-0.1-0.29c-0.04-0.22,0.03-0.41,0.09-0.58c0.03-0.1,0.06-0.19,0.07-0.27c0.02-0.28-0.26-0.54-0.54-0.61
			c-0.35-0.1-0.75-0.02-1.11,0.05C328.27,307.95,328.17,307.9,328.12,307.81z"/>
	</g>
	<g>
		<path class="st1" d="M328.1,307.39c-0.11,0-0.22-0.08-0.25-0.19c-0.2-0.86-0.76-1.9-1.75-2.25c-0.48-0.17-1.06-0.09-1.52,0.19
			c-0.37,0.23-0.59,0.55-0.64,0.92c-0.02,0.14-0.14,0.24-0.28,0.22s-0.24-0.14-0.22-0.28c0.06-0.52,0.37-0.97,0.87-1.28
			c0.59-0.36,1.33-0.45,1.95-0.24c1,0.35,1.77,1.32,2.07,2.61c0.03,0.13-0.05,0.27-0.19,0.3
			C328.14,307.39,328.12,307.39,328.1,307.39z"/>
	</g>
	<g>
		<path class="st1" d="M326.63,309.69c-0.21,0-0.43-0.05-0.63-0.14c-0.09-0.04-0.18-0.09-0.26-0.13c-0.29-0.15-0.56-0.29-0.81-0.23
			c-0.06,0.01-0.12,0.04-0.19,0.07c-0.13,0.05-0.28,0.11-0.45,0.11c-0.4-0.01-0.73-0.33-0.91-0.89c-0.26-0.82-0.31-1.7-0.13-2.54
			c0.03-0.14,0.16-0.22,0.3-0.2s0.22,0.16,0.2,0.3c-0.16,0.76-0.11,1.55,0.12,2.29c0.08,0.26,0.24,0.53,0.43,0.54
			c0.07,0,0.16-0.03,0.26-0.07c0.08-0.03,0.17-0.07,0.26-0.09c0.43-0.1,0.82,0.1,1.16,0.28c0.08,0.04,0.16,0.08,0.24,0.12
			c0.22,0.1,0.5,0.12,0.67,0.05c0.09-0.04,0.12-0.1,0.14-0.14c0.04-0.13,0.19-0.2,0.32-0.16c0.13,0.04,0.2,0.19,0.16,0.32
			c-0.07,0.2-0.21,0.35-0.41,0.44C326.94,309.66,326.79,309.69,326.63,309.69z"/>
	</g>
	<g>
		<path class="st1" d="M321.44,308.39c-0.45,0-0.84-0.17-1.08-0.48l-0.12-0.15l0.12-0.15c0.21-0.27,0.56-1.02,0.92-1.8
			c0.71-1.52,1.25-2.63,1.69-2.97c0.1-0.08,0.38-0.29,0.68-0.19c0.22,0.07,0.33,0.27,0.39,0.39l0.56,1.03
			c0.07,0.12,0.02,0.27-0.1,0.34c-0.12,0.07-0.28,0.02-0.34-0.1l-0.56-1.03c-0.02-0.04-0.08-0.14-0.11-0.15c0,0-0.05-0.01-0.21,0.11
			c-0.38,0.29-1.03,1.68-1.55,2.79c-0.33,0.71-0.63,1.34-0.85,1.71c0.19,0.14,0.47,0.19,0.76,0.15c0.7-0.11,1.31-0.7,1.64-1.59
			c0.05-0.13,0.19-0.2,0.32-0.15c0.13,0.05,0.2,0.19,0.15,0.32c-0.39,1.06-1.16,1.77-2.04,1.91
			C321.63,308.39,321.54,308.39,321.44,308.39z"/>
	</g>
	<g>
		<path class="st1" d="M320.56,308.01c-0.02,0-0.04,0-0.06-0.01c-0.58-0.15-2.59-1.64-2.71-2.98l-0.01-0.07l0.03-0.07
			c0.13-0.25,0.3-0.56,0.49-0.92c0.25-0.47,0.36-0.66,0.44-0.8c0.07-0.11,0.11-0.19,0.19-0.35l0.1-0.19
			c0.29-0.56,0.65-1.25,1.11-1.87c0.09-0.13,0.34-0.46,0.71-0.43c0.25,0.02,0.43,0.2,0.54,0.31l1.85,1.89c0.1,0.1,0.09,0.26,0,0.35
			c-0.1,0.1-0.26,0.09-0.36,0l-1.85-1.89c-0.06-0.06-0.15-0.15-0.21-0.16c-0.04,0-0.13,0.03-0.27,0.23
			c-0.44,0.59-0.79,1.26-1.07,1.81l-0.1,0.19c-0.09,0.17-0.13,0.25-0.2,0.37c-0.08,0.14-0.19,0.33-0.44,0.79
			c-0.18,0.33-0.33,0.61-0.45,0.85c0.16,1.04,1.84,2.34,2.32,2.47c0.13,0.03,0.22,0.17,0.18,0.31
			C320.78,307.94,320.67,308.01,320.56,308.01z"/>
	</g>
	<g>
		<path class="st1" d="M318.08,305.04c-0.04,0-0.08-0.01-0.11-0.02c-0.35-0.16-1.17-2.5-1.18-4.28c0-0.58,0.52-1.35,1.03-1.81
			c0.28-0.25,0.71-0.54,1.13-0.49c0.57,0.07,0.95,0.54,1.25,0.98l0.54,0.78c0.08,0.11,0.05,0.27-0.07,0.35s-0.27,0.05-0.35-0.06
			l-0.54-0.78c-0.24-0.35-0.53-0.72-0.89-0.77c-0.18-0.02-0.45,0.12-0.73,0.37c-0.47,0.42-0.87,1.08-0.87,1.43
			c0.01,1.38,0.49,2.84,0.77,3.51c0.11,0.01,0.2,0.08,0.23,0.19c0.07,0.25,0.1,0.43-0.04,0.55
			C318.2,305.02,318.14,305.04,318.08,305.04z M317.84,304.76L317.84,304.76L317.84,304.76z"/>
	</g>
	<g>
		<path class="st1" d="M317.04,300.99c-0.04,0-0.07-0.01-0.11-0.02c-0.23-0.11-0.42-0.35-0.53-0.67c-0.2-0.6-0.1-1.37,0.27-2.06
			c0.06-0.11,0.11-0.23,0.16-0.36c0.14-0.35,0.3-0.75,0.72-0.94l0.19-0.09l0.12,0.17c0.37,0.51,0.79,1,1.25,1.43
			c0.1,0.1,0.1,0.25,0.01,0.35c-0.1,0.1-0.26,0.1-0.36,0.01c-0.42-0.4-0.81-0.84-1.17-1.31c-0.13,0.13-0.21,0.33-0.3,0.56
			c-0.06,0.14-0.11,0.28-0.19,0.41c-0.31,0.57-0.39,1.19-0.23,1.66c0.06,0.19,0.16,0.33,0.27,0.38c0.13,0.06,0.18,0.21,0.12,0.33
			C317.22,300.93,317.13,300.99,317.04,300.99z"/>
	</g>
	<g>
		<path class="st1" d="M316.93,298.32c-0.04,0-0.08-0.01-0.12-0.03c-0.75-0.41-0.64-1.5-0.6-1.86c0.01-0.13,0.04-0.38,0.24-0.54
			c0.13-0.1,0.29-0.13,0.46-0.08c0.27,0.08,0.47,0.35,0.55,0.56c0.01,0.04,0.03,0.08,0.04,0.12c0.06,0.18,0.12,0.36,0.22,0.4
			c0.13,0.04,0.2,0.19,0.16,0.32c-0.04,0.13-0.19,0.2-0.32,0.16c-0.34-0.12-0.46-0.47-0.54-0.72c-0.01-0.04-0.02-0.08-0.04-0.11
			c-0.05-0.14-0.17-0.25-0.22-0.25c-0.01,0.01-0.03,0.05-0.04,0.19c-0.08,0.75,0.03,1.2,0.34,1.37c0.12,0.07,0.17,0.22,0.1,0.34
			C317.1,298.27,317.02,298.32,316.93,298.32z"/>
	</g>
	<g>
		<path class="st1" d="M325.07,304.59c-0.1,0-0.2-0.07-0.24-0.17c-0.3-0.86-1.05-1.52-1.77-2.15l-0.23-0.21
			c-2-1.77-3.66-3.84-4.94-6.18l-0.17-0.31l0.36-0.05c1.1-0.17,2.02,0.61,2.84,1.48c0.44,0.46,0.9,0.94,1.32,1.44
			c1.44,1.68,2.58,3.58,3.38,5.64c0.05,0.13-0.01,0.27-0.14,0.32c-0.06,0.02-0.11,0.02-0.17,0.01c-0.02,0.07-0.08,0.14-0.16,0.17
			C325.13,304.59,325.1,304.59,325.07,304.59z M318.54,296.01c1.22,2.14,2.78,4.05,4.63,5.68l0.23,0.2c0.45,0.4,0.92,0.8,1.29,1.27
			c-0.73-1.59-1.68-3.06-2.83-4.4c-0.42-0.49-0.87-0.96-1.31-1.42C319.93,296.7,319.27,296.1,318.54,296.01z"/>
	</g>
	<g>
		<path class="st1" d="M327.3,305.38c-0.1,0-0.2-0.06-0.24-0.16c-1.16-3.12-2.75-6.06-4.71-8.75c-0.22-0.29-0.51-0.62-0.81-0.69
			c0.78,3.19,2.95,5.92,5.12,8.45c0.09,0.11,0.08,0.26-0.03,0.35c-0.11,0.09-0.26,0.08-0.35-0.03c-2.27-2.65-4.55-5.53-5.29-8.95
			l-0.05-0.23l0.22-0.07c0.53-0.16,1.07,0.13,1.61,0.86c1.99,2.73,3.6,5.71,4.78,8.87c0.05,0.13-0.02,0.27-0.15,0.32
			C327.36,305.38,327.33,305.38,327.3,305.38z"/>
	</g>
	<g>
		<path class="st1" d="M318.89,315.85c-0.06,0-0.12-0.02-0.17-0.07c-0.1-0.09-0.11-0.25-0.02-0.35c2.48-2.72,4.02-6.23,4.32-9.9
			l0.11-1.29l0.38,1.24c0.23,0.73,0.3,1.49,0.38,2.23l0.19,1.91c0.04-0.26,0.09-0.52,0.14-0.77c0.03-0.14,0.16-0.22,0.3-0.19
			c0.14,0.03,0.22,0.16,0.19,0.3c-0.25,1.18-0.37,2.39-0.35,3.59l-0.5,0.03l-0.47-4.81c-0.02-0.21-0.04-0.42-0.07-0.62
			c-0.57,3.2-2.04,6.22-4.25,8.63C319.03,315.82,318.96,315.85,318.89,315.85z"/>
	</g>
	<g>
		<path class="st1" d="M328.12,315.79c-0.08,0-0.16-0.04-0.21-0.11c-1.25-1.84-1.52-4.68-1.76-7.18c-0.04-0.45-0.09-0.9-0.13-1.33
			c-0.07,0.54-0.14,1.05-0.2,1.55c0.02,0,0.04,0,0.06,0.01c0.14,0.02,0.23,0.15,0.22,0.28s-0.15,0.23-0.28,0.21
			c-0.02,0-0.04,0-0.05,0c-0.12,0.95-0.25,1.93-0.4,3.09l-0.5-0.03c0-0.39-0.01-0.65-0.02-0.88c-0.02-0.39-0.03-0.69,0.01-1.36
			c0.01-0.18,0.08-0.79,0.44-1.12c0.01-0.05,0.01-0.1,0.02-0.16c0.14-1.08,0.28-2.17,0.45-3.49l0.2-1.55l0.3,1.54
			c0.19,0.96,0.29,2.04,0.4,3.2c0.25,2.56,0.5,5.22,1.68,6.95c0.08,0.11,0.05,0.27-0.07,0.35
			C328.21,315.77,328.16,315.79,328.12,315.79z"/>
	</g>
	<g>
		<path class="st1" d="M333.62,315.54c-0.68-0.76-1.33-1.55-1.93-2.38l-2.32-2.86c-0.09-0.11-0.07-0.27,0.04-0.35
			c0.09-0.07,0.22-0.07,0.31,0c0.02-0.06,0.06-0.11,0.12-0.15c0.12-0.07,0.27-0.03,0.34,0.1c0.58,1.02,1.22,2.01,1.91,2.96
			l1.92,2.36L333.62,315.54z"/>
	</g>
	<g>
		<path class="st1" d="M323.74,301.83c-0.03,0-0.06-0.01-0.08-0.03c-1.61-1.4-2.96-3.14-3.9-5.05c-0.03-0.06-0.01-0.14,0.06-0.17
			c0.06-0.03,0.14-0.01,0.17,0.06c0.93,1.88,2.26,3.6,3.84,4.97c0.05,0.05,0.06,0.12,0.01,0.18
			C323.81,301.81,323.77,301.83,323.74,301.83z"/>
	</g>
	<g>
		<path class="st1" d="M326.58,304.43c-0.04,0-0.08-0.02-0.1-0.05c-1.81-2.36-3.15-5.13-3.86-8.02c-0.02-0.07,0.02-0.14,0.09-0.15
			c0.07-0.02,0.14,0.02,0.15,0.09c0.7,2.85,2.02,5.59,3.81,7.93c0.04,0.05,0.03,0.13-0.02,0.18
			C326.63,304.42,326.6,304.43,326.58,304.43z"/>
	</g>
	<g>
		<path class="st1" d="M319.92,297.46c-0.01,0-0.02,0-0.03,0l-0.65-0.17c-0.07-0.02-0.11-0.09-0.09-0.15s0.09-0.11,0.15-0.09
			l0.65,0.17c0.07,0.02,0.11,0.09,0.09,0.15C320.03,297.43,319.98,297.46,319.92,297.46z"/>
	</g>
	<g>
		<path class="st1" d="M321.3,299.91c-0.08,0-0.17-0.01-0.25-0.03c-0.07-0.01-0.11-0.08-0.1-0.15s0.08-0.11,0.15-0.1
			c0.25,0.05,0.51,0,0.73-0.14c0.06-0.04,0.14-0.02,0.17,0.04s0.02,0.14-0.04,0.17C321.77,299.85,321.54,299.91,321.3,299.91z"/>
	</g>
	<g>
		<path class="st1" d="M323.2,298.27c-0.03,0-0.06-0.01-0.09-0.04l-1.16-1.13c-0.05-0.05-0.05-0.13,0-0.18
			c0.05-0.05,0.13-0.05,0.18,0l1.16,1.13c0.05,0.05,0.05,0.13,0,0.18C323.27,298.26,323.24,298.27,323.2,298.27z"/>
	</g>
	<g>
		<path class="st1" d="M325.5,302.21c-0.02,0-0.05-0.01-0.07-0.02l-0.81-0.51c-0.06-0.04-0.08-0.11-0.04-0.17
			c0.04-0.06,0.11-0.08,0.17-0.04l0.81,0.51c0.06,0.04,0.08,0.11,0.04,0.17C325.58,302.19,325.54,302.21,325.5,302.21z"/>
	</g>
	<g>
		<path class="st1" d="M328.95,310.42l-0.09-0.15c-0.21-0.36-0.21-0.83-0.01-1.2s0.6-0.62,1.01-0.65c0.07,0,0.13,0.05,0.13,0.12
			c0,0,0,0,0,0.01c0.13,0.09,0.18,0.28,0.15,0.43c-0.04,0.17-0.15,0.29-0.25,0.4L328.95,310.42z M329.75,308.7
			c-0.29,0.06-0.55,0.24-0.68,0.5c-0.13,0.24-0.15,0.53-0.06,0.79l0.7-0.77c0.08-0.08,0.16-0.18,0.19-0.28
			c0.02-0.08-0.02-0.17-0.07-0.18C329.79,308.74,329.77,308.72,329.75,308.7z"/>
	</g>
	<g>
		<path class="st1" d="M315.29,318.2c-0.05,0-0.09-0.03-0.11-0.07c-0.03-0.06,0-0.14,0.06-0.17c1.43-0.65,2.73-1.53,3.86-2.62
			c0.05-0.05,0.13-0.05,0.18,0c0.05,0.05,0.05,0.13,0,0.18c-1.15,1.11-2.47,2.01-3.93,2.67C315.32,318.2,315.3,318.2,315.29,318.2z"
			/>
	</g>
	<g>
		<path class="st1" d="M332.2,318.7c-0.02,0-0.03,0-0.05-0.01c-1.59-0.63-3-1.74-3.99-3.13c-0.04-0.06-0.03-0.13,0.03-0.17
			c0.06-0.04,0.14-0.03,0.18,0.03c0.96,1.35,2.33,2.43,3.88,3.04c0.06,0.03,0.1,0.1,0.07,0.16
			C332.3,318.67,332.25,318.7,332.2,318.7z"/>
	</g>
	<g>
		<path class="st1" d="M333.97,312.78c-0.02,0-0.05-0.01-0.07-0.02c-1.31-0.83-2.58-1.74-3.78-2.71c-0.05-0.04-0.06-0.12-0.02-0.18
			c0.04-0.05,0.12-0.06,0.18-0.02c1.19,0.97,2.45,1.87,3.75,2.69c0.06,0.04,0.08,0.11,0.04,0.17
			C334.05,312.75,334.01,312.78,333.97,312.78z"/>
	</g>
	<g>
		<path class="st1" d="M333.53,313.3c-0.03,0-0.05-0.01-0.07-0.02c-1.21-0.87-2.25-1.94-3.08-3.17c-0.04-0.06-0.02-0.14,0.03-0.17
			s0.14-0.02,0.17,0.03c0.82,1.21,1.84,2.25,3.02,3.11c0.06,0.04,0.07,0.12,0.03,0.18C333.6,313.29,333.57,313.3,333.53,313.3z"/>
	</g>
	<g>
		<path class="st1" d="M330.17,308.55c-0.07,0-0.13-0.06-0.13-0.13v-0.09c0-0.07,0.06-0.13,0.13-0.13s0.13,0.06,0.13,0.13v0.09
			C330.3,308.5,330.24,308.55,330.17,308.55z"/>
	</g>
	<g>
		<path class="st1" d="M326.39,312.64c-0.03,0-0.06,0-0.09,0l-0.28-0.02l0.56-3.22c0.02-0.14,0.15-0.23,0.29-0.2
			c0.14,0.02,0.23,0.15,0.21,0.29l-0.45,2.62c0.18-0.05,0.37-0.14,0.55-0.23c2.07-1.07,4-2.41,5.73-3.97
			c0.1-0.09,0.26-0.08,0.36,0.02c0.09,0.1,0.09,0.26-0.02,0.35c-1.76,1.59-3.72,2.95-5.83,4.04
			C327.09,312.48,326.75,312.64,326.39,312.64z"/>
	</g>
	<g>
		<path class="st1" d="M335.26,312.45c-0.09,0-0.17-0.04-0.22-0.12c-0.77-1.25-1.5-2.55-2.2-3.85c-0.07-0.12-0.02-0.27,0.1-0.34
			c0.12-0.07,0.28-0.02,0.34,0.1c0.69,1.29,1.42,2.57,2.18,3.82c0.07,0.12,0.03,0.27-0.08,0.34
			C335.35,312.44,335.31,312.45,335.26,312.45z"/>
	</g>
	<g>
		<path class="st1" d="M339.15,315.71c-0.02,0-0.04,0-0.06-0.01c-1.55-0.79-2.9-1.96-3.91-3.38c-0.04-0.06-0.03-0.13,0.03-0.17
			s0.14-0.03,0.18,0.03c0.98,1.38,2.3,2.52,3.82,3.3c0.06,0.03,0.09,0.11,0.05,0.17C339.24,315.68,339.2,315.71,339.15,315.71z"/>
	</g>
	<g>
		<path class="st1" d="M342.56,316.92c-0.01,0-0.02,0-0.03,0c-1.12-0.3-2.22-0.72-3.26-1.22l-0.01,0.11
			c-0.01,0.07-0.07,0.12-0.14,0.11c-0.07-0.01-0.12-0.07-0.11-0.14l0.04-0.47l0.16,0.08c1.08,0.54,2.22,0.97,3.38,1.29
			c0.07,0.02,0.11,0.09,0.09,0.15C342.67,316.89,342.61,316.92,342.56,316.92z"/>
	</g>
	<g>
		<path class="st1" d="M311.4,318.48c-0.04,0-0.08-0.02-0.1-0.05c-0.04-0.06-0.02-0.14,0.03-0.17c0.66-0.45,1.48-0.38,2.26-0.32
			c0.54,0.04,1.09,0.09,1.6-0.03c0.07-0.02,0.14,0.03,0.15,0.09c0.02,0.07-0.03,0.14-0.09,0.15c-0.54,0.13-1.12,0.08-1.68,0.04
			c-0.78-0.06-1.51-0.13-2.1,0.28C311.44,318.47,311.42,318.48,311.4,318.48z"/>
	</g>
	<g>
		<path class="st1" d="M333.87,319.34c-0.02,0-0.03,0-0.05-0.01l-1.48-0.64c-0.06-0.03-0.09-0.1-0.07-0.16
			c0.03-0.06,0.1-0.09,0.17-0.07l1.48,0.64c0.06,0.03,0.09,0.1,0.07,0.16C333.96,319.31,333.91,319.34,333.87,319.34z"/>
	</g>
	<g>
		<path class="st1" d="M330.22,308.15c-0.03,0-0.05-0.01-0.08-0.02c-0.06-0.04-0.07-0.12-0.03-0.18c1.03-1.38,2.52-2.39,4.19-2.85
			c0.07-0.02,0.14,0.02,0.15,0.09c0.02,0.07-0.02,0.14-0.09,0.15c-1.61,0.44-3.05,1.42-4.05,2.76
			C330.29,308.13,330.26,308.15,330.22,308.15z"/>
	</g>
	<g>
		<path class="st1" d="M330.39,308.23c-0.04,0-0.08-0.02-0.11-0.06c-0.04-0.06-0.02-0.14,0.04-0.17l2.55-1.53
			c0.06-0.04,0.14-0.02,0.17,0.04c0.04,0.06,0.02,0.14-0.04,0.17l-2.55,1.53C330.43,308.22,330.41,308.23,330.39,308.23z"/>
	</g>
	<g>
		<path class="st1" d="M336.19,317.31c-0.02,0-0.04-0.01-0.06-0.02c-0.88-0.65-1.76-1.34-2.6-2.05c-0.04-0.03-0.04-0.09-0.01-0.13
			s0.09-0.04,0.13-0.01c0.84,0.71,1.71,1.39,2.59,2.04c0.04,0.03,0.05,0.09,0.02,0.13C336.25,317.3,336.22,317.31,336.19,317.31z"/>
	</g>
</g>
<g>
	<g>
		<path class="st1" d="M354.9,319.28l-0.11-0.45c-0.37-1.56,0.26-3.01,0.88-4.42c0.35-0.79,0.7-1.61,0.86-2.41
			c0.38-1.94-0.35-3.93-1.06-5.87c-0.12-0.33-0.24-0.65-0.35-0.98c-1.13-3.22-1.04-5.72,0.26-7.44c0.68-0.89,1.62-1.43,2.58-1.48
			c0.24-0.01,0.45,0.18,0.46,0.42c0,0.01,0,0.01,0,0.02c0.02,0.02,0.05,0.03,0.07,0.05c0.53,0.41,0.89,1.19,0.9,1.94
			c0,0.31-0.03,0.62-0.06,0.91c-0.06,0.59-0.12,1.15,0.1,1.61c0.14,0.29,0.38,0.54,0.65,0.81l0.08,0.08c2.27,2.33,4.4,6.34,2.92,10
			c-0.78,1.91-2.37,3.32-3.78,4.57c-1.1,0.98-2.35,2.08-3.94,2.51L354.9,319.28z M357.23,297.33c-0.42,0.19-0.83,0.52-1.15,0.94
			c-1.11,1.46-1.16,3.68-0.13,6.6c0.11,0.32,0.23,0.64,0.35,0.97c0.75,2.05,1.53,4.17,1.1,6.35c-0.18,0.9-0.55,1.77-0.92,2.6
			c-0.51,1.16-0.99,2.26-0.9,3.37c1.19-0.46,2.21-1.36,3.12-2.17c1.34-1.18,2.85-2.52,3.55-4.23c1.32-3.25-0.64-6.89-2.73-9.03
			l-0.08-0.08c-0.3-0.31-0.62-0.63-0.82-1.05c-0.32-0.69-0.25-1.4-0.18-2.09c0.03-0.29,0.06-0.56,0.06-0.82
			c0-0.47-0.23-0.99-0.55-1.23c-0.16-0.12-0.32-0.16-0.49-0.12C357.39,297.35,357.31,297.35,357.23,297.33z"/>
	</g>
	<g>
		<path class="st1" d="M359.46,313.65c-0.03,0-0.07,0-0.1-0.01c-0.12-0.03-0.21-0.1-0.26-0.2c-0.12-0.22-0.04-0.51-0.01-0.62
			c0.57-1.76,0.26-3.92-0.9-6.1l-0.12-0.23c-0.3-0.55-0.61-1.12-0.66-1.76c-0.06-0.77,0.39-1.68,1.22-1.81
			c0.12-0.02,0.23,0.06,0.25,0.19c0.02,0.12-0.06,0.24-0.18,0.26c-0.56,0.09-0.89,0.76-0.85,1.33c0.04,0.55,0.33,1.08,0.6,1.59
			l0.12,0.23c1.21,2.28,1.54,4.57,0.93,6.45c-0.04,0.13-0.04,0.22-0.03,0.26c0-0.01,0.03-0.02,0.09-0.07
			c0.73-0.54,1.22-1.43,1.38-2.53c0.15-1,0.02-2.01-0.14-3.04c-0.12-0.8-0.26-1.58-0.6-2.26c-0.38-0.75-0.98-1.27-1.65-1.43
			c-0.12-0.03-0.19-0.15-0.16-0.27c0.03-0.12,0.15-0.19,0.27-0.17c0.79,0.19,1.5,0.79,1.94,1.66c0.37,0.74,0.52,1.55,0.65,2.39
			c0.16,1.07,0.29,2.11,0.14,3.17c-0.18,1.22-0.73,2.22-1.56,2.82C359.77,313.55,359.63,313.65,359.46,313.65z M359.48,313.22
			L359.48,313.22L359.48,313.22z"/>
	</g>
	<g>
		<path class="st1" d="M356.46,303.32l-0.43-0.1l0.05-0.26c0.02-0.36-0.12-0.73-0.27-1.12c-0.08-0.22-0.17-0.46-0.23-0.69
			c-0.32-1.3,0.4-2.72,1.6-3.15c0.11-0.04,0.24,0.02,0.28,0.14c0.04,0.12-0.02,0.24-0.13,0.29c-0.01,0-0.02,0.01-0.02,0.01
			c0.02,0.04,0.02,0.08,0.01,0.13l-0.81,4.46C356.51,303.11,356.49,303.21,356.46,303.32z M356.85,298.66
			c-0.69,0.51-1.06,1.48-0.84,2.36c0.05,0.21,0.13,0.42,0.22,0.64c0.02,0.05,0.04,0.1,0.06,0.15L356.85,298.66z"/>
	</g>
	<g>
		<path class="st1" d="M357.43,302.62l-0.13-0.5c-0.33-1.3-0.25-2.71,0.21-3.96c0.01-0.03,0.03-0.06,0.05-0.08c0,0,0,0,0,0
			c-0.05-0.11-0.01-0.24,0.11-0.3c0.11-0.05,0.24-0.01,0.29,0.11c0.64,1.37,0.54,3.01-0.26,4.3L357.43,302.62z M357.8,298.71
			c-0.25,0.87-0.32,1.8-0.19,2.69C357.97,300.56,358.04,299.6,357.8,298.71z"/>
	</g>
	<g>
		<path class="st1" d="M358.67,298.56l-2.29-0.15l0.11-0.29c0.17-0.43,0.53-0.77,0.97-0.93c0.01-0.01,0.01-0.01,0.02-0.02
			c0.06-0.05,0.14-0.07,0.21-0.05c0.06-0.01,0.12-0.02,0.18-0.03c0.12-0.01,0.23,0.08,0.24,0.2c0.01,0.07-0.02,0.14-0.07,0.19
			c0.17,0.23,0.32,0.46,0.45,0.71L358.67,298.56z M357.07,298l0.82,0.05c-0.1-0.15-0.2-0.29-0.31-0.43
			C357.38,297.71,357.2,297.84,357.07,298z"/>
	</g>
	<g>
		<path class="st1" d="M356.83,305.04c-0.33,0-0.65-0.05-0.96-0.15l-0.3-0.1l0.2-0.25c0.23-0.29,0.57-0.51,0.94-0.6
			c0.05-0.04,0.11-0.06,0.18-0.05c0.03,0,0.05,0.01,0.08,0.01c0.03,0,0.06,0,0.08,0.01c0.14,0.03,0.3,0.08,0.44,0.19
			c0.13,0.11,0.2,0.28,0.2,0.44c0,0.14-0.06,0.27-0.16,0.35c-0.11,0.09-0.23,0.11-0.34,0.12
			C357.05,305.03,356.94,305.04,356.83,305.04z M356.38,304.56c0.24,0.04,0.49,0.05,0.74,0.02c0.08-0.01,0.11-0.02,0.12-0.03
			c0-0.01-0.01-0.07-0.05-0.11c-0.06-0.05-0.16-0.08-0.25-0.1C356.74,304.37,356.55,304.44,356.38,304.56z"/>
	</g>
	<g>
		<path class="st1" d="M357.94,307.37l-0.23-0.04c-0.43-0.08-0.7-0.52-0.71-1.18c0-0.11-0.01-0.39,0.21-0.54
			c0.16-0.12,0.38-0.07,0.5,0.03c0.12,0.1,0.15,0.26,0.08,0.4c0,0.01-0.01,0.01-0.01,0.02c0.17,0.33,0.24,0.71,0.2,1.08
			L357.94,307.37z"/>
	</g>
	<g>
		<path class="st1" d="M358.21,309.6l-0.17-0.12c-0.33-0.23-0.34-0.45-0.29-0.6c0.04-0.11,0.13-0.18,0.24-0.2
			c-0.03-0.09,0-0.2,0.09-0.26c0.1-0.07,0.24-0.04,0.31,0.06c0.19,0.29,0.17,0.69-0.04,0.96L358.21,309.6z M358.05,308.84
			C358.05,308.84,358.05,308.84,358.05,308.84C358.05,308.84,358.05,308.84,358.05,308.84z"/>
	</g>
	<g>
		<path class="st1" d="M356.44,316.73c-0.19,0-0.37-0.06-0.5-0.18c-0.2-0.18-0.29-0.46-0.24-0.75c0.06-0.29,0.26-0.53,0.52-0.62
			l0.07,0.21l-0.07-0.21c0.26-0.09,0.57-0.01,0.79,0.19c0.22,0.2,0.32,0.47,0.26,0.73c-0.05,0.26-0.25,0.47-0.54,0.57
			C356.64,316.71,356.54,316.73,356.44,316.73z M356.36,315.61c-0.13,0.04-0.2,0.17-0.22,0.28c-0.02,0.1-0.01,0.24,0.09,0.32
			c0.1,0.09,0.26,0.08,0.37,0.04c0.1-0.04,0.22-0.12,0.25-0.24c0.02-0.12-0.05-0.24-0.13-0.31
			C356.63,315.63,356.49,315.57,356.36,315.61L356.36,315.61z"/>
	</g>
	<g>
		<path class="st1" d="M357.56,314.39c-0.27,0-0.53-0.2-0.58-0.47c-0.06-0.3,0.14-0.6,0.44-0.67c0.05-0.01,0.1-0.01,0.15,0.02
			c0.05,0,0.1,0.02,0.15,0.04l0.11,0.06l0,0.98l-0.19,0.03C357.61,314.38,357.59,314.39,357.56,314.39z"/>
	</g>
	<g>
		<path class="st1" d="M358.32,315.35c-0.13,0-0.24-0.07-0.29-0.19c-0.05-0.12-0.01-0.26,0.1-0.35c0.11-0.09,0.26-0.09,0.37-0.01
			c0.05,0.04,0.08,0.09,0.09,0.14c0.03,0.05,0.04,0.11,0.03,0.17c-0.03,0.13-0.14,0.23-0.28,0.24
			C358.34,315.35,358.33,315.35,358.32,315.35z"/>
	</g>
</g>
<g>
	<path class="st2" d="M385.18,298.86c-5.28,0-9.56,4.28-9.56,9.55c0,5.27,4.28,9.55,9.56,9.55c5.28,0,9.56-4.28,9.56-9.55
		C394.73,303.13,390.46,298.86,385.18,298.86z M385.01,314.46c-3.27,0-5.92-2.65-5.92-5.92s2.65-5.92,5.92-5.92s5.92,2.65,5.92,5.92
		S388.28,314.46,385.01,314.46z"/>
	<circle class="st3" cx="385.01" cy="308.54" r="5.92"/>
	<path class="st4" d="M385.01,318.25c-5.44,0-9.87-4.43-9.87-9.87s4.43-9.87,9.87-9.87s9.87,4.43,9.87,9.87
		S390.45,318.25,385.01,318.25z M385.01,299.15c-5.09,0-9.23,4.14-9.23,9.23s4.14,9.23,9.23,9.23s9.23-4.14,9.23-9.23
		S390.1,299.15,385.01,299.15z"/>
	<path class="st5" d="M390.2,305.83c-0.39-0.69-1.3-1.08-2.09-1.09c-0.79-0.01-1.55,0.29-2.25,0.67c-1.03,0.56-1.99,1.33-2.57,2.35
		c-1.05,1.87-0.56,4.46,1.11,5.8c1.67,1.34,4.31,1.27,5.91-0.15c0.5-0.45,0.91-1.02,1.06-1.68c0.15-0.65,0.03-1.39-0.41-1.9
		c-0.52,0.55-0.62,1.4-1.13,1.96c-0.52,0.57-1.39,0.71-2.13,0.51c-0.74-0.2-1.37-0.7-1.89-1.26c-0.48-0.51-0.9-1.12-0.95-1.82
		c-0.1-1.25,1.03-2.3,2.22-2.69c0.55-0.18,1.16-0.26,1.72-0.1c0.56,0.16,1.06,0.6,1.18,1.17c0.36,0.1,0.71-0.28,0.72-0.65
		c0.01-0.37-0.19-0.71-0.39-1.03"/>
	<path class="st6" d="M387.25,314.69c-1.06,0-2.12-0.33-2.95-0.99c-1.72-1.39-2.24-4.08-1.15-6.01c0.53-0.94,1.42-1.76,2.63-2.41
		c0.88-0.48,1.62-0.7,2.33-0.69c0.76,0.01,1.78,0.37,2.23,1.17c0,0.01,0.01,0.02,0.01,0.02c0.03,0.01,0.06,0.03,0.08,0.07
		c0.2,0.33,0.43,0.7,0.41,1.12c-0.01,0.26-0.15,0.53-0.37,0.69c-0.17,0.12-0.37,0.16-0.55,0.11l-0.09-0.03l-0.02-0.1
		c-0.1-0.47-0.52-0.89-1.06-1.05c-0.46-0.13-1.01-0.1-1.62,0.1c-1.12,0.36-2.21,1.35-2.11,2.52c0.04,0.55,0.34,1.11,0.91,1.73
		c0.61,0.65,1.2,1.05,1.82,1.22c0.74,0.2,1.53,0.02,1.97-0.46c0.24-0.26,0.38-0.58,0.53-0.93c0.16-0.36,0.32-0.73,0.6-1.03
		l0.12-0.13l0.12,0.13c0.45,0.52,0.62,1.3,0.45,2.04c-0.15,0.63-0.53,1.24-1.11,1.76C389.56,314.31,388.4,314.69,387.25,314.69z
		 M388.08,304.91c-0.65,0-1.33,0.21-2.15,0.65c-1.16,0.63-2.01,1.4-2.51,2.29c-1.01,1.8-0.53,4.31,1.07,5.6
		c1.61,1.29,4.17,1.23,5.7-0.15c0.37-0.33,0.84-0.87,1.01-1.59c0.13-0.57,0.03-1.17-0.26-1.6c-0.17,0.23-0.29,0.51-0.42,0.8
		c-0.16,0.36-0.32,0.72-0.59,1.02c-0.53,0.57-1.43,0.79-2.29,0.55c-0.68-0.18-1.32-0.61-1.97-1.31c-0.62-0.67-0.95-1.29-1-1.92
		c-0.11-1.34,1.09-2.45,2.33-2.85c0.67-0.22,1.28-0.25,1.81-0.1c0.62,0.18,1.1,0.63,1.26,1.18c0.08,0,0.15-0.04,0.19-0.07
		c0.14-0.1,0.23-0.28,0.24-0.44c0.01-0.33-0.18-0.64-0.37-0.94c-0.01-0.01-0.01-0.02-0.01-0.03c-0.03-0.01-0.06-0.04-0.08-0.07
		c-0.39-0.68-1.29-1-1.96-1.01C388.1,304.91,388.09,304.91,388.08,304.91z"/>
	<path class="st5" d="M391.47,308.06c-0.51-0.35-1.61-0.16-1.89,0.4c-0.1,0.21-0.13,0.48,0.03,0.65c0.09,0.09,0.22,0.12,0.34,0.16
		c0.36,0.1,0.72,0.2,1.09,0.16s0.74-0.23,0.89-0.57s-0.05-0.81-0.41-0.87"/>
	<path class="st6" d="M390.89,309.59c-0.34,0-0.68-0.09-0.98-0.17c-0.12-0.03-0.29-0.08-0.41-0.2c-0.22-0.22-0.19-0.58-0.06-0.83
		c0.14-0.28,0.45-0.49,0.86-0.6c0.41-0.11,0.83-0.08,1.13,0.06c0.03-0.02,0.07-0.03,0.11-0.02c0.2,0.03,0.37,0.16,0.48,0.36
		c0.12,0.23,0.14,0.5,0.05,0.73c-0.15,0.36-0.55,0.62-1.02,0.67C391,309.59,390.94,309.59,390.89,309.59z M390.79,308.05
		c-0.14,0-0.28,0.02-0.42,0.05c-0.32,0.08-0.56,0.24-0.66,0.43c-0.07,0.15-0.1,0.35,0,0.46c0.06,0.06,0.15,0.09,0.27,0.12
		c0.34,0.09,0.69,0.19,1.03,0.16c0.35-0.03,0.65-0.22,0.75-0.47c0.06-0.14,0.04-0.31-0.03-0.45c-0.03-0.05-0.08-0.12-0.16-0.17
		c-0.05,0.05-0.14,0.06-0.2,0.02C391.24,308.1,391.03,308.05,390.79,308.05z"/>
	<path class="st6" d="M379.82,311.73c-0.11,0-0.21-0.06-0.27-0.16c-0.58-1-0.85-2.04-0.81-3.08c0.11-2.66,2.43-6.36,6.52-6.36h0.04
		c0.31,0,1.14,0,2.14,0.36c0.16,0.06,0.25,0.24,0.19,0.4c-0.06,0.16-0.24,0.25-0.4,0.19c-0.89-0.33-1.63-0.32-1.92-0.32h-0.04
		c-3.7,0-5.8,3.34-5.89,5.75c-0.04,0.92,0.21,1.85,0.72,2.74c0.09,0.15,0.04,0.34-0.12,0.43
		C379.93,311.71,379.87,311.73,379.82,311.73z"/>
</g>
<g>
	<path class="st1" d="M412.43,317.64c-0.24,0-0.47-0.04-0.67-0.12c-0.94-0.38-1.39-1.51-1.24-3.11c0.08-0.84,0.22-1.69,0.35-2.51
		c0.34-2.1,0.66-4.07,0.13-6.01c-0.28-1.04-0.8-1.99-1.32-2.86c-0.6-1.02-1.72-2.91-0.74-4.38c0.67-1.01,1.48-1.44,2.4-1.27
		c2.58,0.46,4.93,5.58,5.24,6.85c0.66,2.71,0.38,5.49,0.05,7.61c-0.46,3.04-1.5,4.86-3.17,5.58
		C413.11,317.56,412.75,317.64,412.43,317.64z M410.97,298c-0.54,0-1.03,0.33-1.49,1.01l0,0c-0.66,0.99-0.02,2.35,0.76,3.68
		c0.51,0.87,1.08,1.9,1.39,3.02c0.56,2.07,0.22,4.21-0.12,6.28c-0.13,0.81-0.27,1.65-0.34,2.46c-0.06,0.61-0.09,2.07,0.83,2.43
		c0.44,0.18,0.94,0.01,1.2-0.1c1.45-0.62,2.36-2.28,2.78-5.07c0.31-2.06,0.59-4.76-0.04-7.35c-0.34-1.39-2.62-5.98-4.72-6.36
		C411.13,298.01,411.05,298,410.97,298z M409.21,298.83L409.21,298.83L409.21,298.83z"/>
	<path class="st1" d="M425.78,318.15c-0.43,0-0.87-0.1-1.26-0.33c-0.98-0.56-1.44-1.67-1.76-2.69c-1.81-5.72-1.64-11.99,0.47-17.65
		c0.26-0.69,0.59-1.47,1.29-1.92c0.43-0.28,1-0.35,1.49-0.2c0.39,0.12,0.69,0.38,0.84,0.73c0.01,0.02,0.01,0.04,0.02,0.06
		c0.6,0.72,0.96,1.73,1,2.89c0.03,0.87-0.1,1.73-0.23,2.57c-0.06,0.37-0.11,0.74-0.16,1.11c-0.22,1.92-0.06,3.91,0.47,5.76
		c0.14,0.5,0.32,1,0.48,1.49c0.27,0.8,0.56,1.62,0.72,2.47c0.23,1.17,0.32,2.85-0.61,4.22
		C427.95,317.52,426.86,318.15,425.78,318.15z M425.48,295.93c-0.22,0-0.44,0.06-0.61,0.17c-0.53,0.34-0.81,1-1.03,1.6
		c-2.06,5.53-2.23,11.64-0.46,17.23c0.28,0.89,0.68,1.86,1.46,2.31c1.06,0.61,2.51-0.02,3.15-0.96c0.62-0.92,0.8-2.24,0.51-3.72
		c-0.16-0.81-0.44-1.61-0.7-2.38c-0.17-0.49-0.35-1.01-0.49-1.52c-0.55-1.94-0.72-4.02-0.49-6.02c0.04-0.38,0.1-0.76,0.16-1.14
		c0.13-0.84,0.25-1.64,0.22-2.44c-0.04-1.31-0.53-2.38-1.33-2.94c-0.06-0.04-0.1-0.09-0.12-0.15
		C425.66,295.94,425.57,295.93,425.48,295.93z"/>
	<path class="st1" d="M414.19,304.88h-0.17c-0.09,0-0.16-0.07-0.16-0.16s0.07-0.16,0.16-0.16h0.17c0.09,0,0.16,0.07,0.16,0.16
		S414.28,304.88,414.19,304.88z"/>
	<path class="st1" d="M414.06,309.25C414.06,309.25,414.06,309.25,414.06,309.25c-0.73,0-1.15-0.8-1.24-1.59
		c-0.09-0.81-0.04-1.63,0.15-2.42c0.06-0.24,0.14-0.48,0.33-0.65c0.13-0.11,0.31-0.17,0.48-0.14c0.14,0.02,0.26,0.08,0.33,0.19
		c0.05,0.07,0.03,0.18-0.04,0.23c-0.07,0.05-0.18,0.03-0.23-0.04c-0.03-0.04-0.07-0.05-0.1-0.05c-0.08-0.01-0.16,0.02-0.22,0.07
		c-0.12,0.1-0.17,0.26-0.23,0.48c-0.18,0.76-0.23,1.53-0.14,2.3c0.07,0.63,0.39,1.3,0.91,1.3c0,0,0,0,0,0
		c0.46,0,0.76-0.52,0.85-0.68c0.59-1.14,0.3-2.7-0.67-3.55c-0.07-0.06-0.08-0.16-0.02-0.23c0.06-0.07,0.16-0.08,0.23-0.02
		c1.1,0.96,1.42,2.65,0.75,3.94C415.07,308.65,414.69,309.25,414.06,309.25z"/>
	<path class="st1" d="M413.06,303.71c-0.01,0-0.03,0-0.04,0c-0.11-0.01-0.2-0.09-0.23-0.19c-0.03-0.1,0.02-0.21,0.11-0.28
		c0.09-0.07,0.21-0.07,0.3-0.01c0.06,0.04,0.08,0.11,0.07,0.17c0.04,0.05,0.05,0.12,0.02,0.18
		C413.24,303.66,413.16,303.71,413.06,303.71z M413,303.42C413,303.42,413,303.42,413,303.42C413,303.42,413,303.42,413,303.42z"/>
	<path class="st1" d="M412.38,305.05c-0.05,0-0.09-0.01-0.14-0.03c-0.12-0.05-0.2-0.15-0.22-0.27c-0.01-0.12,0.04-0.24,0.14-0.32
		c0.1-0.08,0.24-0.1,0.34-0.05c0.05,0.02,0.08,0.06,0.09,0.1c0.05,0.05,0.08,0.12,0.09,0.2c0.01,0.11-0.02,0.21-0.09,0.29
		C412.53,305.02,412.45,305.05,412.38,305.05z M412.36,304.7c0,0-0.01,0.01-0.01,0.01c0,0,0.03,0.01,0.04,0.01
		C412.38,304.72,412.37,304.71,412.36,304.7z"/>
	<path class="st1" d="M414.73,304.35c-0.03,0-0.05,0-0.08-0.01c-0.22-0.04-0.41-0.24-0.44-0.47c-0.02-0.16,0.02-0.31,0.13-0.41
		c0.14-0.13,0.36-0.14,0.49-0.02c0.01,0.01,0.01,0.01,0.02,0.02c0.11,0.02,0.2,0.08,0.27,0.17c0.08,0.1,0.11,0.22,0.09,0.34
		c-0.02,0.12-0.09,0.22-0.19,0.29C414.94,304.32,414.83,304.35,414.73,304.35z M414.6,303.68c-0.01,0-0.03,0-0.04,0.01
		c-0.03,0.03-0.04,0.08-0.03,0.13c0.01,0.1,0.09,0.18,0.17,0.2c0.04,0.01,0.08,0,0.12-0.03c0.03-0.02,0.05-0.05,0.05-0.08
		c0-0.03-0.01-0.06-0.03-0.09c-0.02-0.03-0.05-0.05-0.08-0.05c-0.05,0-0.09-0.03-0.11-0.06
		C414.65,303.71,414.63,303.69,414.6,303.68C414.61,303.68,414.6,303.68,414.6,303.68z"/>
	<path class="st1" d="M412.77,309.97c-0.12,0-0.23-0.07-0.3-0.19c-0.08-0.14-0.05-0.31,0.05-0.41c0.05-0.05,0.13-0.07,0.2-0.07
		c0.04-0.02,0.08-0.02,0.13-0.01c0.14,0.04,0.23,0.18,0.23,0.34c0,0.16-0.1,0.3-0.25,0.33
		C412.82,309.97,412.79,309.97,412.77,309.97z"/>
	<path class="st1" d="M414.06,310.47c-0.1,0-0.21-0.04-0.29-0.11c-0.12-0.11-0.19-0.27-0.16-0.42c0.02-0.13,0.1-0.24,0.21-0.32
		c0.12-0.09,0.28-0.12,0.42-0.09c0.09,0.02,0.15,0.1,0.13,0.19c-0.01,0.03-0.02,0.05-0.03,0.07c0.07,0.07,0.11,0.18,0.1,0.29
		c-0.01,0.18-0.12,0.33-0.27,0.38C414.13,310.47,414.1,310.47,414.06,310.47z M414,309.89c-0.02,0.02-0.06,0.05-0.06,0.1
		c-0.01,0.04,0.01,0.09,0.05,0.12c0.01,0.01,0.05,0.04,0.09,0.03c0.02-0.01,0.04-0.04,0.04-0.08c0-0.03-0.01-0.05-0.02-0.05
		C414.05,309.99,414.01,309.95,414,309.89z"/>
	<path class="st1" d="M415.23,309.45c-0.12-0.01-0.2-0.05-0.26-0.12s-0.08-0.16-0.06-0.24c0.02-0.08,0.07-0.16,0.14-0.21
		c0.01-0.01,0.02-0.01,0.03-0.02c0.04-0.03,0.09-0.05,0.14-0.04c0.15,0.02,0.28,0.16,0.28,0.31
		C415.51,309.29,415.39,309.43,415.23,309.45z"/>
	<path class="st1" d="M423.07,305.26l-0.09-0.08c-0.08-0.07-0.12-0.18-0.12-0.3c0.01-0.12,0.06-0.22,0.15-0.28
		c0.08-0.05,0.18-0.03,0.23,0.04c0.01,0.01,0.01,0.02,0.01,0.02c0.02,0.01,0.03,0.03,0.04,0.05c0.09,0.16,0.04,0.38-0.12,0.48
		L423.07,305.26z"/>
	<path class="st1" d="M424.11,304.49c-0.07,0-0.14-0.02-0.2-0.06c-0.07-0.05-0.13-0.13-0.16-0.22c-0.06-0.16-0.02-0.35,0.09-0.5
		c0.05-0.06,0.11-0.12,0.17-0.16c0,0,0-0.01,0.01-0.01c0.04-0.06,0.12-0.08,0.19-0.06c0.03,0,0.05,0,0.08,0
		c0.09,0,0.16,0.08,0.16,0.17c0,0.02,0,0.03-0.01,0.05c0.09,0.12,0.12,0.26,0.1,0.4c-0.02,0.15-0.13,0.28-0.27,0.35
		C424.22,304.48,424.17,304.49,424.11,304.49z M424.15,303.86c-0.02,0.01-0.03,0.03-0.04,0.05c-0.05,0.06-0.06,0.14-0.04,0.19
		c0.01,0.03,0.02,0.05,0.03,0.05c0.01,0.01,0.04,0,0.05,0c0.04-0.02,0.07-0.06,0.08-0.09C424.23,303.99,424.2,303.92,424.15,303.86z
		"/>
	<path class="st1" d="M425.44,304.88c-0.07,0-0.15-0.02-0.2-0.07l-0.04-0.05c-0.06-0.12-0.06-0.27-0.01-0.39
		c0.01-0.03,0.03-0.07,0.05-0.09c0.01-0.02,0.03-0.04,0.05-0.05c0.15-0.13,0.37-0.15,0.54-0.04c0.08,0.05,0.1,0.15,0.05,0.23
		c-0.02,0.03-0.05,0.05-0.09,0.07c0.01,0.02,0.01,0.05,0.01,0.07c0,0.12-0.08,0.24-0.2,0.29
		C425.55,304.86,425.49,304.88,425.44,304.88z"/>
	<path class="st1" d="M424.82,308.52c-0.07,0-0.14-0.05-0.16-0.12c-0.29-0.96-0.69-1.88-1.18-2.76c-0.04-0.08-0.02-0.18,0.06-0.22
		c0.08-0.05,0.18-0.02,0.22,0.06c0.5,0.89,0.91,1.84,1.2,2.82c0.03,0.09-0.02,0.18-0.11,0.21
		C424.85,308.52,424.84,308.52,424.82,308.52z"/>
	<path class="st1" d="M425.05,308.47c-0.08,0-0.15-0.06-0.16-0.14c-0.18-1.1-0.42-2.19-0.73-3.26l-0.33-1.14l0.63,1.01l-0.07,0.07
		l0.09-0.03c0.31,1.08,0.56,2.19,0.74,3.3c0.01,0.09-0.05,0.17-0.14,0.19C425.07,308.47,425.06,308.47,425.05,308.47z"/>
	<path class="st1" d="M425.05,308.2C425.05,308.2,425.05,308.2,425.05,308.2c-0.09,0-0.17-0.07-0.16-0.17c0-0.75,0.08-1.5,0.24-2.23
		c0.01-0.04,0.03-0.14,0.11-0.19c0.07-0.05,0.16-0.05,0.23-0.02l0.09,0.04l0.02,0.13c0,0.09-0.07,0.17-0.16,0.17
		c-0.13,0.69-0.2,1.39-0.2,2.1C425.22,308.13,425.14,308.2,425.05,308.2z"/>
	<path class="st1" d="M424.09,310.23l-0.13-0.12c-0.07-0.07-0.16-0.15-0.21-0.27c-0.07-0.16-0.02-0.35,0.1-0.44
		c0.09-0.06,0.21-0.07,0.32-0.02c0.09,0.05,0.15,0.14,0.15,0.24c0,0.05-0.03,0.1-0.06,0.13c0,0,0,0.01,0,0.01
		c0.04,0.12,0.01,0.24-0.06,0.33L424.09,310.23z"/>
	<path class="st1" d="M425.38,310.83c-0.04,0-0.08-0.01-0.12-0.02c-0.09-0.04-0.16-0.11-0.2-0.22c-0.09-0.23-0.04-0.54,0.2-0.69
		c0.14-0.08,0.31-0.07,0.46,0.02c0.13,0.08,0.19,0.22,0.17,0.35c-0.01,0.08-0.08,0.14-0.16,0.14c0.01,0.13-0.05,0.26-0.15,0.34
		C425.52,310.8,425.45,310.83,425.38,310.83z M425.35,310.33c0,0.04,0,0.09,0.02,0.12c0.01,0.03,0.02,0.04,0.03,0.05
		c-0.01-0.01,0.01-0.04,0.01-0.06C425.4,310.4,425.38,310.37,425.35,310.33z"/>
	<path class="st1" d="M426.67,309.89c-0.13,0-0.26-0.06-0.38-0.17c-0.19-0.18-0.31-0.43-0.32-0.69c-0.01-0.19,0.04-0.35,0.14-0.46
		c0.08-0.08,0.2-0.12,0.31-0.12c0.1,0,0.19,0.04,0.25,0.12c0.01,0.02,0.02,0.03,0.03,0.05c0.03,0.01,0.07,0.02,0.09,0.05
		c0.13,0.14,0.3,0.34,0.34,0.59c0.03,0.16-0.02,0.34-0.13,0.46c-0.09,0.1-0.2,0.16-0.33,0.17
		C426.67,309.89,426.67,309.89,426.67,309.89z M426.4,308.78c-0.02,0-0.04,0.01-0.06,0.02c-0.04,0.04-0.06,0.12-0.05,0.21
		c0.01,0.18,0.09,0.35,0.22,0.46c0.06,0.05,0.11,0.08,0.16,0.08c0.03,0,0.06-0.02,0.09-0.05c0.04-0.05,0.07-0.13,0.05-0.2
		c-0.02-0.14-0.13-0.27-0.26-0.42c-0.02-0.02-0.03-0.05-0.04-0.07c-0.03,0-0.06-0.02-0.09-0.04
		C426.42,308.78,426.41,308.78,426.4,308.78z"/>
	<path class="st1" d="M424.22,309.05c-0.04,0-0.08-0.01-0.11-0.04c-0.07-0.06-0.07-0.16-0.01-0.23c0.22-0.24,0.41-0.48,0.41-0.75
		c0-0.09,0.07-0.16,0.16-0.17c0,0,0,0,0,0c0.09,0,0.16,0.07,0.16,0.16c0,0.38-0.24,0.69-0.49,0.97
		C424.31,309.03,424.26,309.05,424.22,309.05z"/>
	<path class="st1" d="M425.06,309.64c-0.08,0-0.15-0.06-0.16-0.14l-0.16-1.22c-0.01-0.09,0.05-0.17,0.14-0.18
		c0.09-0.01,0.17,0.05,0.18,0.14l0.16,1.22c0.01,0.09-0.05,0.17-0.14,0.18C425.08,309.64,425.07,309.64,425.06,309.64z"/>
	<path class="st1" d="M425.56,308.87c-0.02,0-0.04,0-0.06-0.01c-0.3-0.13-0.54-0.37-0.67-0.67c-0.04-0.08,0-0.18,0.09-0.22
		c0.08-0.04,0.18,0,0.22,0.09c0.09,0.22,0.27,0.4,0.49,0.49c0.08,0.04,0.12,0.13,0.09,0.22
		C425.68,308.83,425.62,308.87,425.56,308.87z"/>
	<path class="st1" d="M426.14,307.55c-0.05,0-0.1-0.01-0.15-0.02c-0.17-0.05-0.3-0.17-0.35-0.33c-0.04-0.16,0-0.33,0.13-0.46
		c0.12-0.13,0.29-0.19,0.45-0.16c0.01,0,0.03,0.01,0.04,0.01c0.01,0,0.03,0,0.04,0.01c0.15,0.06,0.26,0.2,0.3,0.38
		c0.03,0.18-0.02,0.35-0.14,0.46C426.37,307.51,426.26,307.55,426.14,307.55z M426.13,306.9c-0.05,0-0.1,0.03-0.12,0.06
		c-0.03,0.04-0.07,0.1-0.05,0.15c0.02,0.06,0.07,0.09,0.12,0.1c0.05,0.01,0.11,0.02,0.16-0.02c0.04-0.04,0.05-0.11,0.04-0.15
		c-0.01-0.05-0.04-0.11-0.09-0.13c0,0-0.01,0-0.01-0.01c0,0-0.01,0-0.01,0C426.14,306.9,426.14,306.9,426.13,306.9z"/>
	<path class="st1" d="M423.13,307.43c-0.02,0-0.03,0-0.05,0l-0.07-0.01l-0.04-0.06c-0.08-0.13-0.1-0.29-0.05-0.43l0.02-0.06
		l0.05-0.03c0.06-0.04,0.13-0.05,0.2-0.03c0.07,0.02,0.13,0.06,0.16,0.13c0.01,0.03,0.02,0.06,0.02,0.09
		c0.04,0.07,0.04,0.16,0.01,0.24C423.34,307.36,423.24,307.43,423.13,307.43z"/>
	<path class="st1" d="M412.15,318.87c-0.15,0-0.31-0.01-0.47-0.04c-1.83-0.28-2.86-2.14-3.32-3.23c-0.61-1.45-1.18-3.62-0.43-5.69
		c0.15-0.41,0.34-0.8,0.53-1.18c0.33-0.67,0.65-1.31,0.72-2.01c0.11-1.09-0.37-2.09-0.89-3.15c-0.42-0.86-0.85-1.75-0.94-2.7
		c-0.21-2.09,1.51-4.18,3.6-4.39c0.09-0.01,0.17,0.06,0.18,0.15c0.01,0.09-0.06,0.17-0.15,0.18c-1.92,0.19-3.49,2.11-3.3,4.03
		c0.09,0.9,0.51,1.76,0.91,2.59c0.51,1.05,1.04,2.14,0.92,3.33c-0.08,0.76-0.42,1.46-0.76,2.12c-0.18,0.37-0.38,0.75-0.52,1.14
		c-0.71,1.97-0.16,4.05,0.43,5.45c0.43,1.02,1.4,2.78,3.07,3.03c2.3,0.35,3.9-2.3,4.33-3.13c1.59-3.01,2.27-6.54,1.91-9.92
		c-0.12-1.13-0.33-2.01-0.67-2.78c-0.61-1.41-1.7-2.55-2.74-3.65c-0.99-1.05-2.31-2.2-3.67-1.84c-0.09,0.02-0.18-0.03-0.2-0.12
		c-0.02-0.09,0.03-0.18,0.12-0.2c1.53-0.4,2.94,0.82,3.99,1.94c1.02,1.07,2.17,2.28,2.81,3.75c0.35,0.8,0.57,1.71,0.69,2.87
		c0.37,3.45-0.32,7.04-1.94,10.11C415.92,316.35,414.4,318.87,412.15,318.87z"/>
	<path class="st1" d="M426.31,318.75c-0.45,0-0.88-0.07-1.28-0.21c-1.71-0.61-2.86-2.34-3.51-5.29c-0.8-3.63-1.02-7.34-0.65-11.04
		c0.14-1.43,0.39-3.1,1.17-4.57c0.68-1.29,2.57-3.18,4.2-3.22c0.8-0.01,1.44,0.38,1.91,1.17l0,0c0.56,0.95,0.57,2.14,0.58,3.1
		l0.03,3.49c0.01,0.81,0.02,1.73,0.45,2.46c0.34,0.58,0.9,0.96,1.48,1.37c0.4,0.28,0.82,0.57,1.17,0.93
		c2.26,2.35,0.64,6.17,0.09,7.28c-0.8,1.62-1.65,2.73-2.67,3.49C428.38,318.39,427.32,318.75,426.31,318.75z M426.29,294.74
		c-0.01,0-0.03,0-0.05,0c-1.51,0.04-3.28,1.82-3.92,3.04c-0.75,1.42-0.99,3.05-1.13,4.45c-0.36,3.66-0.14,7.34,0.65,10.93
		c0.62,2.83,1.7,4.48,3.3,5.05c1.21,0.43,2.73,0.14,3.95-0.77c0.98-0.73,1.79-1.8,2.57-3.37c1.09-2.2,1.65-5.16-0.03-6.91
		c-0.32-0.34-0.73-0.62-1.12-0.89c-0.59-0.41-1.2-0.84-1.58-1.48c-0.48-0.81-0.49-1.82-0.5-2.62l-0.03-3.49
		c-0.01-0.96-0.02-2.06-0.54-2.93C427.47,295.08,426.94,294.74,426.29,294.74z"/>
</g>
<rect x="303.91" y="267.35" class="st7" width="175.12" height="19.46"/>
<rect x="303.91" y="325.72" class="st7" width="175.12" height="19.46"/>
<rect x="435.8" y="290.8" class="st8" width="41.36" height="31.83"/>
<text transform="matrix(1 0 0 1 436.7891 295.7661)"><tspan x="0" y="0" class="st9 st10 st11">Northwestern </tspan><tspan x="11.13" y="8.4" class="st9 st10 st11">University </tspan><tspan x="19.04" y="16.8" class="st9 st10 st11">Malaria </tspan><tspan x="12.35" y="25.2" class="st9 st10 st11">Modeling </tspan></text>
</svg>
